Lakki Reddy-Regular.ufo
<glyph name="exclam" format="1">
  <advance width="300"/>
  <unicode hex="0021"/>
  <outline>
    <contour>
      <point x="88" y="718"/>
      <point x="100" y="715"/>
      <point x="111" y="714" type="curve"/>
      <point x="134" y="710"/>
      <point x="152" y="707"/>
      <point x="169" y="706" type="curve" smooth="yes"/>
      <point x="188" y="705"/>
      <point x="211" y="703"/>
      <point x="243" y="703" type="curve" smooth="yes"/>
      <point x="300" y="703" type="line"/>
      <point x="261" y="611"/>
      <point x="238" y="549"/>
      <point x="225" y="508" type="curve" smooth="yes"/>
      <point x="210" y="460"/>
      <point x="207" y="437"/>
      <point x="199" y="393" type="curve" smooth="yes"/>
      <point x="196" y="374"/>
      <point x="191" y="350"/>
      <point x="185" y="322" type="curve" smooth="yes"/>
      <point x="179" y="294"/>
      <point x="172" y="261"/>
      <point x="165" y="222" type="curve"/>
      <point x="77" y="226" type="line"/>
      <point x="82" y="261"/>
      <point x="86" y="292"/>
      <point x="88" y="317" type="curve" smooth="yes"/>
      <point x="92" y="367"/>
      <point x="95" y="402"/>
      <point x="95" y="427" type="curve" smooth="yes"/>
      <point x="95" y="454"/>
      <point x="91" y="501"/>
      <point x="86" y="577" type="curve" smooth="yes"/>
      <point x="83" y="614"/>
      <point x="80" y="662"/>
      <point x="75" y="721" type="curve"/>
    </contour>
    <contour>
      <point x="194" y="131"/>
      <point x="196" y="113"/>
      <point x="192" y="95" type="curve" smooth="yes"/>
      <point x="187" y="77"/>
      <point x="174" y="59"/>
      <point x="153" y="50" type="curve" smooth="yes"/>
      <point x="110" y="30"/>
      <point x="75" y="44"/>
      <point x="59" y="68" type="curve" smooth="yes"/>
      <point x="50" y="81"/>
      <point x="49" y="99"/>
      <point x="56" y="116" type="curve" smooth="yes"/>
      <point x="63" y="132"/>
      <point x="77" y="148"/>
      <point x="100" y="157" type="curve" smooth="yes"/>
      <point x="144" y="176"/>
      <point x="173" y="169"/>
      <point x="185" y="146" type="curve" smooth="yes"/>
    </contour>
  </outline>
</glyph>
<glyph name="quotedbl" format="1">
  <advance width="389"/>
  <unicode hex="0022"/>
  <outline>
	<contour>
	  <point x="125" y="488" type="line"/>
	  <point x="55" y="484" type="line"/>
	  <point x="41" y="762" type="line"/>
	  <point x="148" y="754" type="line"/>
	</contour>
	<contour>
	  <point x="304" y="499" type="line"/>
	  <point x="232" y="496" type="line"/>
	  <point x="206" y="750" type="line"/>
	  <point x="327" y="742" type="line"/>
	</contour>
  </outline>
</glyph>
<glyph name="numbersign" format="1">
  <advance width="674"/>
  <unicode hex="0023"/>
  <outline>
    <contour>
      <point x="54" y="393" type="line"/>
      <point x="86" y="491" type="line"/>
      <point x="180" y="509" type="line"/>
      <point x="183" y="516"/>
      <point x="185" y="523"/>
      <point x="186" y="532" type="curve" smooth="yes"/>
      <point x="187" y="541"/>
      <point x="189" y="549"/>
      <point x="190" y="557" type="curve" smooth="yes"/>
      <point x="191" y="566"/>
      <point x="192" y="576"/>
      <point x="192" y="585" type="curve" smooth="yes"/>
      <point x="192" y="592"/>
      <point x="193" y="601"/>
      <point x="194" y="611" type="curve" smooth="yes"/>
      <point x="195" y="619"/>
      <point x="197" y="629"/>
      <point x="198" y="641" type="curve" smooth="yes"/>
      <point x="199" y="652"/>
      <point x="201" y="665"/>
      <point x="204" y="678" type="curve"/>
      <point x="290" y="673" type="line"/>
      <point x="283" y="646"/>
      <point x="280" y="626"/>
      <point x="277" y="611" type="curve" smooth="yes"/>
      <point x="275" y="603"/>
      <point x="274" y="596"/>
      <point x="273" y="590" type="curve" smooth="yes"/>
      <point x="270" y="567" type="line"/>
      <point x="267" y="552"/>
      <point x="264" y="533"/>
      <point x="261" y="506" type="curve"/>
      <point x="278" y="509"/>
      <point x="294" y="511"/>
      <point x="307" y="512" type="curve" smooth="yes"/>
      <point x="320" y="513"/>
      <point x="332" y="515"/>
      <point x="341" y="516" type="curve" smooth="yes"/>
      <point x="352" y="517"/>
      <point x="361" y="518"/>
      <point x="369" y="518" type="curve" smooth="yes"/>
      <point x="385" y="519"/>
      <point x="402" y="521"/>
      <point x="423" y="522" type="curve" smooth="yes"/>
      <point x="434" y="522"/>
      <point x="445" y="522"/>
      <point x="458" y="523" type="curve"/>
      <point x="489" y="673" type="line"/>
      <point x="598" y="671" type="line"/>
      <point x="589" y="647"/>
      <point x="583" y="628"/>
      <point x="579" y="613" type="curve" smooth="yes"/>
      <point x="576" y="605"/>
      <point x="574" y="597"/>
      <point x="573" y="590" type="curve" smooth="yes"/>
      <point x="570" y="577"/>
      <point x="567" y="564"/>
      <point x="563" y="549" type="curve" smooth="yes"/>
      <point x="561" y="541"/>
      <point x="559" y="533"/>
      <point x="556" y="526" type="curve"/>
      <point x="659" y="526" type="line"/>
      <point x="637" y="423" type="line"/>
      <point x="628" y="426"/>
      <point x="615" y="429"/>
      <point x="604" y="432" type="curve"/>
      <point x="583" y="435" type="line" smooth="yes"/>
      <point x="577" y="436"/>
      <point x="571" y="436"/>
      <point x="565" y="437" type="curve" smooth="yes"/>
      <point x="554" y="438"/>
      <point x="545" y="438"/>
      <point x="539" y="437" type="curve"/>
      <point x="536" y="426"/>
      <point x="534" y="415"/>
      <point x="532" y="406" type="curve" smooth="yes"/>
      <point x="527" y="387"/>
      <point x="524" y="372"/>
      <point x="521" y="359" type="curve" smooth="yes"/>
      <point x="511" y="313" type="line" smooth="yes"/>
      <point x="509" y="304"/>
      <point x="507" y="293"/>
      <point x="504" y="282" type="curve"/>
      <point x="525" y="282" type="line" smooth="yes"/>
      <point x="537" y="282"/>
      <point x="549" y="284"/>
      <point x="558" y="285" type="curve" smooth="yes"/>
      <point x="563" y="285"/>
      <point x="568" y="285"/>
      <point x="575" y="286" type="curve" smooth="yes"/>
      <point x="580" y="287"/>
      <point x="587" y="287"/>
      <point x="595" y="288" type="curve" smooth="yes"/>
      <point x="602" y="288"/>
      <point x="611" y="289"/>
      <point x="620" y="290" type="curve"/>
      <point x="583" y="201" type="line"/>
      <point x="572" y="200"/>
      <point x="562" y="201"/>
      <point x="554" y="202" type="curve" smooth="yes"/>
      <point x="545" y="203"/>
      <point x="537" y="204"/>
      <point x="525" y="207" type="curve"/>
      <point x="514" y="208"/>
      <point x="501" y="210"/>
      <point x="482" y="211" type="curve"/>
      <point x="479" y="207"/>
      <point x="477" y="196"/>
      <point x="474" y="185" type="curve" smooth="yes"/>
      <point x="473" y="178"/>
      <point x="471" y="172"/>
      <point x="470" y="165" type="curve" smooth="yes"/>
      <point x="465" y="140" type="line" smooth="yes"/>
      <point x="464" y="133"/>
      <point x="462" y="125"/>
      <point x="460" y="116" type="curve" smooth="yes"/>
      <point x="458" y="107"/>
      <point x="456" y="97"/>
      <point x="455" y="88" type="curve"/>
      <point x="436" y="85"/>
      <point x="422" y="82"/>
      <point x="411" y="81" type="curve"/>
      <point x="387" y="77" type="line" smooth="yes"/>
      <point x="374" y="74"/>
      <point x="371" y="73"/>
      <point x="374" y="93" type="curve" smooth="yes"/>
      <point x="375" y="102"/>
      <point x="378" y="115"/>
      <point x="381" y="133" type="curve" smooth="yes"/>
      <point x="384" y="151"/>
      <point x="389" y="177"/>
      <point x="396" y="211" type="curve"/>
      <point x="380" y="210"/>
      <point x="358" y="208"/>
      <point x="341" y="205" type="curve" smooth="yes"/>
      <point x="320" y="202"/>
      <point x="301" y="200"/>
      <point x="277" y="196" type="curve" smooth="yes"/>
      <point x="257" y="193"/>
      <point x="231" y="189"/>
      <point x="207" y="184" type="curve"/>
      <point x="175" y="54" type="line"/>
      <point x="96" y="47" type="line"/>
      <point x="99" y="61"/>
      <point x="103" y="73"/>
      <point x="106" y="83" type="curve" smooth="yes"/>
      <point x="112" y="102"/>
      <point x="115" y="115"/>
      <point x="116" y="123" type="curve" smooth="yes"/>
      <point x="117" y="126"/>
      <point x="118" y="131"/>
      <point x="119" y="137" type="curve" smooth="yes"/>
      <point x="122" y="148"/>
      <point x="123" y="162"/>
      <point x="126" y="182" type="curve"/>
      <point x="107" y="175"/>
      <point x="91" y="170"/>
      <point x="80" y="167" type="curve" smooth="yes"/>
      <point x="73" y="165"/>
      <point x="67" y="163"/>
      <point x="62" y="162" type="curve" smooth="yes"/>
      <point x="51" y="159"/>
      <point x="40" y="156"/>
      <point x="28" y="151" type="curve" smooth="yes"/>
      <point x="10" y="142" type="line"/>
      <point x="23" y="241" type="line"/>
      <point x="133" y="251" type="line"/>
      <point x="136" y="263"/>
      <point x="138" y="274"/>
      <point x="141" y="284" type="curve" smooth="yes"/>
      <point x="145" y="303"/>
      <point x="149" y="317"/>
      <point x="150" y="332" type="curve" smooth="yes"/>
      <point x="151" y="340"/>
      <point x="153" y="349"/>
      <point x="155" y="358" type="curve" smooth="yes"/>
      <point x="158" y="374"/>
      <point x="161" y="395"/>
      <point x="165" y="420" type="curve"/>
      <point x="150" y="419"/>
      <point x="140" y="417"/>
      <point x="129" y="416" type="curve"/>
      <point x="113" y="413" type="line" smooth="yes"/>
      <point x="106" y="412"/>
      <point x="97" y="408"/>
      <point x="82" y="403" type="curve" smooth="yes"/>
    </contour>
    <contour>
      <point x="224" y="253" type="line"/>
      <point x="257" y="256"/>
      <point x="282" y="259"/>
      <point x="298" y="262" type="curve"/>
      <point x="346" y="268" type="line" smooth="yes"/>
      <point x="354" y="269"/>
      <point x="364" y="271"/>
      <point x="376" y="272" type="curve" smooth="yes"/>
      <point x="416" y="275" type="line"/>
      <point x="448" y="445" type="line"/>
      <point x="432" y="444"/>
      <point x="418" y="443"/>
      <point x="405" y="443" type="curve" smooth="yes"/>
      <point x="392" y="442"/>
      <point x="381" y="442"/>
      <point x="372" y="441" type="curve" smooth="yes"/>
      <point x="361" y="440"/>
      <point x="352" y="440"/>
      <point x="344" y="440" type="curve" smooth="yes"/>
      <point x="328" y="439"/>
      <point x="311" y="437"/>
      <point x="290" y="437" type="curve"/>
      <point x="279" y="436"/>
      <point x="268" y="436"/>
      <point x="256" y="435" type="curve"/>
    </contour>
  </outline>
</glyph>
<glyph name="dollar" format="1">
  <advance width="570"/>
  <unicode hex="0024"/>
  <outline>
    <contour>
      <point x="344" y="634"/>
      <point x="376" y="628"/>
      <point x="400" y="625" type="curve" smooth="yes"/>
      <point x="427" y="621"/>
      <point x="447" y="623"/>
      <point x="467" y="628" type="curve" smooth="yes"/>
      <point x="484" y="633"/>
      <point x="506" y="642"/>
      <point x="523" y="659" type="curve"/>
      <point x="512" y="614"/>
      <point x="506" y="585"/>
      <point x="503" y="568" type="curve" smooth="yes"/>
      <point x="499" y="545" type="line" smooth="yes"/>
      <point x="498" y="540"/>
      <point x="497" y="531"/>
      <point x="495" y="520" type="curve" smooth="yes"/>
      <point x="490" y="481" type="line"/>
      <point x="487" y="464"/>
      <point x="484" y="442"/>
      <point x="480" y="415" type="curve"/>
      <point x="449" y="475"/>
      <point x="418" y="509"/>
      <point x="393" y="532" type="curve" smooth="yes"/>
      <point x="378" y="545"/>
      <point x="364" y="554"/>
      <point x="351" y="561" type="curve"/>
      <point x="338" y="566"/>
      <point x="326" y="570"/>
      <point x="314" y="572" type="curve" smooth="yes"/>
      <point x="307" y="573"/>
      <point x="302" y="572"/>
      <point x="299" y="571" type="curve"/>
      <point x="298" y="430" type="line"/>
      <point x="375" y="422"/>
      <point x="424" y="406"/>
      <point x="455" y="391" type="curve" smooth="yes"/>
      <point x="472" y="382"/>
      <point x="486" y="373"/>
      <point x="496" y="363" type="curve"/>
      <point x="539" y="311"/>
      <point x="563" y="282"/>
      <point x="559" y="234" type="curve"/>
      <point x="558" y="210"/>
      <point x="545" y="178"/>
      <point x="526" y="150" type="curve" smooth="yes"/>
      <point x="506" y="122"/>
      <point x="480" y="99"/>
      <point x="451" y="94" type="curve"/>
      <point x="427" y="91"/>
      <point x="404" y="90"/>
      <point x="373" y="92" type="curve" smooth="yes"/>
      <point x="358" y="93"/>
      <point x="342" y="95"/>
      <point x="325" y="98" type="curve"/>
      <point x="326" y="80"/>
      <point x="327" y="66"/>
      <point x="328" y="57" type="curve" smooth="yes"/>
      <point x="329" y="46"/>
      <point x="330" y="41"/>
      <point x="333" y="34" type="curve" smooth="yes"/>
      <point x="334" y="31"/>
      <point x="336" y="27"/>
      <point x="337" y="23" type="curve" smooth="yes"/>
      <point x="338" y="18"/>
      <point x="340" y="13"/>
      <point x="342" y="8" type="curve"/>
      <point x="227" y="7" type="line"/>
      <point x="235" y="15"/>
      <point x="240" y="23"/>
      <point x="243" y="28" type="curve" smooth="yes"/>
      <point x="245" y="31"/>
      <point x="246" y="33"/>
      <point x="246" y="36" type="curve" smooth="yes"/>
      <point x="246" y="39"/>
      <point x="246" y="43"/>
      <point x="247" y="49" type="curve" smooth="yes"/>
      <point x="247" y="54"/>
      <point x="247" y="61"/>
      <point x="248" y="70" type="curve"/>
      <point x="248" y="103" type="line"/>
      <point x="213" y="111"/>
      <point x="190" y="113"/>
      <point x="171" y="113" type="curve" smooth="yes"/>
      <point x="150" y="113"/>
      <point x="137" y="107"/>
      <point x="124" y="102" type="curve" smooth="yes"/>
      <point x="113" y="97"/>
      <point x="99" y="88"/>
      <point x="91" y="77" type="curve"/>
      <point x="88" y="90"/>
      <point x="87" y="102"/>
      <point x="86" y="114" type="curve" smooth="yes"/>
      <point x="85" y="126"/>
      <point x="83" y="137"/>
      <point x="82" y="147" type="curve" smooth="yes"/>
      <point x="79" y="180" type="line"/>
      <point x="79" y="191"/>
      <point x="79" y="204"/>
      <point x="78" y="217" type="curve" smooth="yes"/>
      <point x="77" y="240"/>
      <point x="76" y="272"/>
      <point x="77" y="311" type="curve"/>
      <point x="106" y="276" type="line" smooth="yes"/>
      <point x="114" y="265"/>
      <point x="121" y="255"/>
      <point x="128" y="247" type="curve" smooth="yes"/>
      <point x="143" y="227"/>
      <point x="154" y="209"/>
      <point x="173" y="194" type="curve" smooth="yes"/>
      <point x="188" y="182"/>
      <point x="210" y="170"/>
      <point x="234" y="177" type="curve"/>
      <point x="229" y="349" type="line"/>
      <point x="186" y="352"/>
      <point x="155" y="357"/>
      <point x="136" y="364" type="curve"/>
      <point x="112" y="371"/>
      <point x="102" y="380"/>
      <point x="76" y="403" type="curve" smooth="yes"/>
      <point x="50" y="426"/>
      <point x="28" y="455"/>
      <point x="18" y="488" type="curve" smooth="yes"/>
      <point x="8" y="520"/>
      <point x="31" y="555"/>
      <point x="43" y="579" type="curve" smooth="yes"/>
      <point x="55" y="602"/>
      <point x="69" y="617"/>
      <point x="86" y="628" type="curve" smooth="yes"/>
      <point x="102" y="639"/>
      <point x="121" y="645"/>
      <point x="140" y="649" type="curve" smooth="yes"/>
      <point x="156" y="652"/>
      <point x="181" y="654"/>
      <point x="217" y="654" type="curve"/>
      <point x="214" y="670" type="line" smooth="yes"/>
      <point x="213" y="675"/>
      <point x="213" y="679"/>
      <point x="212" y="683" type="curve" smooth="yes"/>
      <point x="210" y="697" type="line" smooth="yes"/>
      <point x="210" y="702"/>
      <point x="209" y="707"/>
      <point x="208" y="712" type="curve" smooth="yes"/>
      <point x="207" y="717"/>
      <point x="205" y="722"/>
      <point x="204" y="727" type="curve" smooth="yes"/>
      <point x="203" y="732"/>
      <point x="201" y="737"/>
      <point x="199" y="742" type="curve"/>
      <point x="329" y="740" type="line"/>
      <point x="318" y="727"/>
      <point x="313" y="716"/>
      <point x="309" y="708" type="curve" smooth="yes"/>
      <point x="306" y="703"/>
      <point x="305" y="699"/>
      <point x="304" y="695" type="curve" smooth="yes"/>
      <point x="304" y="692"/>
      <point x="304" y="688"/>
      <point x="303" y="684" type="curve" smooth="yes"/>
      <point x="302" y="676"/>
      <point x="301" y="666"/>
      <point x="301" y="647" type="curve"/>
    </contour>
    <contour>
      <point x="147" y="473"/>
      <point x="159" y="459"/>
      <point x="181" y="444" type="curve" smooth="yes"/>
      <point x="192" y="437"/>
      <point x="208" y="430"/>
      <point x="229" y="425" type="curve"/>
      <point x="222" y="561" type="line"/>
      <point x="186" y="561"/>
      <point x="168" y="544"/>
      <point x="157" y="525" type="curve" smooth="yes"/>
      <point x="151" y="514"/>
      <point x="147" y="503"/>
      <point x="146" y="490" type="curve"/>
    </contour>
    <contour>
      <point x="307" y="274" type="line" smooth="yes"/>
      <point x="308" y="265"/>
      <point x="308" y="258"/>
      <point x="308" y="251" type="curve" smooth="yes"/>
      <point x="308" y="244"/>
      <point x="308" y="237"/>
      <point x="309" y="229" type="curve" smooth="yes"/>
      <point x="310" y="222"/>
      <point x="310" y="213"/>
      <point x="311" y="203" type="curve"/>
      <point x="311" y="192"/>
      <point x="312" y="180"/>
      <point x="313" y="167" type="curve"/>
      <point x="362" y="174"/>
      <point x="386" y="191"/>
      <point x="401" y="210" type="curve"/>
      <point x="408" y="221"/>
      <point x="413" y="232"/>
      <point x="416" y="244" type="curve"/>
      <point x="416" y="284"/>
      <point x="403" y="313"/>
      <point x="372" y="331" type="curve" smooth="yes"/>
      <point x="357" y="340"/>
      <point x="334" y="342"/>
      <point x="304" y="339" type="curve"/>
    </contour>
  </outline>
</glyph>
<glyph name="percent" format="1">
  <advance width="726"/>
  <unicode hex="0025"/>
  <outline>
	<contour>
	  <point x="347" y="503"/>
	  <point x="282" y="453"/>
	  <point x="197" y="450" type="curve" smooth="yes"/>
	  <point x="154" y="449"/>
	  <point x="108" y="458"/>
	  <point x="73" y="479" type="curve"/>
	  <point x="37" y="499"/>
	  <point x="13" y="531"/>
	  <point x="16" y="575" type="curve" smooth="yes"/>
	  <point x="19" y="622"/>
	  <point x="38" y="655"/>
	  <point x="67" y="677" type="curve" smooth="yes"/>
	  <point x="96" y="699"/>
	  <point x="135" y="709"/>
	  <point x="175" y="709" type="curve" smooth="yes"/>
	  <point x="216" y="709"/>
	  <point x="261" y="699"/>
	  <point x="295" y="680" type="curve" smooth="yes"/>
	  <point x="329" y="660"/>
	  <point x="352" y="631"/>
	  <point x="351" y="595" type="curve" smooth="yes"/>
	</contour>
	<contour>
	  <point x="610" y="702" type="line"/>
	  <point x="559" y="630"/>
	  <point x="509" y="548"/>
	  <point x="470" y="481" type="curve" smooth="yes"/>
	  <point x="447" y="442"/>
	  <point x="426" y="404"/>
	  <point x="405" y="367" type="curve"/>
	  <point x="370" y="298"/>
	  <point x="339" y="232"/>
	  <point x="308" y="153" type="curve" smooth="yes"/>
	  <point x="293" y="113"/>
	  <point x="279" y="72"/>
	  <point x="268" y="31" type="curve"/>
	  <point x="115" y="24" type="line"/>
	  <point x="208" y="176"/>
	  <point x="268" y="278"/>
	  <point x="305" y="345" type="curve" smooth="yes"/>
	  <point x="349" y="422"/>
	  <point x="363" y="454"/>
	  <point x="384" y="506" type="curve" smooth="yes"/>
	  <point x="403" y="550"/>
	  <point x="427" y="615"/>
	  <point x="458" y="702" type="curve"/>
	</contour>
	<contour>
	  <point x="130" y="554"/>
	  <point x="137" y="535"/>
	  <point x="146" y="522" type="curve" smooth="yes"/>
	  <point x="155" y="509"/>
	  <point x="169" y="500"/>
	  <point x="182" y="501" type="curve" smooth="yes"/>
	  <point x="195" y="502"/>
	  <point x="211" y="511"/>
	  <point x="223" y="525" type="curve" smooth="yes"/>
	  <point x="234" y="539"/>
	  <point x="241" y="558"/>
	  <point x="240" y="581" type="curve" smooth="yes"/>
	  <point x="240" y="604"/>
	  <point x="236" y="625"/>
	  <point x="227" y="641" type="curve" smooth="yes"/>
	  <point x="218" y="656"/>
	  <point x="203" y="665"/>
	  <point x="182" y="662" type="curve" smooth="yes"/>
	  <point x="153" y="659"/>
	  <point x="127" y="620"/>
	  <point x="130" y="573" type="curve"/>
	</contour>
	<contour>
	  <point x="382" y="177"/>
	  <point x="398" y="214"/>
	  <point x="424" y="240" type="curve" smooth="yes"/>
	  <point x="450" y="266"/>
	  <point x="486" y="281"/>
	  <point x="529" y="284" type="curve" smooth="yes"/>
	  <point x="572" y="287"/>
	  <point x="619" y="280"/>
	  <point x="655" y="261" type="curve" smooth="yes"/>
	  <point x="691" y="242"/>
	  <point x="716" y="211"/>
	  <point x="716" y="167" type="curve" smooth="yes"/>
	  <point x="716" y="120"/>
	  <point x="697" y="87"/>
	  <point x="669" y="64" type="curve" smooth="yes"/>
	  <point x="641" y="40"/>
	  <point x="603" y="27"/>
	  <point x="563" y="26" type="curve"/>
	  <point x="522" y="23"/>
	  <point x="477" y="33"/>
	  <point x="442" y="51" type="curve" smooth="yes"/>
	  <point x="406" y="69"/>
	  <point x="382" y="96"/>
	  <point x="382" y="132" type="curve" smooth="yes"/>
	</contour>
	<contour>
	  <point x="599" y="203"/>
	  <point x="573" y="237"/>
	  <point x="546" y="234" type="curve" smooth="yes"/>
	  <point x="533" y="233"/>
	  <point x="518" y="224"/>
	  <point x="507" y="209" type="curve" smooth="yes"/>
	  <point x="496" y="194"/>
	  <point x="489" y="175"/>
	  <point x="492" y="152" type="curve"/>
	  <point x="493" y="129"/>
	  <point x="499" y="108"/>
	  <point x="508" y="93" type="curve" smooth="yes"/>
	  <point x="517" y="78"/>
	  <point x="532" y="69"/>
	  <point x="553" y="73" type="curve" smooth="yes"/>
	  <point x="582" y="78"/>
	  <point x="606" y="119"/>
	  <point x="602" y="164" type="curve" smooth="yes"/>
	</contour>
  </outline>
</glyph>
<glyph name="ampersand" format="1">
  <advance width="587"/>
  <unicode hex="0026"/>
  <outline>
    <contour>
      <point x="433" y="383"/>
      <point x="459" y="384"/>
      <point x="479" y="385" type="curve"/>
      <point x="511" y="388" type="line"/>
      <point x="550" y="391" type="line"/>
      <point x="577" y="392"/>
      <point x="614" y="394"/>
      <point x="669" y="395" type="curve"/>
      <point x="640" y="384"/>
      <point x="619" y="370"/>
      <point x="606" y="359" type="curve" smooth="yes"/>
      <point x="591" y="346"/>
      <point x="581" y="334"/>
      <point x="569" y="310" type="curve" smooth="yes"/>
      <point x="556" y="285"/>
      <point x="541" y="258"/>
      <point x="525" y="231" type="curve" smooth="yes"/>
      <point x="516" y="217"/>
      <point x="507" y="205"/>
      <point x="497" y="194" type="curve" smooth="yes"/>
      <point x="491" y="187"/>
      <point x="485" y="180"/>
      <point x="478" y="173" type="curve" smooth="yes"/>
      <point x="467" y="160"/>
      <point x="452" y="143"/>
      <point x="437" y="128" type="curve"/>
      <point x="470" y="91"/>
      <point x="498" y="66"/>
      <point x="517" y="51" type="curve" smooth="yes"/>
      <point x="540" y="32"/>
      <point x="553" y="24"/>
      <point x="574" y="13" type="curve" smooth="yes"/>
      <point x="591" y="4"/>
      <point x="616" y="-7"/>
      <point x="645" y="-18" type="curve"/>
      <point x="571" y="-23"/>
      <point x="514" y="-27"/>
      <point x="473" y="-29" type="curve" smooth="yes"/>
      <point x="384" y="-35" type="line" smooth="yes"/>
      <point x="362" y="-37"/>
      <point x="349" y="-38"/>
      <point x="344" y="-38" type="curve"/>
      <point x="343" y="-39"/>
      <point x="344" y="-37"/>
      <point x="348" y="-34" type="curve" smooth="yes"/>
      <point x="356" y="-28"/>
      <point x="368" y="-18"/>
      <point x="377" y="-5" type="curve" smooth="yes"/>
      <point x="382" y="1"/>
      <point x="384" y="7"/>
      <point x="384" y="14" type="curve" smooth="yes"/>
      <point x="384" y="25"/>
      <point x="383" y="36"/>
      <point x="380" y="49" type="curve" smooth="yes"/>
      <point x="379" y="56"/>
      <point x="376" y="63"/>
      <point x="373" y="70" type="curve"/>
      <point x="346" y="27"/>
      <point x="302" y="8"/>
      <point x="265" y="-1" type="curve" smooth="yes"/>
      <point x="243" y="-6"/>
      <point x="221" y="-9"/>
      <point x="198" y="-8" type="curve" smooth="yes"/>
      <point x="75" y="0"/>
      <point x="35" y="54"/>
      <point x="42" y="159" type="curve"/>
      <point x="47" y="200"/>
      <point x="66" y="245"/>
      <point x="100" y="300" type="curve" smooth="yes"/>
      <point x="117" y="327"/>
      <point x="141" y="357"/>
      <point x="172" y="389" type="curve"/>
      <point x="105" y="466"/>
      <point x="76" y="529"/>
      <point x="63" y="573" type="curve" smooth="yes"/>
      <point x="56" y="599"/>
      <point x="53" y="622"/>
      <point x="54" y="641" type="curve"/>
      <point x="63" y="701"/>
      <point x="92" y="727"/>
      <point x="126" y="738" type="curve" smooth="yes"/>
      <point x="143" y="743"/>
      <point x="161" y="746"/>
      <point x="180" y="746" type="curve" smooth="yes"/>
      <point x="199" y="746"/>
      <point x="217" y="747"/>
      <point x="234" y="748" type="curve" smooth="yes"/>
      <point x="267" y="751"/>
      <point x="314" y="748"/>
      <point x="354" y="738" type="curve" smooth="yes"/>
      <point x="394" y="728"/>
      <point x="428" y="710"/>
      <point x="437" y="683" type="curve" smooth="yes"/>
      <point x="446" y="656"/>
      <point x="452" y="633"/>
      <point x="446" y="606" type="curve" smooth="yes"/>
      <point x="440" y="579"/>
      <point x="420" y="550"/>
      <point x="383" y="514" type="curve"/>
      <point x="355" y="483"/>
      <point x="330" y="459"/>
      <point x="301" y="432" type="curve" smooth="yes"/>
      <point x="286" y="419"/>
      <point x="272" y="407"/>
      <point x="259" y="397" type="curve"/>
      <point x="272" y="372"/>
      <point x="288" y="348"/>
      <point x="300" y="329" type="curve" smooth="yes"/>
      <point x="307" y="318"/>
      <point x="314" y="307"/>
      <point x="321" y="297" type="curve" smooth="yes"/>
      <point x="337" y="270"/>
      <point x="356" y="244"/>
      <point x="372" y="225" type="curve" smooth="yes"/>
      <point x="379" y="216"/>
      <point x="386" y="208"/>
      <point x="391" y="203" type="curve" smooth="yes"/>
      <point x="396" y="198"/>
      <point x="400" y="196"/>
      <point x="401" y="197" type="curve" smooth="yes"/>
      <point x="402" y="198"/>
      <point x="405" y="205"/>
      <point x="411" y="216" type="curve" smooth="yes"/>
      <point x="422" y="239"/>
      <point x="437" y="269"/>
      <point x="449" y="297" type="curve" smooth="yes"/>
      <point x="454" y="311"/>
      <point x="458" y="321"/>
      <point x="459" y="328" type="curve"/>
      <point x="458" y="339"/>
      <point x="452" y="351"/>
      <point x="438" y="364" type="curve" smooth="yes"/>
      <point x="431" y="370"/>
      <point x="420" y="377"/>
      <point x="406" y="384" type="curve"/>
    </contour>
    <contour>
      <point x="245" y="507"/>
      <point x="270" y="538"/>
      <point x="285" y="561" type="curve" smooth="yes"/>
      <point x="300" y="584"/>
      <point x="311" y="603"/>
      <point x="316" y="616" type="curve" smooth="yes"/>
      <point x="323" y="631"/>
      <point x="324" y="643"/>
      <point x="321" y="650" type="curve"/>
      <point x="309" y="665"/>
      <point x="281" y="679"/>
      <point x="252" y="680" type="curve" smooth="yes"/>
      <point x="223" y="680"/>
      <point x="190" y="670"/>
      <point x="169" y="634" type="curve"/>
      <point x="161" y="617"/>
      <point x="164" y="588"/>
      <point x="177" y="547" type="curve" smooth="yes"/>
      <point x="183" y="526"/>
      <point x="195" y="500"/>
      <point x="212" y="469" type="curve"/>
    </contour>
    <contour>
      <point x="209" y="131"/>
      <point x="232" y="122"/>
      <point x="268" y="127" type="curve" smooth="yes"/>
      <point x="285" y="130"/>
      <point x="307" y="140"/>
      <point x="332" y="157" type="curve"/>
      <point x="322" y="170"/>
      <point x="313" y="183"/>
      <point x="306" y="194" type="curve" smooth="yes"/>
      <point x="299" y="205"/>
      <point x="292" y="214"/>
      <point x="287" y="221" type="curve" smooth="yes"/>
      <point x="281" y="230"/>
      <point x="276" y="237"/>
      <point x="272" y="243" type="curve" smooth="yes"/>
      <point x="257" y="265" type="line" smooth="yes"/>
      <point x="246" y="280"/>
      <point x="232" y="301"/>
      <point x="212" y="330" type="curve"/>
      <point x="169" y="279"/>
      <point x="153" y="224"/>
      <point x="192" y="156" type="curve"/>
    </contour>
  </outline>
</glyph>
<glyph name="quotesingle" format="1">
  <advance width="209"/>
  <unicode hex="0027"/>
  <outline>
    <contour>
      <point x="125" y="488" type="line"/>
      <point x="55" y="484" type="line"/>
      <point x="41" y="762" type="line"/>
      <point x="148" y="754" type="line"/>
    </contour>
  </outline>
</glyph>
<glyph name="parenleft" format="1">
  <advance width="401"/>
  <unicode hex="0028"/>
  <outline>
	<contour>
	  <point x="336" y="605"/>
	  <point x="343" y="590"/>
	  <point x="342" y="575" type="curve" smooth="yes"/>
	  <point x="341" y="560"/>
	  <point x="330" y="547"/>
	  <point x="306" y="551" type="curve"/>
	  <point x="286" y="550"/>
	  <point x="245" y="524"/>
	  <point x="209" y="482" type="curve" smooth="yes"/>
	  <point x="173" y="440"/>
	  <point x="142" y="382"/>
	  <point x="142" y="315" type="curve" smooth="yes"/>
	  <point x="142" y="262"/>
	  <point x="174" y="208"/>
	  <point x="211" y="167" type="curve" smooth="yes"/>
	  <point x="247" y="126"/>
	  <point x="288" y="97"/>
	  <point x="308" y="97" type="curve"/>
	  <point x="311" y="116"/>
	  <point x="324" y="120"/>
	  <point x="335" y="119" type="curve" smooth="yes"/>
	  <point x="346" y="118"/>
	  <point x="354" y="107"/>
	  <point x="350" y="95" type="curve" smooth="yes"/>
	  <point x="347" y="88"/>
	  <point x="341" y="81"/>
	  <point x="333" y="75" type="curve" smooth="yes"/>
	  <point x="317" y="63"/>
	  <point x="298" y="49"/>
	  <point x="282" y="30" type="curve" smooth="yes"/>
	  <point x="274" y="21"/>
	  <point x="269" y="10"/>
	  <point x="266" y="-3" type="curve"/>
	  <point x="254" y="8"/>
	  <point x="236" y="23"/>
	  <point x="213" y="43" type="curve" smooth="yes"/>
	  <point x="165" y="83"/>
	  <point x="117" y="137"/>
	  <point x="82" y="203" type="curve" smooth="yes"/>
	  <point x="65" y="236"/>
	  <point x="56" y="271"/>
	  <point x="56" y="308" type="curve" smooth="yes"/>
	  <point x="56" y="375"/>
	  <point x="97" y="449"/>
	  <point x="149" y="506" type="curve" smooth="yes"/>
	  <point x="201" y="562"/>
	  <point x="268" y="601"/>
	  <point x="317" y="604" type="curve" smooth="yes"/>
	</contour>
  </outline>
</glyph>
<glyph name="parenright" format="1">
  <advance width="422"/>
  <unicode hex="0029"/>
  <outline>
	<contour>
	  <point x="148" y="601"/>
	  <point x="213" y="562"/>
	  <point x="266" y="506" type="curve"/>
	  <point x="318" y="449"/>
	  <point x="358" y="375"/>
	  <point x="358" y="308" type="curve" smooth="yes"/>
	  <point x="358" y="233"/>
	  <point x="319" y="166"/>
	  <point x="273" y="113" type="curve" smooth="yes"/>
	  <point x="227" y="60"/>
	  <point x="173" y="18"/>
	  <point x="148" y="-3" type="curve"/>
	  <point x="141" y="22"/>
	  <point x="126" y="40"/>
	  <point x="108" y="55" type="curve" smooth="yes"/>
	  <point x="82" y="75" type="line" smooth="yes"/>
	  <point x="66" y="87"/>
	  <point x="59" y="102"/>
	  <point x="67" y="111" type="curve" smooth="yes"/>
	  <point x="74" y="120"/>
	  <point x="85" y="122"/>
	  <point x="96" y="116" type="curve" smooth="yes"/>
	  <point x="101" y="113"/>
	  <point x="105" y="106"/>
	  <point x="106" y="97" type="curve"/>
	  <point x="127" y="97"/>
	  <point x="168" y="126"/>
	  <point x="204" y="167" type="curve" smooth="yes"/>
	  <point x="240" y="208"/>
	  <point x="272" y="262"/>
	  <point x="272" y="315" type="curve" smooth="yes"/>
	  <point x="272" y="382"/>
	  <point x="241" y="440"/>
	  <point x="206" y="482" type="curve" smooth="yes"/>
	  <point x="170" y="524"/>
	  <point x="129" y="550"/>
	  <point x="109" y="551" type="curve"/>
	  <point x="85" y="547"/>
	  <point x="74" y="560"/>
	  <point x="73" y="575" type="curve" smooth="yes"/>
	  <point x="72" y="590"/>
	  <point x="80" y="605"/>
	  <point x="97" y="604" type="curve" smooth="yes"/>
	</contour>
  </outline>
</glyph>
<glyph name="asterisk" format="1">
  <advance width="444"/>
  <unicode hex="002A"/>
  <outline>
	<contour>
	  <point x="66" y="663" type="line"/>
	  <point x="189" y="558" type="line"/>
	  <point x="234" y="755" type="line"/>
	  <point x="339" y="702" type="line"/>
	  <point x="234" y="561" type="line"/>
	  <point x="413" y="582" type="line"/>
	  <point x="428" y="471" type="line"/>
	  <point x="246" y="501" type="line"/>
	  <point x="324" y="330" type="line"/>
	  <point x="303" y="325"/>
	  <point x="287" y="322"/>
	  <point x="276" y="319" type="curve" smooth="yes"/>
	  <point x="264" y="316"/>
	  <point x="255" y="314"/>
	  <point x="249" y="313" type="curve" smooth="yes"/>
	  <point x="234" y="309" type="line"/>
	  <point x="233" y="310"/>
	  <point x="231" y="316"/>
	  <point x="228" y="328" type="curve" smooth="yes"/>
	  <point x="226" y="338"/>
	  <point x="223" y="354"/>
	  <point x="220" y="376" type="curve" smooth="yes"/>
	  <point x="217" y="397"/>
	  <point x="213" y="429"/>
	  <point x="210" y="471" type="curve"/>
	  <point x="87" y="366" type="line"/>
	  <point x="36" y="444" type="line"/>
	  <point x="159" y="507" type="line"/>
	  <point x="122" y="531"/>
	  <point x="94" y="550"/>
	  <point x="75" y="563" type="curve" smooth="yes"/>
	  <point x="56" y="576"/>
	  <point x="41" y="585"/>
	  <point x="32" y="591" type="curve" smooth="yes"/>
	  <point x="21" y="598"/>
	  <point x="16" y="602"/>
	  <point x="15" y="603" type="curve"/>
	</contour>
  </outline>
</glyph>
<glyph name="plus" format="1">
  <advance width="530"/>
  <unicode hex="002B"/>
  <outline>
	<contour>
	  <point x="327" y="561" type="line"/>
	  <point x="316" y="529"/>
	  <point x="311" y="503"/>
	  <point x="308" y="484" type="curve" smooth="yes"/>
	  <point x="306" y="473"/>
	  <point x="305" y="463"/>
	  <point x="305" y="454" type="curve" smooth="yes"/>
	  <point x="305" y="425" type="line" smooth="yes"/>
	  <point x="305" y="416"/>
	  <point x="305" y="405"/>
	  <point x="304" y="394" type="curve" smooth="yes"/>
	  <point x="303" y="383"/>
	  <point x="303" y="370"/>
	  <point x="302" y="357" type="curve"/>
	  <point x="326" y="358"/>
	  <point x="347" y="358"/>
	  <point x="364" y="359" type="curve" smooth="yes"/>
	  <point x="381" y="360"/>
	  <point x="395" y="360"/>
	  <point x="406" y="360" type="curve" smooth="yes"/>
	  <point x="438" y="360" type="line" smooth="yes"/>
	  <point x="454" y="360"/>
	  <point x="469" y="362"/>
	  <point x="486" y="364" type="curve" smooth="yes"/>
	  <point x="494" y="365"/>
	  <point x="502" y="366"/>
	  <point x="510" y="369" type="curve"/>
	  <point x="514" y="284" type="line"/>
	  <point x="499" y="285"/>
	  <point x="486" y="286"/>
	  <point x="475" y="286" type="curve" smooth="yes"/>
	  <point x="451" y="286"/>
	  <point x="433" y="287"/>
	  <point x="417" y="288" type="curve"/>
	  <point x="387" y="288" type="line" smooth="yes"/>
	  <point x="377" y="288"/>
	  <point x="365" y="288"/>
	  <point x="351" y="287" type="curve" smooth="yes"/>
	  <point x="336" y="286"/>
	  <point x="319" y="286"/>
	  <point x="300" y="285" type="curve"/>
	  <point x="297" y="262"/>
	  <point x="297" y="242"/>
	  <point x="298" y="226" type="curve"/>
	  <point x="298" y="207"/>
	  <point x="300" y="193"/>
	  <point x="304" y="170" type="curve" smooth="yes"/>
	  <point x="307" y="150"/>
	  <point x="311" y="123"/>
	  <point x="318" y="84" type="curve"/>
	  <point x="209" y="84" type="line"/>
	  <point x="212" y="102"/>
	  <point x="214" y="118"/>
	  <point x="216" y="133" type="curve" smooth="yes"/>
	  <point x="217" y="147"/>
	  <point x="219" y="159"/>
	  <point x="220" y="168" type="curve" smooth="yes"/>
	  <point x="223" y="191"/>
	  <point x="224" y="209"/>
	  <point x="225" y="230" type="curve" smooth="yes"/>
	  <point x="226" y="239"/>
	  <point x="226" y="249"/>
	  <point x="226" y="260" type="curve" smooth="yes"/>
	  <point x="226" y="270"/>
	  <point x="226" y="280"/>
	  <point x="225" y="289" type="curve"/>
	  <point x="192" y="290"/>
	  <point x="166" y="289"/>
	  <point x="147" y="288" type="curve" smooth="yes"/>
	  <point x="136" y="287"/>
	  <point x="127" y="287"/>
	  <point x="119" y="286" type="curve" smooth="yes"/>
	  <point x="103" y="283"/>
	  <point x="85" y="281"/>
	  <point x="61" y="281" type="curve"/>
	  <point x="22" y="278" type="line"/>
	  <point x="15" y="360" type="line"/>
	  <point x="51" y="357"/>
	  <point x="78" y="356"/>
	  <point x="97" y="356" type="curve" smooth="yes"/>
	  <point x="233" y="356" type="line"/>
	  <point x="233" y="391"/>
	  <point x="232" y="417"/>
	  <point x="231" y="434" type="curve" smooth="yes"/>
	  <point x="230" y="454"/>
	  <point x="229" y="463"/>
	  <point x="225" y="482" type="curve" smooth="yes"/>
	  <point x="222" y="498"/>
	  <point x="218" y="523"/>
	  <point x="211" y="556" type="curve"/>
	</contour>
  </outline>
</glyph>
<glyph name="one" format="1">
  <advance width="397"/>
  <unicode hex="0031"/>
  <outline>
    <contour>
      <point x="224" y="499" type="line" smooth="yes"/>
      <point x="225" y="502"/>
      <point x="226" y="504"/>
      <point x="227" y="507" type="curve" smooth="yes"/>
    </contour>
    <contour>
      <point x="271" y="93"/>
      <point x="249" y="85"/>
      <point x="249" y="53" type="curve"/>
      <point x="202" y="98"/>
      <point x="186" y="184"/>
      <point x="186" y="273" type="curve" smooth="yes"/>
      <point x="186" y="357"/>
      <point x="202" y="444"/>
      <point x="224" y="499" type="curve"/>
      <point x="219" y="490"/>
      <point x="212" y="484"/>
      <point x="202" y="480" type="curve" smooth="yes"/>
      <point x="176" y="471"/>
      <point x="141" y="471"/>
      <point x="105" y="474" type="curve" smooth="yes"/>
      <point x="86" y="475"/>
      <point x="69" y="475"/>
      <point x="54" y="474" type="curve" smooth="yes"/>
      <point x="23" y="471"/>
      <point x="0" y="461"/>
      <point x="0" y="429" type="curve" smooth="yes"/>
      <point x="0" y="396"/>
      <point x="18" y="387"/>
      <point x="34" y="388" type="curve" smooth="yes"/>
      <point x="49" y="388"/>
      <point x="63" y="401"/>
      <point x="58" y="414" type="curve"/>
      <point x="83" y="361"/>
      <point x="82" y="292"/>
      <point x="70" y="228" type="curve" smooth="yes"/>
      <point x="58" y="163"/>
      <point x="36" y="101"/>
      <point x="20" y="58" type="curve" smooth="yes"/>
      <point x="11" y="36"/>
      <point x="5" y="20"/>
      <point x="1" y="9" type="curve" smooth="yes"/>
      <point x="-3" y="-2"/>
      <point x="-3" y="-6"/>
      <point x="2" y="-1" type="curve" smooth="yes"/>
      <point x="18" y="16"/>
      <point x="48" y="29"/>
      <point x="72" y="29" type="curve" smooth="yes"/>
      <point x="92" y="29"/>
      <point x="114" y="26"/>
      <point x="139" y="20" type="curve" smooth="yes"/>
      <point x="163" y="14"/>
      <point x="186" y="9"/>
      <point x="209" y="6" type="curve"/>
      <point x="254" y="-2"/>
      <point x="292" y="-3"/>
      <point x="308" y="29" type="curve" smooth="yes"/>
      <point x="323" y="57"/>
      <point x="309" y="79"/>
      <point x="290" y="86" type="curve" smooth="yes"/>
    </contour>
  </outline>
</glyph>
<glyph name="two" format="1">
  <advance width="566"/>
  <unicode hex="0032"/>
  <outline>
	<contour>
	  <point x="484" y="124"/>
	  <point x="465" y="114"/>
	  <point x="441" y="98" type="curve" smooth="yes"/>
	  <point x="416" y="81"/>
	  <point x="387" y="59"/>
	  <point x="370" y="2" type="curve"/>
	  <point x="295" y="26"/>
	  <point x="226" y="30"/>
	  <point x="172" y="24" type="curve" smooth="yes"/>
	  <point x="145" y="21"/>
	  <point x="122" y="17"/>
	  <point x="105" y="12" type="curve" smooth="yes"/>
	  <point x="88" y="7"/>
	  <point x="77" y="3"/>
	  <point x="74" y="0" type="curve"/>
	  <point x="57" y="0"/>
	  <point x="39" y="13"/>
	  <point x="24" y="29" type="curve" smooth="yes"/>
	  <point x="9" y="45"/>
	  <point x="0" y="64"/>
	  <point x="1" y="75" type="curve"/>
	  <point x="10" y="82"/>
	  <point x="24" y="91"/>
	  <point x="43" y="102" type="curve" smooth="yes"/>
	  <point x="80" y="123"/>
	  <point x="125" y="149"/>
	  <point x="170" y="178" type="curve" smooth="yes"/>
	  <point x="215" y="206"/>
	  <point x="253" y="237"/>
	  <point x="277" y="267" type="curve" smooth="yes"/>
	  <point x="289" y="282"/>
	  <point x="295" y="296"/>
	  <point x="295" y="309" type="curve" smooth="yes"/>
	  <point x="295" y="344"/>
	  <point x="256" y="358"/>
	  <point x="212" y="357" type="curve" smooth="yes"/>
	  <point x="167" y="356"/>
	  <point x="119" y="340"/>
	  <point x="98" y="312" type="curve"/>
	  <point x="113" y="299"/>
	  <point x="123" y="285"/>
	  <point x="124" y="274" type="curve" smooth="yes"/>
	  <point x="125" y="268"/>
	  <point x="123" y="263"/>
	  <point x="118" y="260" type="curve" smooth="yes"/>
	  <point x="113" y="257"/>
	  <point x="104" y="255"/>
	  <point x="91" y="255" type="curve" smooth="yes"/>
	  <point x="68" y="255"/>
	  <point x="52" y="284"/>
	  <point x="39" y="317" type="curve" smooth="yes"/>
	  <point x="26" y="349"/>
	  <point x="12" y="386"/>
	  <point x="-7" y="402" type="curve"/>
	  <point x="12" y="410"/>
	  <point x="29" y="418"/>
	  <point x="43" y="427" type="curve" smooth="yes"/>
	  <point x="70" y="443"/>
	  <point x="94" y="459"/>
	  <point x="120" y="468" type="curve" smooth="yes"/>
	  <point x="133" y="473"/>
	  <point x="148" y="475"/>
	  <point x="166" y="475" type="curve" smooth="yes"/>
	  <point x="237" y="475"/>
	  <point x="294" y="445"/>
	  <point x="330" y="404" type="curve" smooth="yes"/>
	  <point x="365" y="363"/>
	  <point x="379" y="307"/>
	  <point x="359" y="255" type="curve" smooth="yes"/>
	  <point x="339" y="202"/>
	  <point x="287" y="152"/>
	  <point x="195" y="121" type="curve"/>
	  <point x="291" y="114"/>
	  <point x="345" y="117"/>
	  <point x="377" y="123" type="curve" smooth="yes"/>
	  <point x="409" y="129"/>
	  <point x="420" y="139"/>
	  <point x="432" y="154" type="curve"/>
	  <point x="420" y="153"/>
	  <point x="411" y="165"/>
	  <point x="411" y="178" type="curve" smooth="yes"/>
	  <point x="411" y="190"/>
	  <point x="421" y="204"/>
	  <point x="446" y="204" type="curve" smooth="yes"/>
	  <point x="474" y="204"/>
	  <point x="484" y="185"/>
	  <point x="484" y="160" type="curve" smooth="yes"/>
	</contour>
  </outline>
</glyph>
<glyph name="three" format="1">
  <advance width="460"/>
  <unicode hex="0033"/>
  <outline>
	<contour>
	  <point x="372" y="46"/>
	  <point x="342" y="22"/>
	  <point x="300" y="11" type="curve" smooth="yes"/>
	  <point x="258" y="-1"/>
	  <point x="207" y="-1"/>
	  <point x="157" y="0" type="curve" smooth="yes"/>
	  <point x="107" y="0"/>
	  <point x="58" y="1"/>
	  <point x="27" y="-11" type="curve"/>
	  <point x="36" y="34"/>
	  <point x="30" y="68"/>
	  <point x="19" y="97" type="curve" smooth="yes"/>
	  <point x="8" y="125"/>
	  <point x="-3" y="150"/>
	  <point x="0" y="175" type="curve" smooth="yes"/>
	  <point x="3" y="196"/>
	  <point x="26" y="201"/>
	  <point x="42" y="193" type="curve" smooth="yes"/>
	  <point x="57" y="185"/>
	  <point x="65" y="167"/>
	  <point x="41" y="146" type="curve"/>
	  <point x="49" y="131"/>
	  <point x="70" y="126"/>
	  <point x="93" y="122" type="curve" smooth="yes"/>
	  <point x="116" y="118"/>
	  <point x="156" y="110"/>
	  <point x="193" y="112" type="curve" smooth="yes"/>
	  <point x="229" y="114"/>
	  <point x="261" y="128"/>
	  <point x="266" y="169" type="curve" smooth="yes"/>
	  <point x="269" y="193"/>
	  <point x="253" y="208"/>
	  <point x="234" y="213" type="curve"/>
	  <point x="214" y="217"/>
	  <point x="190" y="212"/>
	  <point x="178" y="200" type="curve"/>
	  <point x="166" y="203"/>
	  <point x="158" y="215"/>
	  <point x="154" y="231" type="curve" smooth="yes"/>
	  <point x="150" y="246"/>
	  <point x="150" y="262"/>
	  <point x="151" y="273" type="curve"/>
	  <point x="208" y="260"/>
	  <point x="248" y="278"/>
	  <point x="257" y="299" type="curve" smooth="yes"/>
	  <point x="262" y="309"/>
	  <point x="259" y="320"/>
	  <point x="248" y="332" type="curve" smooth="yes"/>
	  <point x="237" y="343"/>
	  <point x="216" y="351"/>
	  <point x="185" y="354" type="curve"/>
	  <point x="166" y="357"/>
	  <point x="142" y="355"/>
	  <point x="120" y="352" type="curve" smooth="yes"/>
	  <point x="98" y="348"/>
	  <point x="79" y="344"/>
	  <point x="74" y="340" type="curve"/>
	  <point x="90" y="331"/>
	  <point x="91" y="318"/>
	  <point x="86" y="310" type="curve" smooth="yes"/>
	  <point x="81" y="301"/>
	  <point x="67" y="296"/>
	  <point x="52" y="301" type="curve" smooth="yes"/>
	  <point x="41" y="305"/>
	  <point x="33" y="337"/>
	  <point x="25" y="370" type="curve"/>
	  <point x="16" y="402"/>
	  <point x="8" y="436"/>
	  <point x="-4" y="443" type="curve"/>
	  <point x="28" y="439"/>
	  <point x="67" y="448"/>
	  <point x="106" y="457" type="curve" smooth="yes"/>
	  <point x="145" y="465"/>
	  <point x="184" y="475"/>
	  <point x="220" y="474" type="curve" smooth="yes"/>
	  <point x="241" y="474"/>
	  <point x="276" y="460"/>
	  <point x="305" y="436" type="curve" smooth="yes"/>
	  <point x="334" y="412"/>
	  <point x="360" y="381"/>
	  <point x="366" y="347" type="curve" smooth="yes"/>
	  <point x="372" y="313"/>
	  <point x="357" y="277"/>
	  <point x="305" y="246" type="curve"/>
	  <point x="338" y="230"/>
	  <point x="356" y="209"/>
	  <point x="368" y="182" type="curve" smooth="yes"/>
	  <point x="379" y="155"/>
	  <point x="381" y="126"/>
	  <point x="377" y="97" type="curve"/>
	</contour>
  </outline>
</glyph>
<glyph name="four" format="1">
  <advance width="545"/>
  <unicode hex="0034"/>
  <outline>
    <contour>
      <point x="407" y="73" type="line" smooth="yes"/>
      <point x="394" y="76"/>
      <point x="378" y="79"/>
      <point x="362" y="83" type="curve"/>
      <point x="353" y="84"/>
      <point x="346" y="86"/>
      <point x="340" y="87" type="curve"/>
      <point x="340" y="79"/>
      <point x="350" y="63"/>
      <point x="362" y="48" type="curve" smooth="yes"/>
      <point x="374" y="33"/>
      <point x="387" y="19"/>
      <point x="395" y="15" type="curve"/>
      <point x="395" y="3"/>
      <point x="397" y="-1"/>
      <point x="386" y="0" type="curve" smooth="yes"/>
      <point x="369" y="2"/>
      <point x="355" y="4"/>
      <point x="344" y="6" type="curve" smooth="yes"/>
      <point x="323" y="10"/>
      <point x="301" y="12"/>
      <point x="273" y="9" type="curve" smooth="yes"/>
      <point x="258" y="8"/>
      <point x="239" y="5"/>
      <point x="215" y="0" type="curve" smooth="yes"/>
      <point x="199" y="-3"/>
      <point x="185" y="7"/>
      <point x="184" y="19" type="curve" smooth="yes"/>
      <point x="183" y="24"/>
      <point x="186" y="29"/>
      <point x="192" y="33" type="curve" smooth="yes"/>
      <point x="197" y="36"/>
      <point x="207" y="37"/>
      <point x="221" y="34" type="curve"/>
      <point x="230" y="31"/>
      <point x="240" y="42"/>
      <point x="245" y="55" type="curve" smooth="yes"/>
      <point x="249" y="68"/>
      <point x="252" y="83"/>
      <point x="252" y="91" type="curve"/>
      <point x="153" y="102"/>
      <point x="70" y="93"/>
      <point x="1" y="78" type="curve"/>
      <point x="0" y="88"/>
      <point x="0" y="101"/>
      <point x="1" y="116" type="curve" smooth="yes"/>
      <point x="2" y="147"/>
      <point x="-1" y="179"/>
      <point x="-13" y="208" type="curve" smooth="yes"/>
      <point x="-19" y="222"/>
      <point x="-29" y="233"/>
      <point x="-43" y="241" type="curve"/>
      <point x="6" y="262"/>
      <point x="35" y="288"/>
      <point x="57" y="320" type="curve" smooth="yes"/>
      <point x="68" y="336"/>
      <point x="77" y="354"/>
      <point x="86" y="373" type="curve" smooth="yes"/>
      <point x="95" y="392"/>
      <point x="105" y="412"/>
      <point x="118" y="435" type="curve"/>
      <point x="114" y="434"/>
      <point x="100" y="432"/>
      <point x="89" y="433" type="curve" smooth="yes"/>
      <point x="78" y="434"/>
      <point x="70" y="439"/>
      <point x="73" y="452" type="curve" smooth="yes"/>
      <point x="78" y="471"/>
      <point x="97" y="475"/>
      <point x="124" y="475" type="curve" smooth="yes"/>
      <point x="137" y="475"/>
      <point x="152" y="475"/>
      <point x="167" y="474" type="curve" smooth="yes"/>
      <point x="182" y="473"/>
      <point x="197" y="473"/>
      <point x="212" y="474" type="curve"/>
      <point x="205" y="461"/>
      <point x="198" y="443"/>
      <point x="191" y="419" type="curve"/>
      <point x="175" y="371"/>
      <point x="153" y="315"/>
      <point x="124" y="262" type="curve" smooth="yes"/>
      <point x="109" y="235"/>
      <point x="92" y="213"/>
      <point x="71" y="195" type="curve"/>
      <point x="267" y="195" type="line"/>
      <point x="270" y="216"/>
      <point x="272" y="244"/>
      <point x="282" y="267" type="curve" smooth="yes"/>
      <point x="292" y="290"/>
      <point x="306" y="307"/>
      <point x="338" y="307" type="curve" smooth="yes"/>
      <point x="394" y="307"/>
      <point x="428" y="282"/>
      <point x="446" y="248" type="curve" smooth="yes"/>
      <point x="464" y="214"/>
      <point x="467" y="171"/>
      <point x="460" y="136" type="curve" smooth="yes"/>
      <point x="453" y="100"/>
      <point x="438" y="73"/>
      <point x="421" y="69" type="curve"/>
    </contour>
    <contour>
      <point x="397" y="231"/>
      <point x="393" y="240"/>
      <point x="388" y="248" type="curve" smooth="yes"/>
      <point x="383" y="255"/>
      <point x="375" y="261"/>
      <point x="370" y="261" type="curve" smooth="yes"/>
      <point x="359" y="261"/>
      <point x="345" y="250"/>
      <point x="336" y="235" type="curve" smooth="yes"/>
      <point x="327" y="220"/>
      <point x="322" y="203"/>
      <point x="331" y="194" type="curve"/>
      <point x="338" y="194"/>
      <point x="345" y="193"/>
      <point x="353" y="192" type="curve" smooth="yes"/>
      <point x="369" y="189"/>
      <point x="382" y="193"/>
      <point x="391" y="203" type="curve" smooth="yes"/>
      <point x="395" y="208"/>
      <point x="397" y="216"/>
      <point x="397" y="227" type="curve" smooth="yes"/>
    </contour>
  </outline>
</glyph>
<glyph name="five" format="1">
  <advance width="523"/>
  <unicode hex="0035"/>
  <outline>
	<contour>
	  <point x="447" y="481" type="line"/>
	  <point x="423" y="474"/>
	  <point x="426" y="437"/>
	  <point x="429" y="401" type="curve" smooth="yes"/>
	  <point x="432" y="364"/>
	  <point x="433" y="329"/>
	  <point x="409" y="329" type="curve" smooth="yes"/>
	  <point x="394" y="329"/>
	  <point x="389" y="335"/>
	  <point x="387" y="341" type="curve" smooth="yes"/>
	  <point x="385" y="347"/>
	  <point x="386" y="353"/>
	  <point x="389" y="356" type="curve"/>
	  <point x="382" y="367"/>
	  <point x="352" y="373"/>
	  <point x="314" y="377" type="curve" smooth="yes"/>
	  <point x="276" y="381"/>
	  <point x="228" y="382"/>
	  <point x="191" y="380" type="curve" smooth="yes"/>
	  <point x="172" y="379"/>
	  <point x="157" y="377"/>
	  <point x="144" y="375" type="curve" smooth="yes"/>
	  <point x="131" y="372"/>
	  <point x="123" y="369"/>
	  <point x="121" y="365" type="curve" smooth="yes"/>
	  <point x="118" y="359"/>
	  <point x="115" y="352"/>
	  <point x="111" y="345" type="curve" smooth="yes"/>
	  <point x="103" y="330"/>
	  <point x="96" y="313"/>
	  <point x="89" y="297" type="curve" smooth="yes"/>
	  <point x="86" y="289"/>
	  <point x="83" y="282"/>
	  <point x="82" y="276" type="curve"/>
	  <point x="85" y="278"/>
	  <point x="96" y="281"/>
	  <point x="116" y="285" type="curve" smooth="yes"/>
	  <point x="155" y="293"/>
	  <point x="213" y="299"/>
	  <point x="275" y="296" type="curve" smooth="yes"/>
	  <point x="337" y="292"/>
	  <point x="389" y="273"/>
	  <point x="420" y="232" type="curve" smooth="yes"/>
	  <point x="451" y="191"/>
	  <point x="444" y="117"/>
	  <point x="412" y="81" type="curve" smooth="yes"/>
	  <point x="380" y="44"/>
	  <point x="332" y="21"/>
	  <point x="278" y="8" type="curve" smooth="yes"/>
	  <point x="224" y="-5"/>
	  <point x="172" y="-12"/>
	  <point x="133" y="-16" type="curve"/>
	  <point x="114" y="-19"/>
	  <point x="101" y="-22"/>
	  <point x="94" y="-25" type="curve"/>
	  <point x="98" y="-2"/>
	  <point x="75" y="24"/>
	  <point x="51" y="52" type="curve"/>
	  <point x="26" y="79"/>
	  <point x="0" y="105"/>
	  <point x="0" y="128" type="curve" smooth="yes"/>
	  <point x="0" y="145"/>
	  <point x="15" y="155"/>
	  <point x="29" y="153" type="curve" smooth="yes"/>
	  <point x="43" y="151"/>
	  <point x="54" y="137"/>
	  <point x="47" y="116" type="curve"/>
	  <point x="68" y="96"/>
	  <point x="112" y="89"/>
	  <point x="157" y="90" type="curve" smooth="yes"/>
	  <point x="202" y="90"/>
	  <point x="254" y="99"/>
	  <point x="290" y="114" type="curve" smooth="yes"/>
	  <point x="326" y="129"/>
	  <point x="350" y="151"/>
	  <point x="343" y="175" type="curve" smooth="yes"/>
	  <point x="334" y="207"/>
	  <point x="300" y="221"/>
	  <point x="257" y="226" type="curve"/>
	  <point x="213" y="230"/>
	  <point x="163" y="225"/>
	  <point x="123" y="217" type="curve" smooth="yes"/>
	  <point x="102" y="213"/>
	  <point x="85" y="209"/>
	  <point x="71" y="204" type="curve" smooth="yes"/>
	  <point x="57" y="199"/>
	  <point x="49" y="194"/>
	  <point x="48" y="189" type="curve"/>
	  <point x="41" y="189"/>
	  <point x="30" y="204"/>
	  <point x="20" y="220" type="curve" smooth="yes"/>
	  <point x="15" y="227"/>
	  <point x="10" y="235"/>
	  <point x="7" y="242" type="curve" smooth="yes"/>
	  <point x="3" y="249"/>
	  <point x="1" y="254"/>
	  <point x="0" y="255" type="curve"/>
	  <point x="20" y="271"/>
	  <point x="45" y="311"/>
	  <point x="63" y="354" type="curve" smooth="yes"/>
	  <point x="81" y="397"/>
	  <point x="89" y="443"/>
	  <point x="80" y="474" type="curve"/>
	  <point x="171" y="459"/>
	  <point x="238" y="459"/>
	  <point x="294" y="463" type="curve" smooth="yes"/>
	  <point x="322" y="465"/>
	  <point x="348" y="468"/>
	  <point x="373" y="472" type="curve"/>
	</contour>
  </outline>
</glyph>
<glyph name="six" format="1">
  <advance width="569"/>
  <unicode hex="0036"/>
  <outline>
    <contour>
      <point x="488" y="123"/>
      <point x="466" y="100"/>
      <point x="435" y="80" type="curve" smooth="yes"/>
      <point x="403" y="60"/>
      <point x="362" y="41"/>
      <point x="326" y="26" type="curve" smooth="yes"/>
      <point x="290" y="11"/>
      <point x="259" y="1"/>
      <point x="247" y="0" type="curve"/>
      <point x="226" y="5"/>
      <point x="193" y="22"/>
      <point x="157" y="43" type="curve" smooth="yes"/>
      <point x="120" y="64"/>
      <point x="82" y="93"/>
      <point x="52" y="125" type="curve" smooth="yes"/>
      <point x="22" y="156"/>
      <point x="0" y="190"/>
      <point x="0" y="222" type="curve" smooth="yes"/>
      <point x="0" y="243"/>
      <point x="24" y="278"/>
      <point x="56" y="315" type="curve" smooth="yes"/>
      <point x="88" y="351"/>
      <point x="130" y="391"/>
      <point x="170" y="422" type="curve" smooth="yes"/>
      <point x="209" y="453"/>
      <point x="243" y="474"/>
      <point x="260" y="474" type="curve" smooth="yes"/>
      <point x="285" y="474"/>
      <point x="318" y="467"/>
      <point x="350" y="451" type="curve" smooth="yes"/>
      <point x="382" y="435"/>
      <point x="414" y="414"/>
      <point x="435" y="383" type="curve"/>
      <point x="404" y="388"/>
      <point x="386" y="381"/>
      <point x="374" y="369" type="curve" smooth="yes"/>
      <point x="367" y="363"/>
      <point x="362" y="357"/>
      <point x="358" y="350" type="curve" smooth="yes"/>
      <point x="349" y="336"/>
      <point x="341" y="325"/>
      <point x="332" y="321" type="curve" smooth="yes"/>
      <point x="323" y="316"/>
      <point x="301" y="326"/>
      <point x="301" y="342" type="curve"/>
      <point x="300" y="349"/>
      <point x="305" y="353"/>
      <point x="314" y="354" type="curve"/>
      <point x="267" y="385"/>
      <point x="208" y="373"/>
      <point x="167" y="345" type="curve" smooth="yes"/>
      <point x="126" y="317"/>
      <point x="104" y="273"/>
      <point x="125" y="241" type="curve"/>
      <point x="152" y="266"/>
      <point x="178" y="281"/>
      <point x="203" y="288" type="curve" smooth="yes"/>
      <point x="227" y="295"/>
      <point x="250" y="295"/>
      <point x="273" y="295" type="curve"/>
      <point x="286" y="294"/>
      <point x="315" y="284"/>
      <point x="347" y="268" type="curve" smooth="yes"/>
      <point x="379" y="252"/>
      <point x="414" y="231"/>
      <point x="442" y="210" type="curve" smooth="yes"/>
      <point x="469" y="189"/>
      <point x="488" y="166"/>
      <point x="488" y="143" type="curve" smooth="yes"/>
    </contour>
    <contour>
      <point x="205" y="249"/>
      <point x="188" y="245"/>
      <point x="179" y="238" type="curve" smooth="yes"/>
      <point x="159" y="223"/>
      <point x="162" y="203"/>
      <point x="180" y="178" type="curve" smooth="yes"/>
      <point x="198" y="153"/>
      <point x="223" y="132"/>
      <point x="250" y="117" type="curve" smooth="yes"/>
      <point x="263" y="110"/>
      <point x="275" y="106"/>
      <point x="285" y="106" type="curve" smooth="yes"/>
      <point x="325" y="106"/>
      <point x="340" y="123"/>
      <point x="339" y="144" type="curve" smooth="yes"/>
      <point x="338" y="164"/>
      <point x="321" y="192"/>
      <point x="299" y="212" type="curve" smooth="yes"/>
      <point x="277" y="232"/>
      <point x="250" y="249"/>
      <point x="229" y="249" type="curve" smooth="yes"/>
    </contour>
  </outline>
</glyph>
<glyph name="seven" format="1">
  <advance width="517"/>
  <unicode hex="0037"/>
  <outline>
    <contour>
      <point x="434" y="387" type="line"/>
      <point x="387" y="366"/>
      <point x="352" y="325"/>
      <point x="326" y="281" type="curve" smooth="yes"/>
      <point x="300" y="236"/>
      <point x="287" y="185"/>
      <point x="288" y="142" type="curve" smooth="yes"/>
      <point x="289" y="98"/>
      <point x="304" y="61"/>
      <point x="340" y="42" type="curve"/>
      <point x="339" y="66"/>
      <point x="355" y="76"/>
      <point x="371" y="74" type="curve" smooth="yes"/>
      <point x="387" y="72"/>
      <point x="402" y="58"/>
      <point x="401" y="42" type="curve" smooth="yes"/>
      <point x="398" y="7"/>
      <point x="376" y="0"/>
      <point x="344" y="1" type="curve" smooth="yes"/>
      <point x="327" y="1"/>
      <point x="309" y="3"/>
      <point x="289" y="7" type="curve" smooth="yes"/>
      <point x="249" y="14"/>
      <point x="209" y="20"/>
      <point x="171" y="17" type="curve" smooth="yes"/>
      <point x="152" y="16"/>
      <point x="136" y="10"/>
      <point x="123" y="0" type="curve"/>
      <point x="99" y="91"/>
      <point x="105" y="155"/>
      <point x="137" y="212" type="curve" smooth="yes"/>
      <point x="169" y="269"/>
      <point x="226" y="319"/>
      <point x="305" y="378" type="curve"/>
      <point x="286" y="371"/>
      <point x="256" y="372"/>
      <point x="222" y="373" type="curve"/>
      <point x="170" y="376" type="line" smooth="yes"/>
      <point x="134" y="378"/>
      <point x="103" y="377"/>
      <point x="80" y="370" type="curve" smooth="yes"/>
      <point x="69" y="367"/>
      <point x="61" y="361"/>
      <point x="58" y="353" type="curve"/>
      <point x="65" y="348"/>
      <point x="67" y="338"/>
      <point x="63" y="330" type="curve" smooth="yes"/>
      <point x="58" y="321"/>
      <point x="49" y="312"/>
      <point x="37" y="312" type="curve" smooth="yes"/>
      <point x="12" y="312"/>
      <point x="-6" y="325"/>
      <point x="1" y="356" type="curve" smooth="yes"/>
      <point x="4" y="368"/>
      <point x="7" y="379"/>
      <point x="11" y="389" type="curve" smooth="yes"/>
      <point x="19" y="408"/>
      <point x="27" y="427"/>
      <point x="32" y="446" type="curve" smooth="yes"/>
      <point x="35" y="455"/>
      <point x="36" y="465"/>
      <point x="35" y="474" type="curve"/>
      <point x="58" y="473"/>
      <point x="83" y="471"/>
      <point x="112" y="469" type="curve" smooth="yes"/>
      <point x="169" y="464"/>
      <point x="237" y="461"/>
      <point x="314" y="464" type="curve" smooth="yes"/>
      <point x="353" y="465"/>
      <point x="393" y="469"/>
      <point x="435" y="474" type="curve"/>
    </contour>
  </outline>
</glyph>
<glyph name="eight" format="1">
  <advance width="566"/>
  <unicode hex="0038"/>
  <outline>
	<contour>
	  <point x="484" y="140"/>
	  <point x="466" y="112"/>
	  <point x="438" y="88" type="curve" smooth="yes"/>
	  <point x="410" y="63"/>
	  <point x="373" y="41"/>
	  <point x="337" y="25" type="curve" smooth="yes"/>
	  <point x="301" y="9"/>
	  <point x="267" y="0"/>
	  <point x="244" y="0" type="curve" smooth="yes"/>
	  <point x="208" y="0"/>
	  <point x="147" y="18"/>
	  <point x="95" y="48" type="curve" smooth="yes"/>
	  <point x="43" y="78"/>
	  <point x="0" y="119"/>
	  <point x="0" y="167" type="curve" smooth="yes"/>
	  <point x="0" y="207"/>
	  <point x="26" y="247"/>
	  <point x="82" y="270" type="curve"/>
	  <point x="34" y="290"/>
	  <point x="20" y="310"/>
	  <point x="20" y="342" type="curve" smooth="yes"/>
	  <point x="20" y="371"/>
	  <point x="54" y="405"/>
	  <point x="97" y="431" type="curve" smooth="yes"/>
	  <point x="140" y="457"/>
	  <point x="192" y="474"/>
	  <point x="227" y="474" type="curve" smooth="yes"/>
	  <point x="262" y="474"/>
	  <point x="316" y="462"/>
	  <point x="361" y="440" type="curve" smooth="yes"/>
	  <point x="406" y="418"/>
	  <point x="444" y="386"/>
	  <point x="444" y="349" type="curve" smooth="yes"/>
	  <point x="444" y="314"/>
	  <point x="412" y="291"/>
	  <point x="377" y="267" type="curve"/>
	  <point x="390" y="263"/>
	  <point x="417" y="255"/>
	  <point x="441" y="239" type="curve" smooth="yes"/>
	  <point x="464" y="223"/>
	  <point x="484" y="201"/>
	  <point x="484" y="168" type="curve" smooth="yes"/>
	</contour>
	<contour>
	  <point x="186" y="422"/>
	  <point x="154" y="399"/>
	  <point x="142" y="373" type="curve" smooth="yes"/>
	  <point x="130" y="347"/>
	  <point x="138" y="317"/>
	  <point x="179" y="305" type="curve"/>
	  <point x="192" y="318"/>
	  <point x="215" y="325"/>
	  <point x="235" y="323" type="curve" smooth="yes"/>
	  <point x="254" y="321"/>
	  <point x="269" y="311"/>
	  <point x="270" y="299" type="curve"/>
	  <point x="331" y="311"/>
	  <point x="345" y="341"/>
	  <point x="330" y="369" type="curve" smooth="yes"/>
	  <point x="314" y="397"/>
	  <point x="271" y="422"/>
	  <point x="222" y="422" type="curve" smooth="yes"/>
	</contour>
	<contour>
	  <point x="277" y="257"/>
	  <point x="274" y="249"/>
	  <point x="266" y="242" type="curve" smooth="yes"/>
	  <point x="257" y="235"/>
	  <point x="244" y="230"/>
	  <point x="229" y="230" type="curve" smooth="yes"/>
	  <point x="217" y="230"/>
	  <point x="205" y="237"/>
	  <point x="195" y="245" type="curve" smooth="yes"/>
	  <point x="185" y="252"/>
	  <point x="180" y="260"/>
	  <point x="187" y="267" type="curve"/>
	  <point x="120" y="255"/>
	  <point x="107" y="218"/>
	  <point x="123" y="185" type="curve" smooth="yes"/>
	  <point x="139" y="152"/>
	  <point x="186" y="121"/>
	  <point x="239" y="121" type="curve" smooth="yes"/>
	  <point x="318" y="121"/>
	  <point x="356" y="151"/>
	  <point x="360" y="184" type="curve" smooth="yes"/>
	  <point x="363" y="216"/>
	  <point x="332" y="252"/>
	  <point x="272" y="265" type="curve"/>
	</contour>
  </outline>
</glyph>
<glyph name="nine" format="1">
  <advance width="578"/>
  <unicode hex="0039"/>
  <outline>
    <contour>
      <point x="497" y="161"/>
      <point x="469" y="126"/>
      <point x="429" y="96" type="curve" smooth="yes"/>
      <point x="389" y="66"/>
      <point x="340" y="42"/>
      <point x="296" y="26" type="curve" smooth="yes"/>
      <point x="274" y="17"/>
      <point x="255" y="11"/>
      <point x="238" y="7" type="curve" smooth="yes"/>
      <point x="221" y="3"/>
      <point x="210" y="1"/>
      <point x="204" y="1" type="curve" smooth="yes"/>
      <point x="148" y="2"/>
      <point x="107" y="28"/>
      <point x="76" y="54" type="curve" smooth="yes"/>
      <point x="61" y="67"/>
      <point x="47" y="79"/>
      <point x="35" y="91" type="curve" smooth="yes"/>
      <point x="23" y="102"/>
      <point x="12" y="110"/>
      <point x="1" y="113" type="curve"/>
      <point x="29" y="118"/>
      <point x="48" y="125"/>
      <point x="67" y="134" type="curve" smooth="yes"/>
      <point x="76" y="138"/>
      <point x="86" y="143"/>
      <point x="96" y="149" type="curve" smooth="yes"/>
      <point x="106" y="155"/>
      <point x="117" y="162"/>
      <point x="130" y="169" type="curve"/>
      <point x="151" y="173"/>
      <point x="164" y="164"/>
      <point x="165" y="153" type="curve" smooth="yes"/>
      <point x="166" y="141"/>
      <point x="158" y="130"/>
      <point x="137" y="131" type="curve"/>
      <point x="173" y="92"/>
      <point x="214" y="84"/>
      <point x="251" y="92" type="curve" smooth="yes"/>
      <point x="288" y="99"/>
      <point x="321" y="122"/>
      <point x="338" y="149" type="curve" smooth="yes"/>
      <point x="354" y="176"/>
      <point x="356" y="205"/>
      <point x="335" y="224" type="curve"/>
      <point x="308" y="195"/>
      <point x="264" y="182"/>
      <point x="214" y="183" type="curve" smooth="yes"/>
      <point x="164" y="184"/>
      <point x="109" y="198"/>
      <point x="69" y="222" type="curve"/>
      <point x="28" y="245"/>
      <point x="-1" y="278"/>
      <point x="-1" y="314" type="curve" smooth="yes"/>
      <point x="-1" y="354"/>
      <point x="38" y="394"/>
      <point x="87" y="424" type="curve" smooth="yes"/>
      <point x="135" y="454"/>
      <point x="194" y="474"/>
      <point x="234" y="474" type="curve" smooth="yes"/>
      <point x="263" y="474"/>
      <point x="302" y="453"/>
      <point x="342" y="422" type="curve"/>
      <point x="381" y="390"/>
      <point x="419" y="349"/>
      <point x="448" y="309" type="curve" smooth="yes"/>
      <point x="477" y="269"/>
      <point x="497" y="229"/>
      <point x="497" y="202" type="curve" smooth="yes"/>
    </contour>
    <contour>
      <point x="291" y="321"/>
      <point x="246" y="356"/>
      <point x="206" y="376" type="curve"/>
      <point x="185" y="385"/>
      <point x="167" y="390"/>
      <point x="152" y="390" type="curve" smooth="yes"/>
      <point x="120" y="390"/>
      <point x="110" y="344"/>
      <point x="138" y="313" type="curve"/>
      <point x="165" y="281"/>
      <point x="210" y="265"/>
      <point x="258" y="266" type="curve" smooth="yes"/>
      <point x="281" y="267"/>
      <point x="300" y="273"/>
      <point x="315" y="286" type="curve"/>
    </contour>
  </outline>
</glyph>
<glyph name="less" format="1">
  <advance width="393"/>
  <unicode hex="003C"/>
  <outline>
	<contour>
	  <point x="342" y="419" type="line"/>
	  <point x="310" y="408"/>
	  <point x="280" y="395"/>
	  <point x="257" y="384" type="curve" smooth="yes"/>
	  <point x="244" y="377"/>
	  <point x="231" y="371"/>
	  <point x="220" y="364" type="curve" smooth="yes"/>
	  <point x="185" y="343" type="line" smooth="yes"/>
	  <point x="165" y="331"/>
	  <point x="139" y="315"/>
	  <point x="119" y="302" type="curve"/>
	  <point x="130" y="294"/>
	  <point x="141" y="287"/>
	  <point x="152" y="280" type="curve" smooth="yes"/>
	  <point x="179" y="262" type="line" smooth="yes"/>
	  <point x="198" y="250"/>
	  <point x="215" y="239"/>
	  <point x="244" y="224" type="curve" smooth="yes"/>
	  <point x="258" y="217"/>
	  <point x="272" y="210"/>
	  <point x="285" y="204" type="curve" smooth="yes"/>
	  <point x="318" y="189" type="line" smooth="yes"/>
	  <point x="337" y="180"/>
	  <point x="334" y="182"/>
	  <point x="334" y="161" type="curve" smooth="yes"/>
	  <point x="334" y="119" type="line" smooth="yes"/>
	  <point x="334" y="100"/>
	  <point x="334" y="74"/>
	  <point x="333" y="40" type="curve"/>
	  <point x="294" y="76"/>
	  <point x="261" y="106"/>
	  <point x="236" y="127" type="curve" smooth="yes"/>
	  <point x="221" y="139"/>
	  <point x="208" y="150"/>
	  <point x="195" y="159" type="curve" smooth="yes"/>
	  <point x="168" y="178"/>
	  <point x="135" y="203"/>
	  <point x="87" y="240" type="curve" smooth="yes"/>
	  <point x="0" y="306" type="line"/>
	  <point x="31" y="329"/>
	  <point x="57" y="347"/>
	  <point x="78" y="362" type="curve" smooth="yes"/>
	  <point x="99" y="377"/>
	  <point x="115" y="388"/>
	  <point x="127" y="397" type="curve" smooth="yes"/>
	  <point x="141" y="407"/>
	  <point x="152" y="414"/>
	  <point x="160" y="419" type="curve" smooth="yes"/>
	  <point x="177" y="431"/>
	  <point x="208" y="452"/>
	  <point x="254" y="488" type="curve" smooth="yes"/>
	  <point x="277" y="505"/>
	  <point x="306" y="528"/>
	  <point x="342" y="556" type="curve"/>
	</contour>
  </outline>
</glyph>
<glyph name="equal" format="1">
  <advance width="525"/>
  <unicode hex="003D"/>
  <outline>
    <contour>
      <point x="506" y="377" type="line"/>
      <point x="364" y="377" type="line"/>
      <point x="328" y="376"/>
      <point x="300" y="376"/>
      <point x="281" y="376" type="curve" smooth="yes"/>
      <point x="232" y="376" type="line"/>
      <point x="223" y="375"/>
      <point x="210" y="375"/>
      <point x="191" y="374" type="curve" smooth="yes"/>
      <point x="125" y="371" type="line" smooth="yes"/>
      <point x="97" y="370"/>
      <point x="61" y="368"/>
      <point x="17" y="367" type="curve"/>
      <point x="15" y="458" type="line"/>
      <point x="66" y="457"/>
      <point x="108" y="455"/>
      <point x="141" y="454" type="curve" smooth="yes"/>
      <point x="219" y="451" type="line"/>
      <point x="264" y="448"/>
      <point x="277" y="447"/>
      <point x="320" y="450" type="curve"/>
      <point x="356" y="451"/>
      <point x="416" y="455"/>
      <point x="508" y="464" type="curve"/>
      <point x="506" y="447"/>
      <point x="505" y="434"/>
      <point x="505" y="426" type="curve" smooth="yes"/>
      <point x="505" y="400" type="line" smooth="yes"/>
      <point x="505" y="397"/>
      <point x="505" y="393"/>
      <point x="506" y="389" type="curve"/>
    </contour>
    <contour>
      <point x="18" y="268" type="line"/>
      <point x="135" y="269"/>
      <point x="204" y="271"/>
      <point x="243" y="272" type="curve" smooth="yes"/>
      <point x="266" y="273"/>
      <point x="282" y="273"/>
      <point x="292" y="273" type="curve" smooth="yes"/>
      <point x="301" y="273"/>
      <point x="314" y="274"/>
      <point x="333" y="275" type="curve" smooth="yes"/>
      <point x="365" y="276"/>
      <point x="418" y="279"/>
      <point x="507" y="284" type="curve"/>
      <point x="510" y="194" type="line"/>
      <point x="459" y="195"/>
      <point x="418" y="195"/>
      <point x="385" y="196" type="curve" smooth="yes"/>
      <point x="352" y="196"/>
      <point x="325" y="196"/>
      <point x="306" y="197" type="curve" smooth="yes"/>
      <point x="261" y="198"/>
      <point x="247" y="200"/>
      <point x="204" y="197" type="curve" smooth="yes"/>
      <point x="168" y="194"/>
      <point x="109" y="191"/>
      <point x="17" y="180" type="curve"/>
      <point x="18" y="189"/>
      <point x="19" y="196"/>
      <point x="19" y="203" type="curve" smooth="yes"/>
      <point x="19" y="219" type="line"/>
      <point x="19" y="233" type="line"/>
      <point x="18" y="236"/>
      <point x="18" y="240"/>
      <point x="18" y="244" type="curve"/>
    </contour>
  </outline>
</glyph>
<glyph name="greater" format="1">
  <advance width="393"/>
  <unicode hex="003E"/>
  <outline>
    <contour>
      <point x="51" y="556" type="line"/>
      <point x="122" y="500"/>
      <point x="167" y="466"/>
      <point x="195" y="446" type="curve" smooth="yes"/>
      <point x="212" y="434"/>
      <point x="224" y="425"/>
      <point x="233" y="419" type="curve" smooth="yes"/>
      <point x="249" y="410"/>
      <point x="274" y="391"/>
      <point x="315" y="362" type="curve" smooth="yes"/>
      <point x="335" y="347"/>
      <point x="361" y="329"/>
      <point x="393" y="306" type="curve"/>
      <point x="359" y="281"/>
      <point x="330" y="259"/>
      <point x="306" y="240" type="curve" smooth="yes"/>
      <point x="258" y="203"/>
      <point x="225" y="178"/>
      <point x="198" y="159" type="curve" smooth="yes"/>
      <point x="173" y="140"/>
      <point x="146" y="118"/>
      <point x="113" y="89" type="curve" smooth="yes"/>
      <point x="96" y="74"/>
      <point x="78" y="58"/>
      <point x="59" y="40" type="curve"/>
      <point x="58" y="74"/>
      <point x="58" y="100"/>
      <point x="58" y="119" type="curve" smooth="yes"/>
      <point x="58" y="161" type="line" smooth="yes"/>
      <point x="58" y="182"/>
      <point x="55" y="180"/>
      <point x="75" y="189" type="curve" smooth="yes"/>
      <point x="94" y="197"/>
      <point x="121" y="209"/>
      <point x="150" y="224" type="curve" smooth="yes"/>
      <point x="178" y="239"/>
      <point x="195" y="250"/>
      <point x="214" y="262" type="curve" smooth="yes"/>
      <point x="241" y="280" type="line" smooth="yes"/>
      <point x="251" y="287"/>
      <point x="262" y="294"/>
      <point x="273" y="302" type="curve"/>
      <point x="253" y="315"/>
      <point x="228" y="331"/>
      <point x="208" y="343" type="curve" smooth="yes"/>
      <point x="173" y="364" type="line" smooth="yes"/>
      <point x="150" y="377"/>
      <point x="127" y="389"/>
      <point x="97" y="402" type="curve" smooth="yes"/>
      <point x="82" y="408"/>
      <point x="66" y="414"/>
      <point x="51" y="419" type="curve"/>
    </contour>
  </outline>
</glyph>
<glyph name="question" format="1">
  <advance width="520"/>
  <unicode hex="003F"/>
  <outline>
	<contour>
	  <point x="152" y="506" type="line" smooth="yes"/>
	  <point x="129" y="502"/>
	  <point x="111" y="499"/>
	  <point x="87" y="496" type="curve" smooth="yes"/>
	  <point x="67" y="493"/>
	  <point x="39" y="491"/>
	  <point x="10" y="490" type="curve"/>
	  <point x="13" y="501"/>
	  <point x="16" y="518"/>
	  <point x="19" y="533" type="curve" smooth="yes"/>
	  <point x="23" y="550"/>
	  <point x="27" y="574"/>
	  <point x="29" y="590" type="curve" smooth="yes"/>
	  <point x="31" y="606"/>
	  <point x="32" y="618"/>
	  <point x="36" y="627" type="curve" smooth="yes"/>
	  <point x="38" y="632"/>
	  <point x="42" y="636"/>
	  <point x="47" y="641" type="curve" smooth="yes"/>
	  <point x="63" y="656"/>
	  <point x="87" y="676"/>
	  <point x="123" y="690" type="curve" smooth="yes"/>
	  <point x="158" y="704"/>
	  <point x="204" y="713"/>
	  <point x="267" y="709" type="curve" smooth="yes"/>
	  <point x="330" y="705"/>
	  <point x="369" y="696"/>
	  <point x="397" y="682" type="curve" smooth="yes"/>
	  <point x="425" y="668"/>
	  <point x="441" y="650"/>
	  <point x="457" y="626" type="curve" smooth="yes"/>
	  <point x="473" y="602"/>
	  <point x="489" y="566"/>
	  <point x="500" y="529" type="curve" smooth="yes"/>
	  <point x="511" y="492"/>
	  <point x="513" y="452"/>
	  <point x="504" y="423" type="curve"/>
	  <point x="492" y="399"/>
	  <point x="460" y="378"/>
	  <point x="404" y="351" type="curve" smooth="yes"/>
	  <point x="375" y="338"/>
	  <point x="336" y="324"/>
	  <point x="286" y="311" type="curve"/>
	  <point x="289" y="286"/>
	  <point x="295" y="266"/>
	  <point x="300" y="251" type="curve" smooth="yes"/>
	  <point x="303" y="242"/>
	  <point x="306" y="235"/>
	  <point x="310" y="228" type="curve" smooth="yes"/>
	  <point x="314" y="222"/>
	  <point x="318" y="215"/>
	  <point x="321" y="208" type="curve" smooth="yes"/>
	  <point x="324" y="202"/>
	  <point x="328" y="196"/>
	  <point x="332" y="189" type="curve" smooth="yes"/>
	  <point x="335" y="182"/>
	  <point x="339" y="175"/>
	  <point x="342" y="169" type="curve"/>
	  <point x="146" y="145" type="line"/>
	  <point x="158" y="160"/>
	  <point x="165" y="177"/>
	  <point x="169" y="192" type="curve" smooth="yes"/>
	  <point x="172" y="201"/>
	  <point x="173" y="209"/>
	  <point x="173" y="218" type="curve" smooth="yes"/>
	  <point x="173" y="237"/>
	  <point x="170" y="260"/>
	  <point x="166" y="296" type="curve"/>
	  <point x="163" y="313"/>
	  <point x="159" y="334"/>
	  <point x="154" y="358" type="curve"/>
	  <point x="217" y="361"/>
	  <point x="256" y="374"/>
	  <point x="281" y="386" type="curve" smooth="yes"/>
	  <point x="310" y="401"/>
	  <point x="322" y="412"/>
	  <point x="331" y="444" type="curve" smooth="yes"/>
	  <point x="339" y="475"/>
	  <point x="343" y="515"/>
	  <point x="339" y="556" type="curve" smooth="yes"/>
	  <point x="335" y="596"/>
	  <point x="321" y="629"/>
	  <point x="295" y="649" type="curve" smooth="yes"/>
	  <point x="269" y="668"/>
	  <point x="208" y="661"/>
	  <point x="177" y="645" type="curve" smooth="yes"/>
	  <point x="146" y="628"/>
	  <point x="136" y="607"/>
	  <point x="137" y="587" type="curve" smooth="yes"/>
	  <point x="137" y="567"/>
	  <point x="137" y="560"/>
	  <point x="150" y="551" type="curve" smooth="yes"/>
	  <point x="161" y="542"/>
	  <point x="181" y="532"/>
	  <point x="220" y="517" type="curve"/>
	</contour>
	<contour>
	  <point x="287" y="117"/>
	  <point x="316" y="91"/>
	  <point x="315" y="51" type="curve" smooth="yes"/>
	  <point x="314" y="31"/>
	  <point x="307" y="20"/>
	  <point x="296" y="14" type="curve" smooth="yes"/>
	  <point x="284" y="8"/>
	  <point x="269" y="5"/>
	  <point x="249" y="2" type="curve" smooth="yes"/>
	  <point x="229" y="-2"/>
	  <point x="210" y="5"/>
	  <point x="195" y="17" type="curve" smooth="yes"/>
	  <point x="180" y="29"/>
	  <point x="171" y="44"/>
	  <point x="171" y="59" type="curve" smooth="yes"/>
	  <point x="171" y="75"/>
	  <point x="181" y="86"/>
	  <point x="195" y="95" type="curve" smooth="yes"/>
	  <point x="209" y="103"/>
	  <point x="224" y="107"/>
	  <point x="239" y="110" type="curve"/>
	</contour>
  </outline>
</glyph>
<glyph name="at" format="1">
  <advance width="691"/>
  <unicode hex="0040"/>
  <outline>
	<contour>
	  <point x="445" y="546" type="line"/>
	  <point x="513" y="533" type="line"/>
	  <point x="507" y="492"/>
	  <point x="503" y="459"/>
	  <point x="500" y="434" type="curve" smooth="yes"/>
	  <point x="495" y="384"/>
	  <point x="491" y="355"/>
	  <point x="494" y="342" type="curve" smooth="yes"/>
	  <point x="499" y="313"/>
	  <point x="506" y="293"/>
	  <point x="535" y="296" type="curve" smooth="yes"/>
	  <point x="548" y="297"/>
	  <point x="570" y="325"/>
	  <point x="586" y="360" type="curve" smooth="yes"/>
	  <point x="602" y="395"/>
	  <point x="614" y="436"/>
	  <point x="609" y="463" type="curve" smooth="yes"/>
	  <point x="604" y="491"/>
	  <point x="583" y="523"/>
	  <point x="560" y="551" type="curve" smooth="yes"/>
	  <point x="537" y="578"/>
	  <point x="513" y="599"/>
	  <point x="501" y="604" type="curve" smooth="yes"/>
	  <point x="489" y="609"/>
	  <point x="445" y="624"/>
	  <point x="394" y="630" type="curve" smooth="yes"/>
	  <point x="342" y="636"/>
	  <point x="285" y="632"/>
	  <point x="246" y="600" type="curve" smooth="yes"/>
	  <point x="207" y="569"/>
	  <point x="169" y="524"/>
	  <point x="143" y="469" type="curve" smooth="yes"/>
	  <point x="117" y="414"/>
	  <point x="104" y="350"/>
	  <point x="117" y="281" type="curve" smooth="yes"/>
	  <point x="130" y="212"/>
	  <point x="167" y="165"/>
	  <point x="211" y="136" type="curve" smooth="yes"/>
	  <point x="255" y="107"/>
	  <point x="306" y="96"/>
	  <point x="350" y="96" type="curve"/>
	  <point x="385" y="97"/>
	  <point x="424" y="107"/>
	  <point x="475" y="125" type="curve" smooth="yes"/>
	  <point x="500" y="134"/>
	  <point x="528" y="146"/>
	  <point x="558" y="162" type="curve"/>
	  <point x="572" y="102" type="line"/>
	  <point x="480" y="59"/>
	  <point x="407" y="44"/>
	  <point x="356" y="39" type="curve" smooth="yes"/>
	  <point x="327" y="36"/>
	  <point x="301" y="36"/>
	  <point x="279" y="39" type="curve"/>
	  <point x="224" y="50"/>
	  <point x="157" y="72"/>
	  <point x="105" y="112" type="curve" smooth="yes"/>
	  <point x="52" y="152"/>
	  <point x="12" y="208"/>
	  <point x="15" y="291" type="curve" smooth="yes"/>
	  <point x="18" y="372"/>
	  <point x="43" y="469"/>
	  <point x="92" y="549" type="curve" smooth="yes"/>
	  <point x="141" y="628"/>
	  <point x="215" y="690"/>
	  <point x="318" y="705" type="curve" smooth="yes"/>
	  <point x="421" y="721"/>
	  <point x="491" y="705"/>
	  <point x="539" y="682" type="curve" smooth="yes"/>
	  <point x="587" y="658"/>
	  <point x="612" y="626"/>
	  <point x="623" y="609" type="curve" smooth="yes"/>
	  <point x="630" y="597"/>
	  <point x="644" y="569"/>
	  <point x="656" y="531" type="curve" smooth="yes"/>
	  <point x="668" y="493"/>
	  <point x="678" y="447"/>
	  <point x="676" y="403" type="curve" smooth="yes"/>
	  <point x="674" y="358"/>
	  <point x="661" y="314"/>
	  <point x="629" y="282" type="curve" smooth="yes"/>
	  <point x="593" y="246"/>
	  <point x="565" y="223"/>
	  <point x="540" y="208" type="curve" smooth="yes"/>
	  <point x="515" y="192"/>
	  <point x="495" y="213"/>
	  <point x="483" y="225" type="curve" smooth="yes"/>
	  <point x="476" y="232"/>
	  <point x="472" y="238"/>
	  <point x="468" y="246" type="curve" smooth="yes"/>
	  <point x="463" y="259" type="line"/>
	  <point x="460" y="264"/>
	  <point x="458" y="270"/>
	  <point x="457" y="277" type="curve"/>
	  <point x="438" y="220"/>
	  <point x="405" y="195"/>
	  <point x="376" y="184" type="curve" smooth="yes"/>
	  <point x="341" y="171"/>
	  <point x="295" y="174"/>
	  <point x="256" y="198" type="curve" smooth="yes"/>
	  <point x="217" y="222"/>
	  <point x="193" y="260"/>
	  <point x="183" y="307" type="curve" smooth="yes"/>
	  <point x="173" y="354"/>
	  <point x="181" y="409"/>
	  <point x="205" y="452" type="curve" smooth="yes"/>
	  <point x="229" y="495"/>
	  <point x="261" y="527"/>
	  <point x="297" y="544" type="curve" smooth="yes"/>
	  <point x="332" y="560"/>
	  <point x="359" y="557"/>
	  <point x="383" y="545" type="curve" smooth="yes"/>
	  <point x="403" y="534"/>
	  <point x="426" y="516"/>
	  <point x="442" y="479" type="curve"/>
	</contour>
	<contour>
	  <point x="350" y="235"/>
	  <point x="372" y="253"/>
	  <point x="391" y="278" type="curve" smooth="yes"/>
	  <point x="410" y="302"/>
	  <point x="423" y="335"/>
	  <point x="426" y="359" type="curve" smooth="yes"/>
	  <point x="430" y="383"/>
	  <point x="428" y="413"/>
	  <point x="419" y="438" type="curve" smooth="yes"/>
	  <point x="410" y="462"/>
	  <point x="392" y="481"/>
	  <point x="364" y="484" type="curve"/>
	  <point x="328" y="485"/>
	  <point x="289" y="443"/>
	  <point x="276" y="376" type="curve" smooth="yes"/>
	  <point x="272" y="357"/>
	  <point x="273" y="325"/>
	  <point x="281" y="297" type="curve" smooth="yes"/>
	  <point x="289" y="269"/>
	  <point x="304" y="245"/>
	  <point x="327" y="240" type="curve" smooth="yes"/>
	</contour>
  </outline>
</glyph>
<glyph name="B" format="1">
  <advance width="647"/>
  <unicode hex="0042"/>
  <outline>
    <contour>
      <point x="28" y="704"/>
      <point x="68" y="700"/>
      <point x="97" y="697" type="curve" smooth="yes"/>
      <point x="132" y="693"/>
      <point x="159" y="693"/>
      <point x="216" y="700" type="curve" smooth="yes"/>
      <point x="272" y="707"/>
      <point x="334" y="714"/>
      <point x="390" y="716" type="curve" smooth="yes"/>
      <point x="445" y="718"/>
      <point x="474" y="708"/>
      <point x="511" y="692" type="curve"/>
      <point x="547" y="675"/>
      <point x="579" y="650"/>
      <point x="599" y="618" type="curve" smooth="yes"/>
      <point x="609" y="601"/>
      <point x="615" y="583"/>
      <point x="616" y="562" type="curve"/>
      <point x="615" y="510"/>
      <point x="595" y="470"/>
      <point x="551" y="430" type="curve" smooth="yes"/>
      <point x="529" y="409"/>
      <point x="497" y="394"/>
      <point x="456" y="383" type="curve"/>
      <point x="497" y="378"/>
      <point x="527" y="364"/>
      <point x="549" y="348" type="curve" smooth="yes"/>
      <point x="571" y="331"/>
      <point x="584" y="310"/>
      <point x="592" y="290" type="curve" smooth="yes"/>
      <point x="602" y="267"/>
      <point x="607" y="241"/>
      <point x="606" y="212" type="curve"/>
      <point x="598" y="137"/>
      <point x="574" y="96"/>
      <point x="546" y="72" type="curve" smooth="yes"/>
      <point x="518" y="48"/>
      <point x="487" y="41"/>
      <point x="463" y="36" type="curve" smooth="yes"/>
      <point x="451" y="33"/>
      <point x="436" y="32"/>
      <point x="419" y="32" type="curve" smooth="yes"/>
      <point x="402" y="32"/>
      <point x="383" y="33"/>
      <point x="364" y="34" type="curve" smooth="yes"/>
      <point x="324" y="36"/>
      <point x="281" y="39"/>
      <point x="244" y="36" type="curve" smooth="yes"/>
      <point x="213" y="33"/>
      <point x="174" y="31"/>
      <point x="118" y="28" type="curve" smooth="yes"/>
      <point x="20" y="22" type="line"/>
      <point x="35" y="33"/>
      <point x="44" y="48"/>
      <point x="51" y="59" type="curve"/>
      <point x="60" y="78" type="line" smooth="yes"/>
      <point x="62" y="83"/>
      <point x="64" y="98"/>
      <point x="65" y="122" type="curve" smooth="yes"/>
      <point x="68" y="170"/>
      <point x="69" y="240"/>
      <point x="70" y="318" type="curve" smooth="yes"/>
      <point x="70" y="396"/>
      <point x="68" y="471"/>
      <point x="65" y="528" type="curve"/>
      <point x="61" y="584"/>
      <point x="55" y="603"/>
      <point x="42" y="632" type="curve" smooth="yes"/>
      <point x="31" y="657"/>
      <point x="12" y="688"/>
      <point x="-15" y="715" type="curve"/>
    </contour>
    <contour>
      <point x="196" y="610"/>
      <point x="196" y="601"/>
      <point x="197" y="586" type="curve" smooth="yes"/>
      <point x="198" y="573"/>
      <point x="199" y="552"/>
      <point x="200" y="525" type="curve" smooth="yes"/>
      <point x="204" y="407" type="line"/>
      <point x="237" y="392"/>
      <point x="271" y="394"/>
      <point x="296" y="397" type="curve" smooth="yes"/>
      <point x="325" y="401"/>
      <point x="360" y="410"/>
      <point x="381" y="443" type="curve" smooth="yes"/>
      <point x="401" y="476"/>
      <point x="408" y="515"/>
      <point x="404" y="548" type="curve" smooth="yes"/>
      <point x="400" y="580"/>
      <point x="381" y="596"/>
      <point x="344" y="611" type="curve" smooth="yes"/>
      <point x="312" y="623"/>
      <point x="264" y="632"/>
      <point x="196" y="613" type="curve"/>
    </contour>
    <contour>
      <point x="191" y="139" type="line"/>
      <point x="240" y="114"/>
      <point x="278" y="108"/>
      <point x="303" y="108" type="curve" smooth="yes"/>
      <point x="332" y="108"/>
      <point x="354" y="118"/>
      <point x="379" y="139" type="curve" smooth="yes"/>
      <point x="403" y="159"/>
      <point x="417" y="188"/>
      <point x="414" y="224" type="curve" smooth="yes"/>
      <point x="413" y="241"/>
      <point x="405" y="261"/>
      <point x="391" y="282" type="curve"/>
      <point x="366" y="313"/>
      <point x="333" y="328"/>
      <point x="285" y="332" type="curve" smooth="yes"/>
      <point x="260" y="334"/>
      <point x="230" y="328"/>
      <point x="195" y="315" type="curve"/>
    </contour>
  </outline>
</glyph>
<glyph name="D" format="1">
  <advance width="639"/>
  <unicode hex="0044"/>
  <outline>
    <contour>
      <point x="40" y="705" type="line" smooth="yes"/>
      <point x="75" y="701"/>
      <point x="98" y="698"/>
      <point x="117" y="697" type="curve" smooth="yes"/>
      <point x="128" y="696"/>
      <point x="141" y="696"/>
      <point x="157" y="699" type="curve" smooth="yes"/>
      <point x="188" y="704"/>
      <point x="224" y="711"/>
      <point x="263" y="715" type="curve" smooth="yes"/>
      <point x="302" y="719"/>
      <point x="328" y="715"/>
      <point x="365" y="707" type="curve" smooth="yes"/>
      <point x="402" y="699"/>
      <point x="445" y="682"/>
      <point x="488" y="654" type="curve" smooth="yes"/>
      <point x="531" y="626"/>
      <point x="566" y="584"/>
      <point x="589" y="525" type="curve" smooth="yes"/>
      <point x="612" y="466"/>
      <point x="617" y="358"/>
      <point x="592" y="262" type="curve" smooth="yes"/>
      <point x="567" y="166"/>
      <point x="514" y="98"/>
      <point x="434" y="59" type="curve" smooth="yes"/>
      <point x="394" y="40"/>
      <point x="347" y="29"/>
      <point x="294" y="27" type="curve"/>
      <point x="174" y="18" type="line" smooth="yes"/>
      <point x="141" y="15"/>
      <point x="103" y="14"/>
      <point x="67" y="14" type="curve" smooth="yes"/>
      <point x="31" y="13"/>
      <point x="-3" y="14"/>
      <point x="-31" y="17" type="curve"/>
      <point x="0" y="32"/>
      <point x="18" y="47"/>
      <point x="29" y="58" type="curve" smooth="yes"/>
      <point x="35" y="65"/>
      <point x="39" y="71"/>
      <point x="42" y="76" type="curve"/>
      <point x="48" y="119" type="line" smooth="yes"/>
      <point x="50" y="137"/>
      <point x="53" y="163"/>
      <point x="56" y="196" type="curve" smooth="yes"/>
      <point x="68" y="332" type="line"/>
      <point x="74" y="403" type="line" smooth="yes"/>
      <point x="81" y="491"/>
      <point x="79" y="545"/>
      <point x="76" y="577" type="curve" smooth="yes"/>
      <point x="72" y="614"/>
      <point x="68" y="624"/>
      <point x="53" y="644" type="curve" smooth="yes"/>
      <point x="40" y="660"/>
      <point x="18" y="684"/>
      <point x="-21" y="713" type="curve"/>
    </contour>
    <contour>
      <point x="190" y="345" type="line" smooth="yes"/>
      <point x="191" y="286"/>
      <point x="195" y="240"/>
      <point x="200" y="209" type="curve" smooth="yes"/>
      <point x="205" y="177"/>
      <point x="210" y="153"/>
      <point x="216" y="138" type="curve" smooth="yes"/>
      <point x="223" y="121"/>
      <point x="231" y="110"/>
      <point x="240" y="107" type="curve"/>
      <point x="265" y="107"/>
      <point x="299" y="129"/>
      <point x="331" y="174" type="curve" smooth="yes"/>
      <point x="362" y="219"/>
      <point x="390" y="287"/>
      <point x="402" y="378" type="curve" smooth="yes"/>
      <point x="414" y="469"/>
      <point x="391" y="538"/>
      <point x="360" y="586" type="curve" smooth="yes"/>
      <point x="345" y="609"/>
      <point x="329" y="627"/>
      <point x="313" y="640" type="curve" smooth="yes"/>
      <point x="297" y="652"/>
      <point x="285" y="658"/>
      <point x="277" y="658" type="curve" smooth="yes"/>
      <point x="268" y="658"/>
      <point x="259" y="656"/>
      <point x="252" y="651" type="curve" smooth="yes"/>
      <point x="237" y="641"/>
      <point x="214" y="612"/>
      <point x="203" y="577" type="curve" smooth="yes"/>
      <point x="194" y="546"/>
      <point x="185" y="498"/>
      <point x="188" y="418" type="curve"/>
    </contour>
  </outline>
</glyph>
<glyph name="F" format="1">
  <advance width="528"/>
  <unicode hex="0046"/>
  <outline>
    <contour>
      <point x="100" y="683"/>
      <point x="160" y="683"/>
      <point x="203" y="683" type="curve" smooth="yes"/>
      <point x="252" y="683"/>
      <point x="280" y="686"/>
      <point x="340" y="693" type="curve"/>
      <point x="391" y="700"/>
      <point x="469" y="710"/>
      <point x="584" y="729" type="curve"/>
      <point x="569" y="706"/>
      <point x="560" y="680"/>
      <point x="553" y="660" type="curve" smooth="yes"/>
      <point x="546" y="636"/>
      <point x="542" y="615"/>
      <point x="537" y="578" type="curve"/>
      <point x="534" y="562"/>
      <point x="531" y="542"/>
      <point x="528" y="518" type="curve" smooth="yes"/>
      <point x="524" y="493"/>
      <point x="519" y="464"/>
      <point x="514" y="431" type="curve"/>
      <point x="474" y="535"/>
      <point x="432" y="586"/>
      <point x="397" y="613" type="curve" smooth="yes"/>
      <point x="377" y="628"/>
      <point x="358" y="637"/>
      <point x="340" y="639" type="curve"/>
      <point x="288" y="639"/>
      <point x="256" y="617"/>
      <point x="236" y="586" type="curve" smooth="yes"/>
      <point x="215" y="554"/>
      <point x="205" y="516"/>
      <point x="201" y="482" type="curve" smooth="yes"/>
      <point x="199" y="465"/>
      <point x="198" y="450"/>
      <point x="197" y="437" type="curve" smooth="yes"/>
      <point x="196" y="424"/>
      <point x="196" y="415"/>
      <point x="195" y="410" type="curve"/>
      <point x="242" y="413"/>
      <point x="273" y="417"/>
      <point x="292" y="421" type="curve" smooth="yes"/>
      <point x="315" y="426"/>
      <point x="329" y="433"/>
      <point x="349" y="448" type="curve" smooth="yes"/>
      <point x="366" y="461"/>
      <point x="387" y="479"/>
      <point x="402" y="506" type="curve"/>
      <point x="394" y="458"/>
      <point x="388" y="427"/>
      <point x="384" y="408" type="curve" smooth="yes"/>
      <point x="381" y="397"/>
      <point x="380" y="388"/>
      <point x="379" y="382" type="curve" smooth="yes"/>
      <point x="376" y="370"/>
      <point x="372" y="350"/>
      <point x="367" y="321" type="curve" smooth="yes"/>
      <point x="364" y="306"/>
      <point x="361" y="288"/>
      <point x="358" y="266" type="curve"/>
      <point x="342" y="294"/>
      <point x="324" y="311"/>
      <point x="309" y="322" type="curve" smooth="yes"/>
      <point x="292" y="334"/>
      <point x="276" y="339"/>
      <point x="256" y="344" type="curve" smooth="yes"/>
      <point x="239" y="348"/>
      <point x="215" y="353"/>
      <point x="188" y="357" type="curve"/>
      <point x="191" y="285"/>
      <point x="197" y="235"/>
      <point x="201" y="200" type="curve" smooth="yes"/>
      <point x="206" y="160"/>
      <point x="210" y="138"/>
      <point x="225" y="107" type="curve" smooth="yes"/>
      <point x="237" y="80"/>
      <point x="258" y="46"/>
      <point x="293" y="7" type="curve"/>
      <point x="266" y="14"/>
      <point x="235" y="16"/>
      <point x="212" y="17" type="curve" smooth="yes"/>
      <point x="184" y="18"/>
      <point x="160" y="17"/>
      <point x="128" y="13" type="curve" smooth="yes"/>
      <point x="101" y="10"/>
      <point x="66" y="5"/>
      <point x="27" y="-2" type="curve"/>
      <point x="50" y="21"/>
      <point x="64" y="45"/>
      <point x="71" y="62" type="curve" smooth="yes"/>
      <point x="75" y="72"/>
      <point x="78" y="82"/>
      <point x="79" y="91" type="curve" smooth="yes"/>
      <point x="80" y="99"/>
      <point x="80" y="117"/>
      <point x="80" y="144" type="curve" smooth="yes"/>
      <point x="80" y="198"/>
      <point x="79" y="273"/>
      <point x="76" y="354" type="curve" smooth="yes"/>
      <point x="73" y="435"/>
      <point x="71" y="509"/>
      <point x="68" y="560" type="curve" smooth="yes"/>
      <point x="66" y="585"/>
      <point x="64" y="601"/>
      <point x="62" y="606" type="curve" smooth="yes"/>
      <point x="59" y="613"/>
      <point x="56" y="620"/>
      <point x="53" y="629" type="curve" smooth="yes"/>
      <point x="48" y="643"/>
      <point x="37" y="663"/>
      <point x="20" y="690" type="curve"/>
    </contour>
  </outline>
</glyph>
<glyph name="G" format="1">
  <advance width="658"/>
  <unicode hex="0047"/>
  <outline>
	<contour>
	  <point x="476" y="723"/>
	  <point x="529" y="686"/>
	  <point x="564" y="642" type="curve" smooth="yes"/>
	  <point x="581" y="620"/>
	  <point x="595" y="598"/>
	  <point x="604" y="576" type="curve" smooth="yes"/>
	  <point x="613" y="553"/>
	  <point x="621" y="536"/>
	  <point x="626" y="523" type="curve" smooth="yes"/>
	  <point x="629" y="516"/>
	  <point x="636" y="506"/>
	  <point x="649" y="494" type="curve"/>
	  <point x="655" y="487"/>
	  <point x="663" y="480"/>
	  <point x="673" y="472" type="curve"/>
	  <point x="652" y="471"/>
	  <point x="634" y="471"/>
	  <point x="618" y="471" type="curve" smooth="yes"/>
	  <point x="586" y="470"/>
	  <point x="563" y="468"/>
	  <point x="543" y="467" type="curve" smooth="yes"/>
	  <point x="506" y="464" type="line" smooth="yes"/>
	  <point x="493" y="463"/>
	  <point x="476" y="461"/>
	  <point x="457" y="460" type="curve" smooth="yes"/>
	  <point x="438" y="459"/>
	  <point x="414" y="457"/>
	  <point x="386" y="454" type="curve"/>
	  <point x="419" y="494"/>
	  <point x="438" y="525"/>
	  <point x="448" y="550" type="curve" smooth="yes"/>
	  <point x="458" y="574"/>
	  <point x="459" y="593"/>
	  <point x="455" y="606" type="curve" smooth="yes"/>
	  <point x="451" y="621"/>
	  <point x="441" y="632"/>
	  <point x="424" y="639" type="curve"/>
	  <point x="328" y="666"/>
	  <point x="253" y="595"/>
	  <point x="222" y="439" type="curve" smooth="yes"/>
	  <point x="207" y="362"/>
	  <point x="191" y="273"/>
	  <point x="194" y="205" type="curve" smooth="yes"/>
	  <point x="197" y="136"/>
	  <point x="217" y="88"/>
	  <point x="276" y="91" type="curve" smooth="yes"/>
	  <point x="333" y="94"/>
	  <point x="373" y="112"/>
	  <point x="397" y="136" type="curve" smooth="yes"/>
	  <point x="421" y="159"/>
	  <point x="431" y="188"/>
	  <point x="428" y="212" type="curve"/>
	  <point x="423" y="231"/>
	  <point x="402" y="250"/>
	  <point x="362" y="274" type="curve" smooth="yes"/>
	  <point x="342" y="285"/>
	  <point x="313" y="297"/>
	  <point x="276" y="310" type="curve"/>
	  <point x="311" y="312"/>
	  <point x="341" y="314"/>
	  <point x="364" y="315" type="curve" smooth="yes"/>
	  <point x="418" y="318" type="line"/>
	  <point x="450" y="321"/>
	  <point x="459" y="322"/>
	  <point x="490" y="323" type="curve" smooth="yes"/>
	  <point x="503" y="324"/>
	  <point x="521" y="324"/>
	  <point x="542" y="324" type="curve" smooth="yes"/>
	  <point x="563" y="324"/>
	  <point x="589" y="324"/>
	  <point x="621" y="325" type="curve"/>
	  <point x="609" y="313"/>
	  <point x="600" y="302"/>
	  <point x="593" y="292" type="curve" smooth="yes"/>
	  <point x="590" y="287"/>
	  <point x="587" y="282"/>
	  <point x="584" y="278" type="curve"/>
	  <point x="581" y="271"/>
	  <point x="580" y="258"/>
	  <point x="581" y="237" type="curve" smooth="yes"/>
	  <point x="581" y="220"/>
	  <point x="582" y="194"/>
	  <point x="585" y="161" type="curve" smooth="yes"/>
	  <point x="588" y="127"/>
	  <point x="593" y="81"/>
	  <point x="600" y="23" type="curve"/>
	  <point x="467" y="5" type="line"/>
	  <point x="473" y="140" type="line"/>
	  <point x="442" y="67"/>
	  <point x="391" y="35"/>
	  <point x="350" y="20" type="curve" smooth="yes"/>
	  <point x="325" y="11"/>
	  <point x="300" y="7"/>
	  <point x="273" y="8" type="curve"/>
	  <point x="204" y="15"/>
	  <point x="130" y="38"/>
	  <point x="77" y="91" type="curve" smooth="yes"/>
	  <point x="24" y="143"/>
	  <point x="-9" y="225"/>
	  <point x="2" y="349" type="curve" smooth="yes"/>
	  <point x="14" y="473"/>
	  <point x="64" y="566"/>
	  <point x="135" y="627" type="curve" smooth="yes"/>
	  <point x="206" y="688"/>
	  <point x="298" y="719"/>
	  <point x="391" y="722" type="curve"/>
	</contour>
  </outline>
</glyph>
<glyph name="H" format="1">
  <advance width="604"/>
  <unicode hex="0048"/>
  <outline>
	<contour>
	  <point x="-8" y="707"/>
	  <point x="12" y="706"/>
	  <point x="28" y="705" type="curve" smooth="yes"/>
	  <point x="66" y="702" type="line" smooth="yes"/>
	  <point x="77" y="701"/>
	  <point x="86" y="701"/>
	  <point x="93" y="701" type="curve" smooth="yes"/>
	  <point x="116" y="701"/>
	  <point x="143" y="702"/>
	  <point x="177" y="706" type="curve"/>
	  <point x="194" y="707"/>
	  <point x="212" y="710"/>
	  <point x="232" y="714" type="curve"/>
	  <point x="213" y="694"/>
	  <point x="202" y="676"/>
	  <point x="195" y="661" type="curve" smooth="yes"/>
	  <point x="187" y="645"/>
	  <point x="183" y="635"/>
	  <point x="176" y="599" type="curve" smooth="yes"/>
	  <point x="169" y="568"/>
	  <point x="163" y="515"/>
	  <point x="152" y="424" type="curve"/>
	  <point x="175" y="423"/>
	  <point x="194" y="423"/>
	  <point x="211" y="424" type="curve"/>
	  <point x="253" y="424" type="line"/>
	  <point x="286" y="424" type="line"/>
	  <point x="295" y="425"/>
	  <point x="306" y="425"/>
	  <point x="318" y="426" type="curve" smooth="yes"/>
	  <point x="338" y="427"/>
	  <point x="368" y="429"/>
	  <point x="409" y="432" type="curve"/>
	  <point x="416" y="493"/>
	  <point x="416" y="537"/>
	  <point x="413" y="568" type="curve" smooth="yes"/>
	  <point x="412" y="585"/>
	  <point x="410" y="600"/>
	  <point x="407" y="612" type="curve" smooth="yes"/>
	  <point x="403" y="625"/>
	  <point x="396" y="642"/>
	  <point x="385" y="666" type="curve"/>
	  <point x="362" y="708" type="line"/>
	  <point x="397" y="703"/>
	  <point x="424" y="701"/>
	  <point x="443" y="700" type="curve" smooth="yes"/>
	  <point x="454" y="699"/>
	  <point x="463" y="699"/>
	  <point x="470" y="699" type="curve" smooth="yes"/>
	  <point x="477" y="699"/>
	  <point x="487" y="699"/>
	  <point x="499" y="700" type="curve" smooth="yes"/>
	  <point x="509" y="701"/>
	  <point x="521" y="701"/>
	  <point x="536" y="702" type="curve" smooth="yes"/>
	  <point x="551" y="702"/>
	  <point x="569" y="703"/>
	  <point x="590" y="704" type="curve"/>
	  <point x="579" y="685"/>
	  <point x="571" y="664"/>
	  <point x="566" y="648" type="curve" smooth="yes"/>
	  <point x="563" y="639"/>
	  <point x="561" y="629"/>
	  <point x="558" y="620" type="curve" smooth="yes"/>
	  <point x="551" y="592"/>
	  <point x="547" y="535"/>
	  <point x="544" y="470" type="curve" smooth="yes"/>
	  <point x="540" y="405"/>
	  <point x="538" y="331"/>
	  <point x="538" y="268" type="curve" smooth="yes"/>
	  <point x="537" y="205"/>
	  <point x="538" y="153"/>
	  <point x="542" y="133" type="curve" smooth="yes"/>
	  <point x="546" y="109"/>
	  <point x="555" y="86"/>
	  <point x="568" y="60" type="curve" smooth="yes"/>
	  <point x="575" y="47"/>
	  <point x="583" y="34"/>
	  <point x="594" y="23" type="curve"/>
	  <point x="353" y="5" type="line"/>
	  <point x="373" y="24"/>
	  <point x="384" y="43"/>
	  <point x="391" y="56" type="curve" smooth="yes"/>
	  <point x="394" y="63"/>
	  <point x="397" y="70"/>
	  <point x="398" y="77" type="curve" smooth="yes"/>
	  <point x="399" y="93"/>
	  <point x="402" y="129"/>
	  <point x="405" y="190" type="curve" smooth="yes"/>
	  <point x="406" y="221"/>
	  <point x="408" y="261"/>
	  <point x="409" y="312" type="curve"/>
	  <point x="390" y="312"/>
	  <point x="362" y="311"/>
	  <point x="339" y="310" type="curve" smooth="yes"/>
	  <point x="326" y="309"/>
	  <point x="312" y="309"/>
	  <point x="297" y="309" type="curve" smooth="yes"/>
	  <point x="282" y="308"/>
	  <point x="267" y="308"/>
	  <point x="251" y="307" type="curve" smooth="yes"/>
	  <point x="207" y="304" type="line" smooth="yes"/>
	  <point x="190" y="303"/>
	  <point x="174" y="301"/>
	  <point x="158" y="300" type="curve"/>
	  <point x="155" y="244"/>
	  <point x="159" y="202"/>
	  <point x="164" y="173" type="curve" smooth="yes"/>
	  <point x="169" y="138"/>
	  <point x="178" y="116"/>
	  <point x="187" y="92" type="curve" smooth="yes"/>
	  <point x="195" y="71"/>
	  <point x="207" y="45"/>
	  <point x="219" y="26" type="curve"/>
	  <point x="206" y="27"/>
	  <point x="195" y="29"/>
	  <point x="184" y="30" type="curve" smooth="yes"/>
	  <point x="156" y="33" type="line" smooth="yes"/>
	  <point x="147" y="34"/>
	  <point x="138" y="34"/>
	  <point x="129" y="35" type="curve" smooth="yes"/>
	  <point x="120" y="35"/>
	  <point x="110" y="35"/>
	  <point x="98" y="36" type="curve" smooth="yes"/>
	  <point x="77" y="37"/>
	  <point x="45" y="38"/>
	  <point x="2" y="38" type="curve"/>
	  <point x="27" y="63"/>
	  <point x="42" y="89"/>
	  <point x="49" y="109" type="curve" smooth="yes"/>
	  <point x="57" y="133"/>
	  <point x="58" y="143"/>
	  <point x="59" y="191" type="curve" smooth="yes"/>
	  <point x="59" y="239"/>
	  <point x="58" y="303"/>
	  <point x="57" y="372" type="curve" smooth="yes"/>
	  <point x="56" y="440"/>
	  <point x="54" y="502"/>
	  <point x="52" y="546" type="curve" smooth="yes"/>
	  <point x="50" y="589"/>
	  <point x="47" y="597"/>
	  <point x="34" y="625" type="curve" smooth="yes"/>
	  <point x="22" y="648"/>
	  <point x="4" y="679"/>
	  <point x="-31" y="710" type="curve"/>
	</contour>
  </outline>
</glyph>
<glyph name="J" format="1">
  <advance width="479"/>
  <unicode hex="004A"/>
  <outline>
    <contour>
      <point x="383" y="724"/>
      <point x="368" y="722"/>
      <point x="356" y="721" type="curve" smooth="yes"/>
      <point x="328" y="718"/>
      <point x="313" y="717"/>
      <point x="290" y="717" type="curve" smooth="yes"/>
      <point x="269" y="717"/>
      <point x="244" y="719"/>
      <point x="214" y="723" type="curve"/>
      <point x="237" y="707"/>
      <point x="250" y="687"/>
      <point x="258" y="672" type="curve" smooth="yes"/>
      <point x="267" y="653"/>
      <point x="269" y="647"/>
      <point x="275" y="611" type="curve" smooth="yes"/>
      <point x="281" y="575"/>
      <point x="287" y="523"/>
      <point x="295" y="463" type="curve" smooth="yes"/>
      <point x="302" y="403"/>
      <point x="308" y="346"/>
      <point x="309" y="298" type="curve" smooth="yes"/>
      <point x="310" y="250"/>
      <point x="305" y="222"/>
      <point x="297" y="181" type="curve" smooth="yes"/>
      <point x="289" y="140"/>
      <point x="274" y="105"/>
      <point x="247" y="86" type="curve" smooth="yes"/>
      <point x="219" y="66"/>
      <point x="169" y="69"/>
      <point x="150" y="101" type="curve" smooth="yes"/>
      <point x="131" y="133"/>
      <point x="126" y="174"/>
      <point x="128" y="211" type="curve" smooth="yes"/>
      <point x="130" y="247"/>
      <point x="133" y="254"/>
      <point x="146" y="267" type="curve" smooth="yes"/>
      <point x="157" y="278"/>
      <point x="176" y="291"/>
      <point x="211" y="302" type="curve"/>
      <point x="142" y="305" type="line"/>
      <point x="123" y="305"/>
      <point x="108" y="305"/>
      <point x="96" y="306" type="curve" smooth="yes"/>
      <point x="68" y="307"/>
      <point x="54" y="309"/>
      <point x="22" y="307" type="curve" smooth="yes"/>
      <point x="-10" y="305"/>
      <point x="-41" y="302"/>
      <point x="-61" y="300" type="curve" smooth="yes"/>
      <point x="-64" y="300"/>
      <point x="-67" y="300"/>
      <point x="-69" y="299" type="curve"/>
      <point x="-68" y="299" type="line"/>
      <point x="-58" y="294"/>
      <point x="-44" y="284"/>
      <point x="-32" y="272" type="curve" smooth="yes"/>
      <point x="-20" y="260"/>
      <point x="-18" y="254"/>
      <point x="-12" y="231" type="curve" smooth="yes"/>
      <point x="-6" y="207"/>
      <point x="2" y="177"/>
      <point x="14" y="142" type="curve"/>
      <point x="25" y="106"/>
      <point x="39" y="73"/>
      <point x="56" y="46" type="curve" smooth="yes"/>
      <point x="73" y="19"/>
      <point x="96" y="1"/>
      <point x="141" y="-5" type="curve" smooth="yes"/>
      <point x="185" y="-11"/>
      <point x="237" y="-5"/>
      <point x="289" y="16" type="curve" smooth="yes"/>
      <point x="341" y="36"/>
      <point x="373" y="58"/>
      <point x="389" y="99" type="curve" smooth="yes"/>
      <point x="404" y="139"/>
      <point x="414" y="196"/>
      <point x="419" y="262" type="curve" smooth="yes"/>
      <point x="424" y="328"/>
      <point x="427" y="396"/>
      <point x="428" y="461" type="curve" smooth="yes"/>
      <point x="428" y="526"/>
      <point x="427" y="581"/>
      <point x="427" y="618" type="curve" smooth="yes"/>
      <point x="426" y="655"/>
      <point x="428" y="665"/>
      <point x="433" y="684" type="curve" smooth="yes"/>
      <point x="438" y="700"/>
      <point x="447" y="719"/>
      <point x="464" y="732" type="curve"/>
      <point x="440" y="729"/>
      <point x="419" y="726"/>
      <point x="401" y="725" type="curve" smooth="yes"/>
    </contour>
    <contour>
      <point x="-77" y="299"/>
      <point x="-74" y="299"/>
      <point x="-69" y="299" type="curve"/>
      <point x="-73" y="301"/>
      <point x="-76" y="301"/>
      <point x="-77" y="300" type="curve"/>
    </contour>
  </outline>
</glyph>
<glyph name="K" format="1">
  <advance width="657"/>
  <unicode hex="004B"/>
  <outline>
    <contour>
      <point x="46" y="711"/>
      <point x="66" y="708"/>
      <point x="84" y="707" type="curve" smooth="yes"/>
      <point x="101" y="706"/>
      <point x="116" y="704"/>
      <point x="128" y="703" type="curve" smooth="yes"/>
      <point x="142" y="702"/>
      <point x="154" y="701"/>
      <point x="164" y="701" type="curve" smooth="yes"/>
      <point x="203" y="701" type="line" smooth="yes"/>
      <point x="229" y="701"/>
      <point x="272" y="702"/>
      <point x="332" y="704" type="curve"/>
      <point x="303" y="695"/>
      <point x="284" y="676"/>
      <point x="272" y="657" type="curve" smooth="yes"/>
      <point x="257" y="636"/>
      <point x="252" y="615"/>
      <point x="245" y="568" type="curve" smooth="yes"/>
      <point x="238" y="527"/>
      <point x="232" y="462"/>
      <point x="227" y="362" type="curve"/>
      <point x="284" y="427"/>
      <point x="327" y="477"/>
      <point x="359" y="516" type="curve" smooth="yes"/>
      <point x="391" y="555"/>
      <point x="412" y="582"/>
      <point x="427" y="602" type="curve" smooth="yes"/>
      <point x="444" y="625"/>
      <point x="454" y="640"/>
      <point x="457" y="648" type="curve"/>
      <point x="458" y="657"/>
      <point x="455" y="669"/>
      <point x="450" y="685" type="curve" smooth="yes"/>
      <point x="447" y="692"/>
      <point x="443" y="701"/>
      <point x="438" y="710" type="curve"/>
      <point x="507" y="707" type="line" smooth="yes"/>
      <point x="526" y="706"/>
      <point x="541" y="706"/>
      <point x="554" y="705" type="curve" smooth="yes"/>
      <point x="569" y="704"/>
      <point x="581" y="704"/>
      <point x="590" y="704" type="curve" smooth="yes"/>
      <point x="632" y="704" type="line" smooth="yes"/>
      <point x="663" y="704"/>
      <point x="710" y="705"/>
      <point x="785" y="706" type="curve"/>
      <point x="736" y="694"/>
      <point x="691" y="672"/>
      <point x="656" y="653" type="curve" smooth="yes"/>
      <point x="616" y="630"/>
      <point x="585" y="607"/>
      <point x="542" y="571" type="curve" smooth="yes"/>
      <point x="506" y="540"/>
      <point x="457" y="496"/>
      <point x="401" y="437" type="curve"/>
      <point x="461" y="320"/>
      <point x="505" y="247"/>
      <point x="536" y="202" type="curve" smooth="yes"/>
      <point x="571" y="149"/>
      <point x="590" y="129"/>
      <point x="622" y="102" type="curve" smooth="yes"/>
      <point x="649" y="79"/>
      <point x="689" y="50"/>
      <point x="741" y="25" type="curve"/>
      <point x="456" y="11" type="line"/>
      <point x="464" y="22"/>
      <point x="465" y="39"/>
      <point x="465" y="52" type="curve" smooth="yes"/>
      <point x="465" y="59"/>
      <point x="464" y="67"/>
      <point x="463" y="76" type="curve"/>
      <point x="460" y="87"/>
      <point x="453" y="104"/>
      <point x="442" y="128" type="curve" smooth="yes"/>
      <point x="433" y="149"/>
      <point x="418" y="178"/>
      <point x="399" y="216" type="curve" smooth="yes"/>
      <point x="380" y="253"/>
      <point x="353" y="303"/>
      <point x="319" y="365" type="curve"/>
      <point x="234" y="276" type="line"/>
      <point x="231" y="255"/>
      <point x="229" y="235"/>
      <point x="229" y="218" type="curve" smooth="yes"/>
      <point x="229" y="183"/>
      <point x="232" y="159"/>
      <point x="239" y="139" type="curve" smooth="yes"/>
      <point x="247" y="119"/>
      <point x="260" y="96"/>
      <point x="280" y="65" type="curve" smooth="yes"/>
      <point x="290" y="50"/>
      <point x="303" y="33"/>
      <point x="318" y="14" type="curve"/>
      <point x="287" y="22"/>
      <point x="255" y="25"/>
      <point x="230" y="26" type="curve" smooth="yes"/>
      <point x="201" y="27"/>
      <point x="176" y="24"/>
      <point x="139" y="19" type="curve" smooth="yes"/>
      <point x="107" y="14"/>
      <point x="60" y="6"/>
      <point x="0" y="-6" type="curve"/>
      <point x="29" y="11"/>
      <point x="45" y="32"/>
      <point x="56" y="51" type="curve" smooth="yes"/>
      <point x="68" y="72"/>
      <point x="70" y="81"/>
      <point x="72" y="138" type="curve" smooth="yes"/>
      <point x="74" y="195"/>
      <point x="74" y="275"/>
      <point x="73" y="360" type="curve" smooth="yes"/>
      <point x="72" y="445"/>
      <point x="71" y="523"/>
      <point x="69" y="576" type="curve" smooth="yes"/>
      <point x="67" y="628"/>
      <point x="65" y="633"/>
      <point x="58" y="654" type="curve" smooth="yes"/>
      <point x="51" y="673"/>
      <point x="40" y="694"/>
      <point x="23" y="714" type="curve"/>
    </contour>
  </outline>
</glyph>
<glyph name="L" format="1">
  <advance width="570"/>
  <unicode hex="004C"/>
  <outline>
	<contour>
	  <point x="59" y="718"/>
	  <point x="89" y="716"/>
	  <point x="109" y="715" type="curve" smooth="yes"/>
	  <point x="121" y="714"/>
	  <point x="131" y="714"/>
	  <point x="140" y="714" type="curve" smooth="yes"/>
	  <point x="157" y="714"/>
	  <point x="186" y="717"/>
	  <point x="230" y="721" type="curve" smooth="yes"/>
	  <point x="251" y="723"/>
	  <point x="278" y="726"/>
	  <point x="310" y="731" type="curve"/>
	  <point x="291" y="726"/>
	  <point x="276" y="697"/>
	  <point x="264" y="669" type="curve" smooth="yes"/>
	  <point x="249" y="636"/>
	  <point x="242" y="603"/>
	  <point x="228" y="540" type="curve" smooth="yes"/>
	  <point x="214" y="477"/>
	  <point x="200" y="402"/>
	  <point x="193" y="327" type="curve" smooth="yes"/>
	  <point x="186" y="251"/>
	  <point x="190" y="186"/>
	  <point x="210" y="146" type="curve" smooth="yes"/>
	  <point x="230" y="105"/>
	  <point x="293" y="108"/>
	  <point x="335" y="113" type="curve" smooth="yes"/>
	  <point x="377" y="117"/>
	  <point x="402" y="127"/>
	  <point x="417" y="140" type="curve" smooth="yes"/>
	  <point x="424" y="146"/>
	  <point x="430" y="152"/>
	  <point x="434" y="158" type="curve" smooth="yes"/>
	  <point x="455" y="189"/>
	  <point x="480" y="242"/>
	  <point x="498" y="286" type="curve" smooth="yes"/>
	  <point x="507" y="308"/>
	  <point x="514" y="327"/>
	  <point x="520" y="342" type="curve" smooth="yes"/>
	  <point x="526" y="357"/>
	  <point x="529" y="365"/>
	  <point x="529" y="364" type="curve"/>
	  <point x="529" y="342" type="line" smooth="yes"/>
	  <point x="528" y="314"/>
	  <point x="527" y="274"/>
	  <point x="527" y="233" type="curve"/>
	  <point x="526" y="212"/>
	  <point x="526" y="195"/>
	  <point x="525" y="180" type="curve" smooth="yes"/>
	  <point x="524" y="156"/>
	  <point x="522" y="130"/>
	  <point x="522" y="95" type="curve"/>
	  <point x="519" y="38" type="line"/>
	  <point x="463" y="42"/>
	  <point x="411" y="43"/>
	  <point x="372" y="43" type="curve" smooth="yes"/>
	  <point x="327" y="43"/>
	  <point x="292" y="42"/>
	  <point x="237" y="39" type="curve" smooth="yes"/>
	  <point x="214" y="38"/>
	  <point x="185" y="36"/>
	  <point x="150" y="35" type="curve" smooth="yes"/>
	  <point x="115" y="33"/>
	  <point x="75" y="31"/>
	  <point x="30" y="28" type="curve"/>
	  <point x="41" y="47"/>
	  <point x="48" y="63"/>
	  <point x="52" y="74" type="curve" smooth="yes"/>
	  <point x="55" y="81"/>
	  <point x="56" y="86"/>
	  <point x="57" y="91" type="curve" smooth="yes"/>
	  <point x="65" y="134"/>
	  <point x="70" y="203"/>
	  <point x="74" y="278" type="curve" smooth="yes"/>
	  <point x="77" y="353"/>
	  <point x="77" y="434"/>
	  <point x="76" y="501" type="curve" smooth="yes"/>
	  <point x="75" y="568"/>
	  <point x="71" y="620"/>
	  <point x="66" y="639" type="curve"/>
	  <point x="59" y="660"/>
	  <point x="51" y="680"/>
	  <point x="40" y="700" type="curve" smooth="yes"/>
	  <point x="34" y="709"/>
	  <point x="27" y="718"/>
	  <point x="20" y="725" type="curve"/>
	</contour>
  </outline>
</glyph>
<glyph name="M" format="1">
  <advance width="807"/>
  <unicode hex="004D"/>
  <outline>
	<contour>
	  <point x="16" y="716"/>
	  <point x="35" y="716"/>
	  <point x="51" y="717" type="curve"/>
	  <point x="90" y="717" type="line"/>
	  <point x="119" y="717" type="line"/>
	  <point x="126" y="718"/>
	  <point x="135" y="718"/>
	  <point x="146" y="718" type="curve" smooth="yes"/>
	  <point x="180" y="718" type="line" smooth="yes"/>
	  <point x="193" y="718"/>
	  <point x="209" y="718"/>
	  <point x="226" y="717" type="curve"/>
	  <point x="231" y="698"/>
	  <point x="238" y="680"/>
	  <point x="245" y="663" type="curve" smooth="yes"/>
	  <point x="263" y="615" type="line" smooth="yes"/>
	  <point x="270" y="598"/>
	  <point x="276" y="583"/>
	  <point x="283" y="568" type="curve" smooth="yes"/>
	  <point x="290" y="553"/>
	  <point x="298" y="536"/>
	  <point x="307" y="515" type="curve" smooth="yes"/>
	  <point x="315" y="498"/>
	  <point x="325" y="477"/>
	  <point x="336" y="452" type="curve" smooth="yes"/>
	  <point x="347" y="427"/>
	  <point x="361" y="398"/>
	  <point x="376" y="366" type="curve"/>
	  <point x="413" y="468" type="line" smooth="yes"/>
	  <point x="424" y="497"/>
	  <point x="429" y="517"/>
	  <point x="437" y="552" type="curve" smooth="yes"/>
	  <point x="444" y="581"/>
	  <point x="453" y="622"/>
	  <point x="462" y="677" type="curve"/>
	  <point x="514" y="677" type="line" smooth="yes"/>
	  <point x="545" y="677"/>
	  <point x="568" y="678"/>
	  <point x="588" y="679" type="curve" smooth="yes"/>
	  <point x="599" y="679"/>
	  <point x="613" y="680"/>
	  <point x="631" y="681" type="curve" smooth="yes"/>
	  <point x="646" y="682"/>
	  <point x="667" y="684"/>
	  <point x="693" y="685" type="curve" smooth="yes"/>
	  <point x="718" y="686"/>
	  <point x="750" y="687"/>
	  <point x="788" y="689" type="curve"/>
	  <point x="760" y="669"/>
	  <point x="744" y="649"/>
	  <point x="735" y="634" type="curve" smooth="yes"/>
	  <point x="724" y="617"/>
	  <point x="724" y="611"/>
	  <point x="722" y="563" type="curve" smooth="yes"/>
	  <point x="720" y="515"/>
	  <point x="717" y="447"/>
	  <point x="717" y="372" type="curve" smooth="yes"/>
	  <point x="716" y="297"/>
	  <point x="717" y="228"/>
	  <point x="721" y="180" type="curve"/>
	  <point x="724" y="131"/>
	  <point x="731" y="126"/>
	  <point x="747" y="105" type="curve" smooth="yes"/>
	  <point x="762" y="86"/>
	  <point x="783" y="62"/>
	  <point x="822" y="33" type="curve"/>
	  <point x="746" y="30" type="line" smooth="yes"/>
	  <point x="725" y="29"/>
	  <point x="708" y="29"/>
	  <point x="695" y="28" type="curve" smooth="yes"/>
	  <point x="680" y="27"/>
	  <point x="667" y="27"/>
	  <point x="658" y="27" type="curve" smooth="yes"/>
	  <point x="648" y="27"/>
	  <point x="634" y="27"/>
	  <point x="617" y="26" type="curve" smooth="yes"/>
	  <point x="602" y="25"/>
	  <point x="581" y="25"/>
	  <point x="556" y="24" type="curve" smooth="yes"/>
	  <point x="458" y="19" type="line"/>
	  <point x="477" y="40"/>
	  <point x="493" y="63"/>
	  <point x="504" y="80" type="curve" smooth="yes"/>
	  <point x="511" y="90"/>
	  <point x="516" y="100"/>
	  <point x="521" y="109" type="curve"/>
	  <point x="526" y="122"/>
	  <point x="529" y="145"/>
	  <point x="532" y="178" type="curve" smooth="yes"/>
	  <point x="535" y="207"/>
	  <point x="537" y="248"/>
	  <point x="538" y="302" type="curve" smooth="yes"/>
	  <point x="539" y="355"/>
	  <point x="539" y="427"/>
	  <point x="538" y="518" type="curve"/>
	  <point x="513" y="477"/>
	  <point x="494" y="434"/>
	  <point x="479" y="401" type="curve"/>
	  <point x="463" y="362"/>
	  <point x="451" y="328"/>
	  <point x="436" y="283" type="curve" smooth="yes"/>
	  <point x="429" y="264"/>
	  <point x="422" y="241"/>
	  <point x="413" y="214" type="curve" smooth="yes"/>
	  <point x="404" y="187"/>
	  <point x="393" y="158"/>
	  <point x="382" y="126" type="curve"/>
	  <point x="344" y="124" type="line"/>
	  <point x="333" y="177"/>
	  <point x="323" y="221"/>
	  <point x="312" y="252" type="curve" smooth="yes"/>
	  <point x="300" y="288"/>
	  <point x="288" y="312"/>
	  <point x="272" y="347" type="curve"/>
	  <point x="257" y="376"/>
	  <point x="237" y="417"/>
	  <point x="210" y="466" type="curve"/>
	  <point x="197" y="330"/>
	  <point x="195" y="249"/>
	  <point x="198" y="202" type="curve" smooth="yes"/>
	  <point x="199" y="174"/>
	  <point x="201" y="154"/>
	  <point x="204" y="141" type="curve"/>
	  <point x="212" y="118"/>
	  <point x="228" y="93"/>
	  <point x="254" y="61" type="curve" smooth="yes"/>
	  <point x="267" y="44"/>
	  <point x="283" y="26"/>
	  <point x="304" y="6" type="curve"/>
	  <point x="258" y="6" type="line" smooth="yes"/>
	  <point x="242" y="6"/>
	  <point x="227" y="6"/>
	  <point x="214" y="5" type="curve" smooth="yes"/>
	  <point x="198" y="4"/>
	  <point x="182" y="4"/>
	  <point x="167" y="4" type="curve"/>
	  <point x="111" y="1" type="line" smooth="yes"/>
	  <point x="92" y="0"/>
	  <point x="70" y="-2"/>
	  <point x="44" y="-3" type="curve" smooth="yes"/>
	  <point x="18" y="-4"/>
	  <point x="-12" y="-7"/>
	  <point x="-46" y="-10" type="curve"/>
	  <point x="-17" y="9"/>
	  <point x="1" y="27"/>
	  <point x="12" y="42" type="curve" smooth="yes"/>
	  <point x="25" y="59"/>
	  <point x="29" y="67"/>
	  <point x="33" y="103" type="curve" smooth="yes"/>
	  <point x="36" y="139"/>
	  <point x="40" y="192"/>
	  <point x="42" y="256" type="curve" smooth="yes"/>
	  <point x="44" y="320"/>
	  <point x="46" y="387"/>
	  <point x="47" y="451" type="curve" smooth="yes"/>
	  <point x="48" y="514"/>
	  <point x="49" y="566"/>
	  <point x="49" y="601" type="curve" smooth="yes"/>
	  <point x="49" y="636"/>
	  <point x="48" y="644"/>
	  <point x="40" y="664" type="curve" smooth="yes"/>
	  <point x="33" y="681"/>
	  <point x="19" y="701"/>
	  <point x="-5" y="717" type="curve"/>
	</contour>
  </outline>
</glyph>
<glyph name="N" format="1">
  <advance width="659"/>
  <unicode hex="004E"/>
  <outline>
    <contour>
      <point x="25" y="704"/>
      <point x="50" y="700"/>
      <point x="69" y="698" type="curve" smooth="yes"/>
      <point x="108" y="694"/>
      <point x="133" y="691"/>
      <point x="149" y="692" type="curve"/>
      <point x="179" y="692" type="line" smooth="yes"/>
      <point x="190" y="692"/>
      <point x="203" y="692"/>
      <point x="220" y="693" type="curve"/>
      <point x="281" y="693" type="line"/>
      <point x="309" y="628"/>
      <point x="333" y="572"/>
      <point x="349" y="533" type="curve" smooth="yes"/>
      <point x="358" y="510"/>
      <point x="367" y="489"/>
      <point x="375" y="470" type="curve" smooth="yes"/>
      <point x="394" y="423"/>
      <point x="417" y="363"/>
      <point x="435" y="314" type="curve" smooth="yes"/>
      <point x="457" y="253" type="line" smooth="yes"/>
      <point x="463" y="237"/>
      <point x="466" y="230"/>
      <point x="466" y="231" type="curve" smooth="yes"/>
      <point x="466" y="232"/>
      <point x="466" y="239"/>
      <point x="467" y="252" type="curve" smooth="yes"/>
      <point x="468" y="265"/>
      <point x="468" y="281"/>
      <point x="469" y="301" type="curve" smooth="yes"/>
      <point x="472" y="366" type="line" smooth="yes"/>
      <point x="474" y="413"/>
      <point x="474" y="459"/>
      <point x="474" y="496" type="curve" smooth="yes"/>
      <point x="474" y="533"/>
      <point x="472" y="548"/>
      <point x="460" y="577" type="curve" smooth="yes"/>
      <point x="449" y="602"/>
      <point x="432" y="638"/>
      <point x="399" y="683" type="curve"/>
      <point x="426" y="682"/>
      <point x="449" y="682"/>
      <point x="466" y="682" type="curve" smooth="yes"/>
      <point x="508" y="682" type="line" smooth="yes"/>
      <point x="532" y="682"/>
      <point x="543" y="682"/>
      <point x="568" y="685" type="curve" smooth="yes"/>
      <point x="579" y="686"/>
      <point x="594" y="688"/>
      <point x="611" y="689" type="curve" smooth="yes"/>
      <point x="628" y="690"/>
      <point x="649" y="691"/>
      <point x="674" y="693" type="curve"/>
      <point x="645" y="666"/>
      <point x="629" y="642"/>
      <point x="618" y="623" type="curve" smooth="yes"/>
      <point x="612" y="612"/>
      <point x="608" y="602"/>
      <point x="606" y="593" type="curve" smooth="yes"/>
      <point x="601" y="569"/>
      <point x="598" y="511"/>
      <point x="595" y="444" type="curve" smooth="yes"/>
      <point x="593" y="411"/>
      <point x="591" y="376"/>
      <point x="590" y="340" type="curve" smooth="yes"/>
      <point x="589" y="304"/>
      <point x="587" y="271"/>
      <point x="586" y="241" type="curve" smooth="yes"/>
      <point x="586" y="218"/>
      <point x="585" y="194"/>
      <point x="584" y="168" type="curve" smooth="yes"/>
      <point x="583" y="146"/>
      <point x="581" y="121"/>
      <point x="580" y="94" type="curve" smooth="yes"/>
      <point x="579" y="66"/>
      <point x="577" y="38"/>
      <point x="575" y="10" type="curve"/>
      <point x="486" y="8" type="line"/>
      <point x="434" y="100"/>
      <point x="400" y="165"/>
      <point x="377" y="208" type="curve" smooth="yes"/>
      <point x="345" y="270" type="line"/>
      <point x="330" y="302"/>
      <point x="309" y="338"/>
      <point x="279" y="389" type="curve" smooth="yes"/>
      <point x="264" y="414"/>
      <point x="246" y="443"/>
      <point x="225" y="476" type="curve"/>
      <point x="221" y="384"/>
      <point x="222" y="321"/>
      <point x="225" y="278" type="curve" smooth="yes"/>
      <point x="229" y="229"/>
      <point x="234" y="202"/>
      <point x="246" y="162" type="curve" smooth="yes"/>
      <point x="257" y="127"/>
      <point x="271" y="81"/>
      <point x="294" y="22" type="curve"/>
      <point x="255" y="24"/>
      <point x="225" y="25"/>
      <point x="206" y="25" type="curve" smooth="yes"/>
      <point x="176" y="25" type="line" smooth="yes"/>
      <point x="157" y="25"/>
      <point x="130" y="21"/>
      <point x="84" y="16" type="curve" smooth="yes"/>
      <point x="61" y="13"/>
      <point x="32" y="10"/>
      <point x="-2" y="5" type="curve"/>
      <point x="30" y="44"/>
      <point x="48" y="77"/>
      <point x="59" y="100" type="curve" smooth="yes"/>
      <point x="72" y="127"/>
      <point x="76" y="138"/>
      <point x="77" y="191" type="curve" smooth="yes"/>
      <point x="78" y="243"/>
      <point x="78" y="312"/>
      <point x="76" y="387" type="curve" smooth="yes"/>
      <point x="74" y="462"/>
      <point x="71" y="528"/>
      <point x="68" y="573" type="curve" smooth="yes"/>
      <point x="64" y="618"/>
      <point x="64" y="623"/>
      <point x="52" y="643" type="curve" smooth="yes"/>
      <point x="41" y="660"/>
      <point x="26" y="682"/>
      <point x="-5" y="709" type="curve"/>
    </contour>
  </outline>
</glyph>
<glyph name="P" format="1">
  <advance width="597"/>
  <unicode hex="0050"/>
  <outline>
	<contour>
	  <point x="15" y="704"/>
	  <point x="56" y="699"/>
	  <point x="84" y="696" type="curve" smooth="yes"/>
	  <point x="117" y="692"/>
	  <point x="140" y="693"/>
	  <point x="188" y="701" type="curve" smooth="yes"/>
	  <point x="236" y="709"/>
	  <point x="291" y="718"/>
	  <point x="343" y="723" type="curve" smooth="yes"/>
	  <point x="395" y="728"/>
	  <point x="429" y="725"/>
	  <point x="472" y="711" type="curve" smooth="yes"/>
	  <point x="515" y="697"/>
	  <point x="553" y="673"/>
	  <point x="581" y="640" type="curve" smooth="yes"/>
	  <point x="608" y="607"/>
	  <point x="615" y="562"/>
	  <point x="600" y="514" type="curve" smooth="yes"/>
	  <point x="585" y="465"/>
	  <point x="553" y="418"/>
	  <point x="505" y="379" type="curve" smooth="yes"/>
	  <point x="457" y="340"/>
	  <point x="404" y="321"/>
	  <point x="349" y="312" type="curve" smooth="yes"/>
	  <point x="302" y="304"/>
	  <point x="238" y="299"/>
	  <point x="169" y="314" type="curve"/>
	  <point x="160" y="275"/>
	  <point x="160" y="242"/>
	  <point x="163" y="217" type="curve" smooth="yes"/>
	  <point x="167" y="188"/>
	  <point x="174" y="167"/>
	  <point x="186" y="135" type="curve" smooth="yes"/>
	  <point x="191" y="122"/>
	  <point x="198" y="106"/>
	  <point x="205" y="87" type="curve" smooth="yes"/>
	  <point x="212" y="68"/>
	  <point x="220" y="46"/>
	  <point x="230" y="23" type="curve"/>
	  <point x="206" y="23"/>
	  <point x="183" y="22"/>
	  <point x="164" y="21" type="curve" smooth="yes"/>
	  <point x="143" y="20"/>
	  <point x="125" y="19"/>
	  <point x="98" y="15" type="curve" smooth="yes"/>
	  <point x="75" y="12"/>
	  <point x="41" y="7"/>
	  <point x="-2" y="-1" type="curve"/>
	  <point x="26" y="39"/>
	  <point x="42" y="74"/>
	  <point x="50" y="99" type="curve" smooth="yes"/>
	  <point x="59" y="128"/>
	  <point x="60" y="141"/>
	  <point x="60" y="192" type="curve" smooth="yes"/>
	  <point x="59" y="243"/>
	  <point x="58" y="312"/>
	  <point x="55" y="385" type="curve" smooth="yes"/>
	  <point x="52" y="458"/>
	  <point x="48" y="525"/>
	  <point x="44" y="572" type="curve" smooth="yes"/>
	  <point x="39" y="619"/>
	  <point x="36" y="626"/>
	  <point x="23" y="646" type="curve" smooth="yes"/>
	  <point x="12" y="663"/>
	  <point x="-7" y="687"/>
	  <point x="-36" y="716" type="curve"/>
	</contour>
	<contour>
	  <point x="171" y="519" type="line" smooth="yes"/>
	  <point x="170" y="512"/>
	  <point x="170" y="505"/>
	  <point x="170" y="498" type="curve" smooth="yes"/>
	  <point x="170" y="484"/>
	  <point x="171" y="466"/>
	  <point x="173" y="444" type="curve"/>
	  <point x="182" y="421"/>
	  <point x="197" y="407"/>
	  <point x="214" y="399" type="curve" smooth="yes"/>
	  <point x="230" y="391"/>
	  <point x="248" y="389"/>
	  <point x="265" y="389" type="curve" smooth="yes"/>
	  <point x="305" y="390"/>
	  <point x="366" y="410"/>
	  <point x="390" y="457" type="curve" smooth="yes"/>
	  <point x="414" y="504"/>
	  <point x="415" y="556"/>
	  <point x="397" y="597" type="curve" smooth="yes"/>
	  <point x="388" y="618"/>
	  <point x="377" y="632"/>
	  <point x="364" y="639" type="curve"/>
	  <point x="343" y="648"/>
	  <point x="312" y="647"/>
	  <point x="268" y="634" type="curve" smooth="yes"/>
	  <point x="246" y="627"/>
	  <point x="219" y="615"/>
	  <point x="187" y="598" type="curve"/>
	  <point x="180" y="574"/>
	  <point x="177" y="556"/>
	  <point x="174" y="541" type="curve" smooth="yes"/>
	</contour>
  </outline>
</glyph>
<glyph name="Q" format="1">
  <advance width="720"/>
  <unicode hex="0051"/>
  <outline>
	<contour>
	  <point x="239" y="701"/>
	  <point x="278" y="714"/>
	  <point x="318" y="722" type="curve" smooth="yes"/>
	  <point x="358" y="729"/>
	  <point x="400" y="731"/>
	  <point x="436" y="723" type="curve" smooth="yes"/>
	  <point x="541" y="700"/>
	  <point x="613" y="631"/>
	  <point x="653" y="546" type="curve" smooth="yes"/>
	  <point x="692" y="461"/>
	  <point x="699" y="358"/>
	  <point x="675" y="267" type="curve"/>
	  <point x="667" y="240"/>
	  <point x="650" y="210"/>
	  <point x="622" y="168" type="curve" smooth="yes"/>
	  <point x="608" y="147"/>
	  <point x="590" y="123"/>
	  <point x="567" y="98" type="curve"/>
	  <point x="578" y="74"/>
	  <point x="589" y="61"/>
	  <point x="600" y="54" type="curve" smooth="yes"/>
	  <point x="612" y="46"/>
	  <point x="621" y="45"/>
	  <point x="636" y="45" type="curve" smooth="yes"/>
	  <point x="648" y="45"/>
	  <point x="665" y="47"/>
	  <point x="685" y="52" type="curve"/>
	  <point x="529" y="-78" type="line"/>
	  <point x="527" y="-67"/>
	  <point x="525" y="-58"/>
	  <point x="523" y="-50" type="curve"/>
	  <point x="520" y="-43"/>
	  <point x="518" y="-36"/>
	  <point x="517" y="-31" type="curve"/>
	  <point x="511" y="-16" type="line"/>
	  <point x="506" y="-9"/>
	  <point x="501" y="0"/>
	  <point x="494" y="12" type="curve" smooth="yes"/>
	  <point x="491" y="18"/>
	  <point x="486" y="25"/>
	  <point x="481" y="32" type="curve"/>
	  <point x="397" y="0"/>
	  <point x="329" y="-8"/>
	  <point x="273" y="0" type="curve" smooth="yes"/>
	  <point x="217" y="7"/>
	  <point x="173" y="28"/>
	  <point x="140" y="53" type="curve" smooth="yes"/>
	  <point x="101" y="83"/>
	  <point x="71" y="122"/>
	  <point x="49" y="171" type="curve"/>
	  <point x="0" y="304"/>
	  <point x="10" y="416"/>
	  <point x="47" y="504" type="curve" smooth="yes"/>
	  <point x="84" y="591"/>
	  <point x="149" y="653"/>
	  <point x="210" y="685" type="curve" smooth="yes"/>
	</contour>
	<contour>
	  <point x="275" y="248"/>
	  <point x="303" y="259"/>
	  <point x="327" y="266" type="curve"/>
	  <point x="341" y="269"/>
	  <point x="355" y="270"/>
	  <point x="370" y="269" type="curve"/>
	  <point x="398" y="262"/>
	  <point x="423" y="248"/>
	  <point x="450" y="222" type="curve" smooth="yes"/>
	  <point x="463" y="209"/>
	  <point x="476" y="191"/>
	  <point x="487" y="169" type="curve"/>
	  <point x="508" y="201"/>
	  <point x="518" y="238"/>
	  <point x="523" y="266" type="curve" smooth="yes"/>
	  <point x="528" y="299"/>
	  <point x="527" y="338"/>
	  <point x="519" y="393" type="curve" smooth="yes"/>
	  <point x="511" y="448"/>
	  <point x="496" y="502"/>
	  <point x="473" y="550" type="curve" smooth="yes"/>
	  <point x="450" y="598"/>
	  <point x="419" y="634"/>
	  <point x="379" y="651" type="curve" smooth="yes"/>
	  <point x="338" y="668"/>
	  <point x="277" y="661"/>
	  <point x="242" y="624" type="curve" smooth="yes"/>
	  <point x="206" y="587"/>
	  <point x="187" y="535"/>
	  <point x="183" y="479" type="curve" smooth="yes"/>
	  <point x="178" y="422"/>
	  <point x="183" y="384"/>
	  <point x="195" y="343" type="curve" smooth="yes"/>
	  <point x="206" y="308"/>
	  <point x="221" y="261"/>
	  <point x="252" y="213" type="curve"/>
	</contour>
	<contour>
	  <point x="338" y="182"/>
	  <point x="323" y="181"/>
	  <point x="308" y="173" type="curve" smooth="yes"/>
	  <point x="301" y="169"/>
	  <point x="295" y="162"/>
	  <point x="292" y="151" type="curve"/>
	  <point x="309" y="134"/>
	  <point x="325" y="123"/>
	  <point x="336" y="116" type="curve" smooth="yes"/>
	  <point x="349" y="108"/>
	  <point x="363" y="102"/>
	  <point x="382" y="98" type="curve" smooth="yes"/>
	  <point x="398" y="95"/>
	  <point x="419" y="95"/>
	  <point x="436" y="104" type="curve"/>
	  <point x="423" y="132"/>
	  <point x="403" y="151"/>
	  <point x="387" y="162" type="curve" smooth="yes"/>
	  <point x="378" y="169"/>
	  <point x="368" y="174"/>
	  <point x="358" y="177" type="curve" smooth="yes"/>
	</contour>
  </outline>
</glyph>
<glyph name="R" format="1">
  <advance width="635"/>
  <unicode hex="0052"/>
  <outline>
	<contour>
	  <point x="7" y="723"/>
	  <point x="42" y="719"/>
	  <point x="67" y="716" type="curve" smooth="yes"/>
	  <point x="96" y="712"/>
	  <point x="113" y="705"/>
	  <point x="169" y="719" type="curve" smooth="yes"/>
	  <point x="225" y="733"/>
	  <point x="294" y="748"/>
	  <point x="365" y="750" type="curve" smooth="yes"/>
	  <point x="436" y="752"/>
	  <point x="497" y="716"/>
	  <point x="534" y="688" type="curve" smooth="yes"/>
	  <point x="571" y="660"/>
	  <point x="593" y="629"/>
	  <point x="602" y="594" type="curve" smooth="yes"/>
	  <point x="607" y="577"/>
	  <point x="609" y="558"/>
	  <point x="610" y="537" type="curve"/>
	  <point x="609" y="506"/>
	  <point x="602" y="477"/>
	  <point x="588" y="448" type="curve" smooth="yes"/>
	  <point x="576" y="424"/>
	  <point x="557" y="397"/>
	  <point x="529" y="373" type="curve" smooth="yes"/>
	  <point x="501" y="349"/>
	  <point x="464" y="327"/>
	  <point x="413" y="311" type="curve"/>
	  <point x="462" y="296"/>
	  <point x="494" y="274"/>
	  <point x="514" y="257" type="curve" smooth="yes"/>
	  <point x="538" y="236"/>
	  <point x="551" y="210"/>
	  <point x="556" y="190" type="curve" smooth="yes"/>
	  <point x="559" y="180"/>
	  <point x="561" y="171"/>
	  <point x="562" y="162" type="curve" smooth="yes"/>
	  <point x="564" y="144"/>
	  <point x="566" y="126"/>
	  <point x="579" y="102" type="curve" smooth="yes"/>
	  <point x="590" y="83"/>
	  <point x="604" y="65"/>
	  <point x="622" y="45" type="curve" smooth="yes"/>
	  <point x="631" y="35"/>
	  <point x="642" y="25"/>
	  <point x="655" y="16" type="curve"/>
	  <point x="636" y="15"/>
	  <point x="619" y="15"/>
	  <point x="604" y="15" type="curve" smooth="yes"/>
	  <point x="563" y="15" type="line" smooth="yes"/>
	  <point x="550" y="15"/>
	  <point x="537" y="15"/>
	  <point x="525" y="16" type="curve" smooth="yes"/>
	  <point x="513" y="17"/>
	  <point x="498" y="17"/>
	  <point x="480" y="17" type="curve" smooth="yes"/>
	  <point x="422" y="17" type="line" smooth="yes"/>
	  <point x="398" y="17"/>
	  <point x="369" y="17"/>
	  <point x="336" y="16" type="curve"/>
	  <point x="365" y="39"/>
	  <point x="383" y="62"/>
	  <point x="394" y="81" type="curve" smooth="yes"/>
	  <point x="406" y="102"/>
	  <point x="413" y="129"/>
	  <point x="408" y="168" type="curve" smooth="yes"/>
	  <point x="404" y="201"/>
	  <point x="389" y="244"/>
	  <point x="350" y="285" type="curve"/>
	  <point x="331" y="282"/>
	  <point x="315" y="279"/>
	  <point x="302" y="278" type="curve" smooth="yes"/>
	  <point x="289" y="276"/>
	  <point x="277" y="274"/>
	  <point x="268" y="273" type="curve" smooth="yes"/>
	  <point x="247" y="270"/>
	  <point x="237" y="269"/>
	  <point x="222" y="268" type="curve" smooth="yes"/>
	  <point x="210" y="267"/>
	  <point x="195" y="265"/>
	  <point x="183" y="262" type="curve"/>
	  <point x="180" y="205"/>
	  <point x="184" y="163"/>
	  <point x="188" y="135" type="curve" smooth="yes"/>
	  <point x="193" y="102"/>
	  <point x="199" y="80"/>
	  <point x="211" y="57" type="curve" smooth="yes"/>
	  <point x="220" y="38"/>
	  <point x="235" y="15"/>
	  <point x="254" y="2" type="curve"/>
	  <point x="205" y="2" type="line" smooth="yes"/>
	  <point x="173" y="2"/>
	  <point x="147" y="3"/>
	  <point x="120" y="4" type="curve" smooth="yes"/>
	  <point x="107" y="5"/>
	  <point x="92" y="5"/>
	  <point x="75" y="5" type="curve" smooth="yes"/>
	  <point x="26" y="5" type="line" smooth="yes"/>
	  <point x="7" y="5"/>
	  <point x="-14" y="5"/>
	  <point x="-36" y="4" type="curve"/>
	  <point x="-1" y="40"/>
	  <point x="17" y="65"/>
	  <point x="28" y="82" type="curve" smooth="yes"/>
	  <point x="34" y="91"/>
	  <point x="38" y="99"/>
	  <point x="39" y="106" type="curve" smooth="yes"/>
	  <point x="42" y="127"/>
	  <point x="44" y="187"/>
	  <point x="45" y="259" type="curve" smooth="yes"/>
	  <point x="46" y="295"/>
	  <point x="46" y="333"/>
	  <point x="46" y="372" type="curve" smooth="yes"/>
	  <point x="46" y="451"/>
	  <point x="44" y="522"/>
	  <point x="43" y="571" type="curve" smooth="yes"/>
	  <point x="42" y="620"/>
	  <point x="41" y="630"/>
	  <point x="28" y="654" type="curve" smooth="yes"/>
	  <point x="17" y="675"/>
	  <point x="-1" y="703"/>
	  <point x="-36" y="730" type="curve"/>
	</contour>
	<contour>
	  <point x="355" y="386"/>
	  <point x="364" y="392"/>
	  <point x="371" y="410" type="curve" smooth="yes"/>
	  <point x="374" y="419"/>
	  <point x="377" y="431"/>
	  <point x="380" y="448" type="curve"/>
	  <point x="384" y="481"/>
	  <point x="395" y="550"/>
	  <point x="383" y="587" type="curve" smooth="yes"/>
	  <point x="370" y="624"/>
	  <point x="348" y="646"/>
	  <point x="324" y="655" type="curve" smooth="yes"/>
	  <point x="311" y="659"/>
	  <point x="300" y="661"/>
	  <point x="291" y="661" type="curve" smooth="yes"/>
	  <point x="254" y="661"/>
	  <point x="214" y="637"/>
	  <point x="195" y="598" type="curve"/>
	  <point x="188" y="581"/>
	  <point x="183" y="544"/>
	  <point x="182" y="483" type="curve" smooth="yes"/>
	  <point x="181" y="452"/>
	  <point x="182" y="412"/>
	  <point x="185" y="362" type="curve"/>
	  <point x="236" y="354"/>
	  <point x="274" y="357"/>
	  <point x="301" y="364" type="curve"/>
	  <point x="317" y="367"/>
	  <point x="331" y="372"/>
	  <point x="342" y="378" type="curve" smooth="yes"/>
	</contour>
  </outline>
</glyph>
<glyph name="S" format="1">
  <advance width="643"/>
  <unicode hex="0053"/>
  <outline>
	<contour>
	  <point x="629" y="689"/>
	  <point x="615" y="658"/>
	  <point x="604" y="635" type="curve" smooth="yes"/>
	  <point x="592" y="610"/>
	  <point x="587" y="596"/>
	  <point x="576" y="571" type="curve" smooth="yes"/>
	  <point x="571" y="560"/>
	  <point x="564" y="545"/>
	  <point x="557" y="527" type="curve" smooth="yes"/>
	  <point x="527" y="456" type="line"/>
	  <point x="515" y="505"/>
	  <point x="497" y="542"/>
	  <point x="477" y="570" type="curve" smooth="yes"/>
	  <point x="457" y="598"/>
	  <point x="434" y="615"/>
	  <point x="413" y="627" type="curve" smooth="yes"/>
	  <point x="388" y="640"/>
	  <point x="362" y="648"/>
	  <point x="335" y="649" type="curve"/>
	  <point x="263" y="645"/>
	  <point x="225" y="623"/>
	  <point x="206" y="599" type="curve" smooth="yes"/>
	  <point x="187" y="574"/>
	  <point x="188" y="545"/>
	  <point x="196" y="528" type="curve" smooth="yes"/>
	  <point x="199" y="520"/>
	  <point x="211" y="511"/>
	  <point x="232" y="500" type="curve" smooth="yes"/>
	  <point x="252" y="489"/>
	  <point x="277" y="477"/>
	  <point x="306" y="464" type="curve" smooth="yes"/>
	  <point x="364" y="436"/>
	  <point x="435" y="402"/>
	  <point x="492" y="362" type="curve"/>
	  <point x="548" y="321"/>
	  <point x="592" y="273"/>
	  <point x="596" y="220" type="curve" smooth="yes"/>
	  <point x="600" y="152"/>
	  <point x="599" y="97"/>
	  <point x="567" y="58" type="curve" smooth="yes"/>
	  <point x="535" y="19"/>
	  <point x="472" y="-4"/>
	  <point x="353" y="-9" type="curve" smooth="yes"/>
	  <point x="230" y="-14"/>
	  <point x="155" y="7"/>
	  <point x="107" y="39" type="curve" smooth="yes"/>
	  <point x="58" y="71"/>
	  <point x="38" y="112"/>
	  <point x="27" y="148" type="curve" smooth="yes"/>
	  <point x="22" y="165"/>
	  <point x="18" y="181"/>
	  <point x="16" y="194" type="curve" smooth="yes"/>
	  <point x="12" y="220"/>
	  <point x="1" y="221"/>
	  <point x="-10" y="226" type="curve" smooth="yes"/>
	  <point x="-19" y="231"/>
	  <point x="-30" y="236"/>
	  <point x="-41" y="240" type="curve"/>
	  <point x="250" y="287" type="line"/>
	  <point x="217" y="260"/>
	  <point x="200" y="237"/>
	  <point x="191" y="220" type="curve" smooth="yes"/>
	  <point x="180" y="200"/>
	  <point x="174" y="185"/>
	  <point x="189" y="157" type="curve" smooth="yes"/>
	  <point x="204" y="129"/>
	  <point x="230" y="101"/>
	  <point x="265" y="84" type="curve" smooth="yes"/>
	  <point x="300" y="67"/>
	  <point x="347" y="71"/>
	  <point x="376" y="91" type="curve" smooth="yes"/>
	  <point x="405" y="110"/>
	  <point x="420" y="140"/>
	  <point x="423" y="175" type="curve" smooth="yes"/>
	  <point x="426" y="210"/>
	  <point x="417" y="245"/>
	  <point x="398" y="275" type="curve" smooth="yes"/>
	  <point x="379" y="305"/>
	  <point x="360" y="320"/>
	  <point x="313" y="335" type="curve" smooth="yes"/>
	  <point x="234" y="359" type="line" smooth="yes"/>
	  <point x="176" y="376"/>
	  <point x="111" y="398"/>
	  <point x="63" y="431" type="curve" smooth="yes"/>
	  <point x="14" y="464"/>
	  <point x="-19" y="508"/>
	  <point x="-12" y="572" type="curve" smooth="yes"/>
	  <point x="-7" y="627"/>
	  <point x="26" y="663"/>
	  <point x="72" y="685" type="curve" smooth="yes"/>
	  <point x="118" y="707"/>
	  <point x="176" y="717"/>
	  <point x="236" y="719" type="curve" smooth="yes"/>
	  <point x="295" y="721"/>
	  <point x="355" y="715"/>
	  <point x="402" y="710" type="curve" smooth="yes"/>
	  <point x="425" y="707"/>
	  <point x="445" y="705"/>
	  <point x="462" y="703" type="curve" smooth="yes"/>
	  <point x="494" y="698"/>
	  <point x="509" y="695"/>
	  <point x="544" y="699" type="curve" smooth="yes"/>
	  <point x="575" y="702"/>
	  <point x="613" y="711"/>
	  <point x="648" y="732" type="curve"/>
	</contour>
  </outline>
</glyph>
<glyph name="T" format="1">
  <advance width="539"/>
  <unicode hex="0054"/>
  <outline>
    <contour>
      <point x="-20" y="730" type="line"/>
      <point x="69" y="719"/>
      <point x="134" y="716"/>
      <point x="177" y="713" type="curve" smooth="yes"/>
      <point x="226" y="710"/>
      <point x="250" y="712"/>
      <point x="310" y="717" type="curve" smooth="yes"/>
      <point x="361" y="721"/>
      <point x="441" y="728"/>
      <point x="565" y="741" type="curve"/>
      <point x="566" y="726"/>
      <point x="566" y="711"/>
      <point x="567" y="697" type="curve"/>
      <point x="567" y="682"/>
      <point x="567" y="670"/>
      <point x="568" y="659" type="curve" smooth="yes"/>
      <point x="569" y="646"/>
      <point x="569" y="635"/>
      <point x="569" y="624" type="curve" smooth="yes"/>
      <point x="569" y="601"/>
      <point x="567" y="570"/>
      <point x="561" y="526" type="curve" smooth="yes"/>
      <point x="558" y="503"/>
      <point x="553" y="477"/>
      <point x="547" y="446" type="curve"/>
      <point x="528" y="518"/>
      <point x="511" y="560"/>
      <point x="496" y="587" type="curve" smooth="yes"/>
      <point x="488" y="602"/>
      <point x="480" y="614"/>
      <point x="472" y="622" type="curve"/>
      <point x="455" y="634"/>
      <point x="433" y="641"/>
      <point x="401" y="645" type="curve" smooth="yes"/>
      <point x="384" y="647"/>
      <point x="365" y="647"/>
      <point x="343" y="644" type="curve"/>
      <point x="336" y="468"/>
      <point x="334" y="363"/>
      <point x="333" y="302" type="curve" smooth="yes"/>
      <point x="332" y="229"/>
      <point x="330" y="200"/>
      <point x="343" y="156" type="curve" smooth="yes"/>
      <point x="354" y="119"/>
      <point x="376" y="76"/>
      <point x="421" y="45" type="curve"/>
      <point x="299" y="45" type="line" smooth="yes"/>
      <point x="288" y="45"/>
      <point x="274" y="44"/>
      <point x="257" y="43" type="curve" smooth="yes"/>
      <point x="243" y="42"/>
      <point x="225" y="40"/>
      <point x="204" y="39" type="curve" smooth="yes"/>
      <point x="182" y="38"/>
      <point x="157" y="35"/>
      <point x="128" y="32" type="curve"/>
      <point x="148" y="67"/>
      <point x="159" y="95"/>
      <point x="166" y="115" type="curve" smooth="yes"/>
      <point x="170" y="127"/>
      <point x="173" y="138"/>
      <point x="175" y="147" type="curve"/>
      <point x="176" y="160"/>
      <point x="177" y="187"/>
      <point x="180" y="228" type="curve"/>
      <point x="181" y="261"/>
      <point x="183" y="310"/>
      <point x="187" y="378" type="curve" smooth="yes"/>
      <point x="190" y="446"/>
      <point x="193" y="534"/>
      <point x="197" y="646" type="curve"/>
      <point x="173" y="653"/>
      <point x="151" y="643"/>
      <point x="135" y="632" type="curve" smooth="yes"/>
      <point x="116" y="619"/>
      <point x="100" y="600"/>
      <point x="79" y="564" type="curve" smooth="yes"/>
      <point x="60" y="533"/>
      <point x="37" y="484"/>
      <point x="6" y="411" type="curve"/>
      <point x="-1" y="488"/>
      <point x="-3" y="537"/>
      <point x="-4" y="565" type="curve" smooth="yes"/>
      <point x="-5" y="582"/>
      <point x="-5" y="594"/>
      <point x="-5" y="602" type="curve" smooth="yes"/>
      <point x="-5" y="617"/>
      <point x="-8" y="638"/>
      <point x="-12" y="671" type="curve" smooth="yes"/>
    </contour>
  </outline>
</glyph>
<glyph name="V" format="1">
  <advance width="490"/>
  <unicode hex="0056"/>
  <outline>
    <contour>
      <point x="-52" y="716"/>
      <point x="-18" y="715"/>
      <point x="7" y="715" type="curve" smooth="yes"/>
      <point x="44" y="715" type="line" smooth="yes"/>
      <point x="55" y="715"/>
      <point x="68" y="715"/>
      <point x="84" y="716" type="curve" smooth="yes"/>
      <point x="97" y="717"/>
      <point x="114" y="717"/>
      <point x="135" y="718" type="curve" smooth="yes"/>
      <point x="156" y="718"/>
      <point x="180" y="719"/>
      <point x="209" y="720" type="curve"/>
      <point x="182" y="701"/>
      <point x="167" y="683"/>
      <point x="158" y="670" type="curve" smooth="yes"/>
      <point x="153" y="662"/>
      <point x="149" y="655"/>
      <point x="147" y="648" type="curve" smooth="yes"/>
      <point x="138" y="613"/>
      <point x="141" y="550"/>
      <point x="150" y="482" type="curve" smooth="yes"/>
      <point x="159" y="413"/>
      <point x="174" y="338"/>
      <point x="188" y="281" type="curve" smooth="yes"/>
      <point x="195" y="252"/>
      <point x="201" y="229"/>
      <point x="207" y="211" type="curve"/>
      <point x="212" y="192"/>
      <point x="216" y="183"/>
      <point x="219" y="183" type="curve" smooth="yes"/>
      <point x="222" y="183"/>
      <point x="227" y="193"/>
      <point x="235" y="212" type="curve" smooth="yes"/>
      <point x="250" y="251"/>
      <point x="271" y="313"/>
      <point x="292" y="383" type="curve" smooth="yes"/>
      <point x="313" y="453"/>
      <point x="332" y="519"/>
      <point x="344" y="565" type="curve" smooth="yes"/>
      <point x="350" y="588"/>
      <point x="353" y="602"/>
      <point x="353" y="607" type="curve" smooth="yes"/>
      <point x="352" y="622"/>
      <point x="345" y="636"/>
      <point x="329" y="656" type="curve"/>
      <point x="320" y="665"/>
      <point x="309" y="676"/>
      <point x="294" y="689" type="curve"/>
      <point x="315" y="690"/>
      <point x="333" y="690"/>
      <point x="348" y="691" type="curve" smooth="yes"/>
      <point x="363" y="692"/>
      <point x="375" y="692"/>
      <point x="386" y="692" type="curve" smooth="yes"/>
      <point x="577" y="692" type="line"/>
      <point x="544" y="669"/>
      <point x="521" y="648"/>
      <point x="506" y="629" type="curve" smooth="yes"/>
      <point x="497" y="618"/>
      <point x="490" y="608"/>
      <point x="484" y="599" type="curve"/>
      <point x="471" y="571"/>
      <point x="445" y="492"/>
      <point x="428" y="435" type="curve" smooth="yes"/>
      <point x="411" y="378"/>
      <point x="386" y="298"/>
      <point x="357" y="194" type="curve" smooth="yes"/>
      <point x="307" y="15" type="line"/>
      <point x="168" y="-3" type="line"/>
      <point x="151" y="49"/>
      <point x="137" y="97"/>
      <point x="125" y="140" type="curve"/>
      <point x="92" y="250" type="line" smooth="yes"/>
      <point x="71" y="322"/>
      <point x="54" y="381"/>
      <point x="40" y="453" type="curve" smooth="yes"/>
      <point x="33" y="488"/>
      <point x="27" y="521"/>
      <point x="22" y="550" type="curve" smooth="yes"/>
      <point x="17" y="579"/>
      <point x="12" y="603"/>
      <point x="8" y="622" type="curve" smooth="yes"/>
      <point x="0" y="661"/>
      <point x="-7" y="658"/>
      <point x="-23" y="669" type="curve" smooth="yes"/>
      <point x="-38" y="678"/>
      <point x="-60" y="693"/>
      <point x="-97" y="718" type="curve"/>
    </contour>
  </outline>
</glyph>
<glyph name="W" format="1">
  <advance width="793"/>
  <unicode hex="0057"/>
  <outline>
	<contour>
	  <point x="-50" y="700"/>
	  <point x="-30" y="698"/>
	  <point x="-12" y="697" type="curve" smooth="yes"/>
	  <point x="5" y="696"/>
	  <point x="20" y="694"/>
	  <point x="33" y="693" type="curve" smooth="yes"/>
	  <point x="62" y="690"/>
	  <point x="81" y="690"/>
	  <point x="118" y="691" type="curve" smooth="yes"/>
	  <point x="150" y="692"/>
	  <point x="198" y="694"/>
	  <point x="270" y="701" type="curve"/>
	  <point x="235" y="681"/>
	  <point x="214" y="660"/>
	  <point x="202" y="644" type="curve" smooth="yes"/>
	  <point x="195" y="635"/>
	  <point x="189" y="625"/>
	  <point x="186" y="616" type="curve"/>
	  <point x="182" y="591"/>
	  <point x="189" y="530"/>
	  <point x="195" y="486" type="curve" smooth="yes"/>
	  <point x="201" y="441"/>
	  <point x="210" y="381"/>
	  <point x="226" y="302" type="curve"/>
	  <point x="233" y="263"/>
	  <point x="242" y="218"/>
	  <point x="252" y="168" type="curve"/>
	  <point x="279" y="244"/>
	  <point x="295" y="303"/>
	  <point x="307" y="346" type="curve" smooth="yes"/>
	  <point x="320" y="394"/>
	  <point x="328" y="424"/>
	  <point x="341" y="485" type="curve" smooth="yes"/>
	  <point x="346" y="511"/>
	  <point x="353" y="545"/>
	  <point x="362" y="586" type="curve" smooth="yes"/>
	  <point x="371" y="627"/>
	  <point x="381" y="678"/>
	  <point x="394" y="739" type="curve"/>
	  <point x="430" y="734" type="line"/>
	  <point x="437" y="639"/>
	  <point x="445" y="568"/>
	  <point x="450" y="517" type="curve" smooth="yes"/>
	  <point x="455" y="458"/>
	  <point x="459" y="425"/>
	  <point x="470" y="374" type="curve" smooth="yes"/>
	  <point x="479" y="331"/>
	  <point x="493" y="268"/>
	  <point x="517" y="191" type="curve"/>
	  <point x="529" y="238"/>
	  <point x="540" y="281"/>
	  <point x="550" y="318" type="curve" smooth="yes"/>
	  <point x="569" y="393"/>
	  <point x="583" y="450"/>
	  <point x="593" y="491" type="curve" smooth="yes"/>
	  <point x="603" y="532"/>
	  <point x="615" y="587"/>
	  <point x="618" y="610" type="curve"/>
	  <point x="617" y="635"/>
	  <point x="607" y="657"/>
	  <point x="587" y="682" type="curve" smooth="yes"/>
	  <point x="577" y="695"/>
	  <point x="562" y="707"/>
	  <point x="543" y="719" type="curve"/>
	  <point x="624" y="716"/>
	  <point x="673" y="716"/>
	  <point x="704" y="716" type="curve" smooth="yes"/>
	  <point x="780" y="716" type="line" smooth="yes"/>
	  <point x="807" y="716"/>
	  <point x="848" y="716"/>
	  <point x="916" y="719" type="curve"/>
	  <point x="857" y="688"/>
	  <point x="823" y="662"/>
	  <point x="803" y="645" type="curve" smooth="yes"/>
	  <point x="791" y="634"/>
	  <point x="782" y="625"/>
	  <point x="777" y="618" type="curve"/>
	  <point x="766" y="591"/>
	  <point x="746" y="513"/>
	  <point x="733" y="454" type="curve" smooth="yes"/>
	  <point x="720" y="394"/>
	  <point x="702" y="313"/>
	  <point x="679" y="203" type="curve" smooth="yes"/>
	  <point x="641" y="14" type="line"/>
	  <point x="468" y="32" type="line"/>
	  <point x="394" y="343" type="line"/>
	  <point x="371" y="230"/>
	  <point x="359" y="163"/>
	  <point x="352" y="124" type="curve" smooth="yes"/>
	  <point x="348" y="101"/>
	  <point x="346" y="84"/>
	  <point x="345" y="73" type="curve" smooth="yes"/>
	  <point x="344" y="54"/>
	  <point x="343" y="39"/>
	  <point x="341" y="22" type="curve" smooth="yes"/>
	  <point x="340" y="13"/>
	  <point x="338" y="5"/>
	  <point x="337" y="-2" type="curve"/>
	  <point x="160" y="-2" type="line"/>
	  <point x="125" y="150"/>
	  <point x="98" y="265"/>
	  <point x="77" y="353" type="curve" smooth="yes"/>
	  <point x="56" y="441"/>
	  <point x="41" y="501"/>
	  <point x="29" y="542" type="curve" smooth="yes"/>
	  <point x="16" y="590"/>
	  <point x="6" y="620"/>
	  <point x="0" y="631" type="curve"/>
	  <point x="-5" y="636"/>
	  <point x="-11" y="643"/>
	  <point x="-18" y="650" type="curve" smooth="yes"/>
	  <point x="-40" y="673" type="line" smooth="yes"/>
	  <point x="-49" y="682"/>
	  <point x="-60" y="692"/>
	  <point x="-72" y="703" type="curve"/>
	</contour>
  </outline>
</glyph>
<glyph name="X" format="1">
  <advance width="585"/>
  <unicode hex="0058"/>
  <outline>
	<contour>
	  <point x="-12" y="676" type="line" smooth="yes"/>
	  <point x="29" y="675"/>
	  <point x="58" y="673"/>
	  <point x="78" y="672" type="curve" smooth="yes"/>
	  <point x="89" y="671"/>
	  <point x="102" y="671"/>
	  <point x="118" y="671" type="curve" smooth="yes"/>
	  <point x="145" y="671"/>
	  <point x="184" y="673"/>
	  <point x="234" y="677" type="curve"/>
	  <point x="213" y="666"/>
	  <point x="202" y="653"/>
	  <point x="195" y="641" type="curve" smooth="yes"/>
	  <point x="187" y="626"/>
	  <point x="180" y="616"/>
	  <point x="195" y="583" type="curve"/>
	  <point x="200" y="569"/>
	  <point x="210" y="550"/>
	  <point x="224" y="526" type="curve" smooth="yes"/>
	  <point x="238" y="502"/>
	  <point x="259" y="471"/>
	  <point x="286" y="433" type="curve"/>
	  <point x="319" y="481"/>
	  <point x="344" y="519"/>
	  <point x="362" y="546" type="curve" smooth="yes"/>
	  <point x="380" y="573"/>
	  <point x="393" y="594"/>
	  <point x="402" y="608" type="curve" smooth="yes"/>
	  <point x="412" y="625"/>
	  <point x="418" y="636"/>
	  <point x="420" y="641" type="curve"/>
	  <point x="419" y="648"/>
	  <point x="411" y="659"/>
	  <point x="393" y="675" type="curve" smooth="yes"/>
	  <point x="384" y="682"/>
	  <point x="370" y="692"/>
	  <point x="353" y="703" type="curve"/>
	  <point x="408" y="695"/>
	  <point x="443" y="691"/>
	  <point x="466" y="690" type="curve" smooth="yes"/>
	  <point x="479" y="689"/>
	  <point x="490" y="689"/>
	  <point x="499" y="690" type="curve" smooth="yes"/>
	  <point x="516" y="691"/>
	  <point x="546" y="693"/>
	  <point x="594" y="694" type="curve" smooth="yes"/>
	  <point x="685" y="697" type="line"/>
	  <point x="656" y="682"/>
	  <point x="635" y="669"/>
	  <point x="620" y="658" type="curve" smooth="yes"/>
	  <point x="597" y="641" type="line"/>
	  <point x="589" y="633"/>
	  <point x="574" y="617"/>
	  <point x="553" y="592" type="curve" smooth="yes"/>
	  <point x="535" y="571"/>
	  <point x="509" y="540"/>
	  <point x="476" y="499" type="curve" smooth="yes"/>
	  <point x="342" y="332" type="line"/>
	  <point x="433" y="236"/>
	  <point x="486" y="183"/>
	  <point x="518" y="154" type="curve" smooth="yes"/>
	  <point x="555" y="119"/>
	  <point x="564" y="116"/>
	  <point x="592" y="101" type="curve" smooth="yes"/>
	  <point x="616" y="88"/>
	  <point x="653" y="69"/>
	  <point x="713" y="42" type="curve"/>
	  <point x="546" y="42" type="line" smooth="yes"/>
	  <point x="532" y="42"/>
	  <point x="515" y="41"/>
	  <point x="495" y="40" type="curve" smooth="yes"/>
	  <point x="478" y="39"/>
	  <point x="456" y="37"/>
	  <point x="431" y="36" type="curve" smooth="yes"/>
	  <point x="406" y="35"/>
	  <point x="376" y="32"/>
	  <point x="342" y="29" type="curve"/>
	  <point x="366" y="44"/>
	  <point x="376" y="58"/>
	  <point x="380" y="69" type="curve" smooth="yes"/>
	  <point x="383" y="75"/>
	  <point x="383" y="80"/>
	  <point x="381" y="85" type="curve" smooth="yes"/>
	  <point x="374" y="98"/>
	  <point x="360" y="122"/>
	  <point x="333" y="163" type="curve" smooth="yes"/>
	  <point x="320" y="184"/>
	  <point x="301" y="211"/>
	  <point x="278" y="245" type="curve"/>
	  <point x="225" y="188"/>
	  <point x="199" y="151"/>
	  <point x="184" y="128" type="curve" smooth="yes"/>
	  <point x="176" y="115"/>
	  <point x="171" y="104"/>
	  <point x="168" y="96" type="curve"/>
	  <point x="168" y="81"/>
	  <point x="174" y="68"/>
	  <point x="190" y="52" type="curve" smooth="yes"/>
	  <point x="197" y="44"/>
	  <point x="209" y="36"/>
	  <point x="224" y="29" type="curve"/>
	  <point x="-72" y="16" type="line"/>
	  <point x="-24" y="49"/>
	  <point x="7" y="77"/>
	  <point x="27" y="96" type="curve" smooth="yes"/>
	  <point x="38" y="107"/>
	  <point x="47" y="117"/>
	  <point x="54" y="126" type="curve" smooth="yes"/>
	  <point x="67" y="146"/>
	  <point x="92" y="181"/>
	  <point x="133" y="237" type="curve" smooth="yes"/>
	  <point x="211" y="345" type="line"/>
	  <point x="140" y="458"/>
	  <point x="100" y="521"/>
	  <point x="73" y="557" type="curve" smooth="yes"/>
	  <point x="42" y="598"/>
	  <point x="35" y="605"/>
	  <point x="11" y="620" type="curve" smooth="yes"/>
	  <point x="-9" y="633"/>
	  <point x="-40" y="652"/>
	  <point x="-87" y="679" type="curve"/>
	</contour>
  </outline>
</glyph>
<glyph name="Y" format="1">
  <advance width="547"/>
  <unicode hex="0059"/>
  <outline>
	<contour>
	  <point x="-114" y="707"/>
	  <point x="-89" y="705"/>
	  <point x="-67" y="704" type="curve" smooth="yes"/>
	  <point x="-45" y="703"/>
	  <point x="-27" y="701"/>
	  <point x="-12" y="700" type="curve" smooth="yes"/>
	  <point x="23" y="697"/>
	  <point x="41" y="696"/>
	  <point x="76" y="696" type="curve"/>
	  <point x="91" y="695"/>
	  <point x="109" y="695"/>
	  <point x="131" y="695" type="curve" smooth="yes"/>
	  <point x="209" y="695" type="line"/>
	  <point x="170" y="676"/>
	  <point x="152" y="660"/>
	  <point x="141" y="648" type="curve" smooth="yes"/>
	  <point x="128" y="633"/>
	  <point x="126" y="626"/>
	  <point x="133" y="601" type="curve" smooth="yes"/>
	  <point x="140" y="576"/>
	  <point x="152" y="544"/>
	  <point x="169" y="509" type="curve" smooth="yes"/>
	  <point x="186" y="474"/>
	  <point x="206" y="446"/>
	  <point x="226" y="429" type="curve" smooth="yes"/>
	  <point x="246" y="412"/>
	  <point x="262" y="414"/>
	  <point x="289" y="431" type="curve" smooth="yes"/>
	  <point x="316" y="447"/>
	  <point x="345" y="474"/>
	  <point x="373" y="503" type="curve" smooth="yes"/>
	  <point x="401" y="532"/>
	  <point x="424" y="561"/>
	  <point x="438" y="585" type="curve" smooth="yes"/>
	  <point x="452" y="608"/>
	  <point x="449" y="616"/>
	  <point x="440" y="633" type="curve" smooth="yes"/>
	  <point x="432" y="648"/>
	  <point x="414" y="668"/>
	  <point x="381" y="695" type="curve"/>
	  <point x="436" y="693"/>
	  <point x="476" y="692"/>
	  <point x="501" y="692" type="curve" smooth="yes"/>
	  <point x="580" y="692" type="line" smooth="yes"/>
	  <point x="611" y="692"/>
	  <point x="660" y="692"/>
	  <point x="736" y="695" type="curve"/>
	  <point x="710" y="678"/>
	  <point x="688" y="662"/>
	  <point x="669" y="649" type="curve" smooth="yes"/>
	  <point x="631" y="621"/>
	  <point x="602" y="601"/>
	  <point x="582" y="584" type="curve" smooth="yes"/>
	  <point x="559" y="565"/>
	  <point x="523" y="529"/>
	  <point x="466" y="471" type="curve" smooth="yes"/>
	  <point x="437" y="442"/>
	  <point x="401" y="404"/>
	  <point x="358" y="358" type="curve"/>
	  <point x="346" y="261"/>
	  <point x="344" y="204"/>
	  <point x="344" y="169" type="curve" smooth="yes"/>
	  <point x="344" y="129"/>
	  <point x="349" y="117"/>
	  <point x="365" y="96" type="curve" smooth="yes"/>
	  <point x="378" y="77"/>
	  <point x="402" y="52"/>
	  <point x="443" y="21" type="curve"/>
	  <point x="399" y="32"/>
	  <point x="360" y="36"/>
	  <point x="331" y="39" type="curve" smooth="yes"/>
	  <point x="314" y="41"/>
	  <point x="298" y="42"/>
	  <point x="284" y="42" type="curve" smooth="yes"/>
	  <point x="255" y="42"/>
	  <point x="218" y="39"/>
	  <point x="170" y="35" type="curve" smooth="yes"/>
	  <point x="146" y="33"/>
	  <point x="118" y="30"/>
	  <point x="86" y="26" type="curve"/>
	  <point x="119" y="49"/>
	  <point x="140" y="72"/>
	  <point x="152" y="91" type="curve" smooth="yes"/>
	  <point x="167" y="112"/>
	  <point x="171" y="127"/>
	  <point x="174" y="167" type="curve" smooth="yes"/>
	  <point x="177" y="202"/>
	  <point x="175" y="257"/>
	  <point x="168" y="345" type="curve"/>
	  <point x="128" y="409"/>
	  <point x="95" y="460"/>
	  <point x="70" y="497" type="curve" smooth="yes"/>
	  <point x="45" y="534"/>
	  <point x="25" y="562"/>
	  <point x="11" y="581" type="curve" smooth="yes"/>
	  <point x="-22" y="625"/>
	  <point x="-29" y="629"/>
	  <point x="-52" y="645" type="curve" smooth="yes"/>
	  <point x="-88" y="672" type="line"/>
	  <point x="-103" y="682"/>
	  <point x="-122" y="695"/>
	  <point x="-143" y="710" type="curve"/>
	</contour>
  </outline>
</glyph>
<glyph name="bracketleft" format="1">
  <advance width="263"/>
  <unicode hex="005B"/>
  <outline>
	<contour>
	  <point x="235" y="-3" type="line"/>
	  <point x="228" y="-126" type="line"/>
	  <point x="205" y="-129"/>
	  <point x="188" y="-126"/>
	  <point x="175" y="-125" type="curve" smooth="yes"/>
	  <point x="160" y="-124"/>
	  <point x="150" y="-121"/>
	  <point x="135" y="-117" type="curve" smooth="yes"/>
	  <point x="122" y="-114"/>
	  <point x="105" y="-109"/>
	  <point x="82" y="-101" type="curve"/>
	  <point x="79" y="52"/>
	  <point x="77" y="168"/>
	  <point x="76" y="247" type="curve" smooth="yes"/>
	  <point x="75" y="293"/>
	  <point x="75" y="332"/>
	  <point x="74" y="365" type="curve" smooth="yes"/>
	  <point x="74" y="398"/>
	  <point x="74" y="438"/>
	  <point x="73" y="485" type="curve" smooth="yes"/>
	  <point x="72" y="565"/>
	  <point x="71" y="685"/>
	  <point x="72" y="846" type="curve"/>
	  <point x="91" y="853"/>
	  <point x="110" y="859"/>
	  <point x="125" y="862" type="curve" smooth="yes"/>
	  <point x="133" y="864"/>
	  <point x="141" y="865"/>
	  <point x="149" y="866" type="curve" smooth="yes"/>
	  <point x="174" y="869" type="line"/>
	  <point x="190" y="872"/>
	  <point x="212" y="874"/>
	  <point x="239" y="877" type="curve"/>
	  <point x="253" y="747" type="line"/>
	  <point x="155" y="750" type="line"/>
	  <point x="153" y="693"/>
	  <point x="152" y="641"/>
	  <point x="151" y="594" type="curve" smooth="yes"/>
	  <point x="150" y="547"/>
	  <point x="150" y="507"/>
	  <point x="149" y="473" type="curve" smooth="yes"/>
	  <point x="148" y="393"/>
	  <point x="148" y="339"/>
	  <point x="151" y="260" type="curve" smooth="yes"/>
	  <point x="152" y="226"/>
	  <point x="154" y="186"/>
	  <point x="155" y="140" type="curve" smooth="yes"/>
	  <point x="156" y="94"/>
	  <point x="159" y="43"/>
	  <point x="162" y="-13" type="curve"/>
	</contour>
  </outline>
</glyph>
<glyph name="bracketright" format="1">
  <advance width="289"/>
  <unicode hex="005D"/>
  <outline>
	<contour>
	  <point x="42" y="752" type="line"/>
	  <point x="51" y="874" type="line"/>
	  <point x="72" y="875"/>
	  <point x="91" y="874"/>
	  <point x="104" y="873" type="curve" smooth="yes"/>
	  <point x="119" y="872"/>
	  <point x="129" y="869"/>
	  <point x="144" y="864" type="curve" smooth="yes"/>
	  <point x="157" y="860"/>
	  <point x="174" y="855"/>
	  <point x="197" y="847" type="curve"/>
	  <point x="197" y="381" type="line" smooth="yes"/>
	  <point x="197" y="348"/>
	  <point x="197" y="308"/>
	  <point x="196" y="261" type="curve" smooth="yes"/>
	  <point x="195" y="182"/>
	  <point x="193" y="62"/>
	  <point x="190" y="-100" type="curve"/>
	  <point x="170" y="-107"/>
	  <point x="151" y="-112"/>
	  <point x="136" y="-115" type="curve" smooth="yes"/>
	  <point x="127" y="-117"/>
	  <point x="119" y="-118"/>
	  <point x="112" y="-119" type="curve" smooth="yes"/>
	  <point x="86" y="-122" type="line" smooth="yes"/>
	  <point x="78" y="-123"/>
	  <point x="69" y="-124"/>
	  <point x="58" y="-125" type="curve" smooth="yes"/>
	  <point x="22" y="-128" type="line"/>
	  <point x="10" y="2" type="line"/>
	  <point x="108" y="-3" type="line"/>
	  <point x="111" y="54"/>
	  <point x="113" y="106"/>
	  <point x="115" y="153" type="curve" smooth="yes"/>
	  <point x="116" y="200"/>
	  <point x="118" y="240"/>
	  <point x="119" y="274" type="curve" smooth="yes"/>
	  <point x="122" y="354"/>
	  <point x="123" y="408"/>
	  <point x="122" y="487" type="curve" smooth="yes"/>
	  <point x="121" y="555"/>
	  <point x="119" y="648"/>
	  <point x="115" y="761" type="curve"/>
	</contour>
  </outline>
</glyph>
<glyph name="asciicircum" format="1">
  <advance width="578"/>
  <unicode hex="005E"/>
  <outline>
    <contour>
      <point x="10" y="400" type="line"/>
      <point x="62" y="469"/>
      <point x="98" y="515"/>
      <point x="121" y="543" type="curve" smooth="yes"/>
      <point x="134" y="560"/>
      <point x="146" y="573"/>
      <point x="155" y="582" type="curve"/>
      <point x="171" y="601"/>
      <point x="191" y="627"/>
      <point x="217" y="667" type="curve" smooth="yes"/>
      <point x="230" y="686"/>
      <point x="244" y="710"/>
      <point x="260" y="739" type="curve"/>
      <point x="341" y="739" type="line"/>
      <point x="373" y="671"/>
      <point x="397" y="627"/>
      <point x="413" y="599" type="curve" smooth="yes"/>
      <point x="432" y="566"/>
      <point x="441" y="554"/>
      <point x="465" y="523" type="curve" smooth="yes"/>
      <point x="485" y="496"/>
      <point x="517" y="455"/>
      <point x="568" y="394" type="curve"/>
      <point x="444" y="394" type="line"/>
      <point x="429" y="415"/>
      <point x="418" y="434"/>
      <point x="409" y="450" type="curve" smooth="yes"/>
      <point x="392" y="481"/>
      <point x="380" y="501"/>
      <point x="375" y="514" type="curve" smooth="yes"/>
      <point x="370" y="527"/>
      <point x="360" y="549"/>
      <point x="344" y="581" type="curve"/>
      <point x="335" y="596"/>
      <point x="324" y="616"/>
      <point x="311" y="639" type="curve"/>
      <point x="276" y="599"/>
      <point x="256" y="573"/>
      <point x="243" y="556" type="curve" smooth="yes"/>
      <point x="236" y="546"/>
      <point x="230" y="538"/>
      <point x="226" y="533" type="curve"/>
      <point x="223" y="527"/>
      <point x="217" y="518"/>
      <point x="210" y="507" type="curve" smooth="yes"/>
      <point x="198" y="488"/>
      <point x="179" y="456"/>
      <point x="150" y="405" type="curve"/>
    </contour>
  </outline>
</glyph>
<glyph name="grave" format="1">
  <advance width="732"/>
  <unicode hex="0060"/>
  <outline>
	<contour>
	  <point x="437" y="664" type="line"/>
	  <point x="390" y="636" type="line"/>
	  <point x="295" y="762" type="line"/>
	  <point x="366" y="801" type="line"/>
	</contour>
  </outline>
</glyph>
<glyph name="a" format="1">
  <advance width="550"/>
  <unicode hex="0061"/>
  <outline>
	<contour>
	  <point x="93" y="409"/>
	  <point x="96" y="417"/>
	  <point x="97" y="428" type="curve" smooth="yes"/>
	  <point x="99" y="450"/>
	  <point x="106" y="478"/>
	  <point x="127" y="509" type="curve" smooth="yes"/>
	  <point x="148" y="540"/>
	  <point x="203" y="571"/>
	  <point x="247" y="576" type="curve" smooth="yes"/>
	  <point x="291" y="581"/>
	  <point x="331" y="571"/>
	  <point x="367" y="551" type="curve" smooth="yes"/>
	  <point x="402" y="531"/>
	  <point x="427" y="514"/>
	  <point x="439" y="484" type="curve" smooth="yes"/>
	  <point x="451" y="454"/>
	  <point x="457" y="415"/>
	  <point x="461" y="375" type="curve"/>
	  <point x="464" y="334"/>
	  <point x="465" y="295"/>
	  <point x="466" y="264" type="curve"/>
	  <point x="466" y="232"/>
	  <point x="470" y="208"/>
	  <point x="483" y="188" type="curve" smooth="yes"/>
	  <point x="496" y="167"/>
	  <point x="513" y="153"/>
	  <point x="529" y="145" type="curve" smooth="yes"/>
	  <point x="537" y="141"/>
	  <point x="544" y="138"/>
	  <point x="550" y="136" type="curve" smooth="yes"/>
	  <point x="558" y="132"/>
	  <point x="570" y="127"/>
	  <point x="575" y="132" type="curve"/>
	  <point x="564" y="108" type="line" smooth="yes"/>
	  <point x="561" y="101"/>
	  <point x="558" y="96"/>
	  <point x="556" y="91" type="curve" smooth="yes"/>
	  <point x="551" y="80"/>
	  <point x="547" y="74"/>
	  <point x="542" y="67" type="curve" smooth="yes"/>
	  <point x="534" y="56" type="line" smooth="yes"/>
	  <point x="531" y="52"/>
	  <point x="527" y="48"/>
	  <point x="524" y="43" type="curve"/>
	  <point x="507" y="50"/>
	  <point x="491" y="60"/>
	  <point x="479" y="68" type="curve" smooth="yes"/>
	  <point x="464" y="77"/>
	  <point x="453" y="86"/>
	  <point x="442" y="98" type="curve" smooth="yes"/>
	  <point x="433" y="109"/>
	  <point x="422" y="120"/>
	  <point x="415" y="135" type="curve"/>
	  <point x="407" y="118"/>
	  <point x="376" y="81"/>
	  <point x="328" y="55" type="curve" smooth="yes"/>
	  <point x="280" y="29"/>
	  <point x="216" y="13"/>
	  <point x="140" y="38" type="curve" smooth="yes"/>
	  <point x="107" y="49"/>
	  <point x="76" y="70"/>
	  <point x="56" y="99" type="curve" smooth="yes"/>
	  <point x="35" y="128"/>
	  <point x="25" y="166"/>
	  <point x="34" y="213" type="curve" smooth="yes"/>
	  <point x="43" y="260"/>
	  <point x="69" y="291"/>
	  <point x="102" y="311" type="curve" smooth="yes"/>
	  <point x="135" y="331"/>
	  <point x="178" y="341"/>
	  <point x="222" y="345" type="curve"/>
	  <point x="257" y="346"/>
	  <point x="288" y="342"/>
	  <point x="320" y="328" type="curve" smooth="yes"/>
	  <point x="336" y="321"/>
	  <point x="350" y="310"/>
	  <point x="361" y="296" type="curve"/>
	  <point x="358" y="381" type="line"/>
	  <point x="354" y="423"/>
	  <point x="350" y="446"/>
	  <point x="346" y="457" type="curve"/>
	  <point x="343" y="462"/>
	  <point x="339" y="467"/>
	  <point x="336" y="473" type="curve" smooth="yes"/>
	  <point x="328" y="485"/>
	  <point x="318" y="495"/>
	  <point x="302" y="502" type="curve" smooth="yes"/>
	  <point x="286" y="509"/>
	  <point x="260" y="508"/>
	  <point x="247" y="497" type="curve" smooth="yes"/>
	  <point x="234" y="486"/>
	  <point x="226" y="472"/>
	  <point x="225" y="456" type="curve" smooth="yes"/>
	  <point x="224" y="440"/>
	  <point x="227" y="431"/>
	  <point x="232" y="422" type="curve" smooth="yes"/>
	  <point x="237" y="414"/>
	  <point x="246" y="404"/>
	  <point x="262" y="397" type="curve"/>
	  <point x="247" y="395"/>
	  <point x="233" y="394"/>
	  <point x="221" y="393" type="curve" smooth="yes"/>
	  <point x="209" y="392"/>
	  <point x="199" y="390"/>
	  <point x="190" y="389" type="curve" smooth="yes"/>
	  <point x="164" y="386" type="line" smooth="yes"/>
	  <point x="157" y="385"/>
	  <point x="148" y="384"/>
	  <point x="138" y="382" type="curve" smooth="yes"/>
	  <point x="121" y="379"/>
	  <point x="95" y="376"/>
	  <point x="62" y="369" type="curve"/>
	  <point x="66" y="374"/>
	  <point x="70" y="378"/>
	  <point x="73" y="383" type="curve" smooth="yes"/>
	  <point x="76" y="387"/>
	  <point x="79" y="391"/>
	  <point x="82" y="394" type="curve" smooth="yes"/>
	  <point x="85" y="398"/>
	  <point x="87" y="402"/>
	  <point x="90" y="405" type="curve" smooth="yes"/>
	</contour>
	<contour>
	  <point x="216" y="285"/>
	  <point x="191" y="275"/>
	  <point x="172" y="257" type="curve" smooth="yes"/>
	  <point x="153" y="239"/>
	  <point x="139" y="215"/>
	  <point x="139" y="187" type="curve" smooth="yes"/>
	  <point x="139" y="159"/>
	  <point x="154" y="138"/>
	  <point x="178" y="125" type="curve" smooth="yes"/>
	  <point x="201" y="112"/>
	  <point x="229" y="109"/>
	  <point x="256" y="117" type="curve"/>
	  <point x="281" y="126"/>
	  <point x="305" y="149"/>
	  <point x="321" y="174" type="curve" smooth="yes"/>
	  <point x="337" y="198"/>
	  <point x="344" y="225"/>
	  <point x="339" y="241" type="curve" smooth="yes"/>
	  <point x="328" y="276"/>
	  <point x="287" y="289"/>
	  <point x="240" y="286" type="curve" smooth="yes"/>
	</contour>
  </outline>
</glyph>
<glyph name="b" format="1">
  <advance width="596"/>
  <unicode hex="0062"/>
  <outline>
    <contour>
      <point x="46" y="694"/>
      <point x="72" y="691"/>
      <point x="91" y="690" type="curve" smooth="yes"/>
      <point x="102" y="689"/>
      <point x="113" y="689"/>
      <point x="122" y="689" type="curve" smooth="yes"/>
      <point x="131" y="689"/>
      <point x="143" y="690"/>
      <point x="157" y="691" type="curve" smooth="yes"/>
      <point x="182" y="693"/>
      <point x="217" y="698"/>
      <point x="262" y="706" type="curve"/>
      <point x="247" y="695"/>
      <point x="234" y="685"/>
      <point x="225" y="676" type="curve" smooth="yes"/>
      <point x="210" y="661" type="line"/>
      <point x="193" y="637"/>
      <point x="177" y="585"/>
      <point x="161" y="496" type="curve"/>
      <point x="152" y="451"/>
      <point x="145" y="392"/>
      <point x="138" y="318" type="curve"/>
      <point x="203" y="382"/>
      <point x="263" y="411"/>
      <point x="307" y="426" type="curve" smooth="yes"/>
      <point x="333" y="434"/>
      <point x="357" y="438"/>
      <point x="378" y="439" type="curve"/>
      <point x="433" y="435"/>
      <point x="473" y="415"/>
      <point x="502" y="391" type="curve"/>
      <point x="530" y="366"/>
      <point x="548" y="338"/>
      <point x="557" y="318" type="curve" smooth="yes"/>
      <point x="562" y="305"/>
      <point x="567" y="266"/>
      <point x="564" y="221" type="curve" smooth="yes"/>
      <point x="561" y="176"/>
      <point x="551" y="123"/>
      <point x="527" y="81" type="curve" smooth="yes"/>
      <point x="502" y="39"/>
      <point x="464" y="8"/>
      <point x="405" y="5" type="curve"/>
      <point x="337" y="5"/>
      <point x="280" y="19"/>
      <point x="220" y="53" type="curve" smooth="yes"/>
      <point x="189" y="70"/>
      <point x="163" y="94"/>
      <point x="142" y="126" type="curve"/>
      <point x="142" y="103" type="line" smooth="yes"/>
      <point x="142" y="87"/>
      <point x="144" y="75"/>
      <point x="145" y="64" type="curve" smooth="yes"/>
      <point x="146" y="52"/>
      <point x="151" y="41"/>
      <point x="160" y="26" type="curve" smooth="yes"/>
      <point x="164" y="18"/>
      <point x="170" y="10"/>
      <point x="177" y="3" type="curve"/>
      <point x="162" y="4"/>
      <point x="148" y="5"/>
      <point x="133" y="4" type="curve" smooth="yes"/>
      <point x="125" y="3"/>
      <point x="117" y="3"/>
      <point x="109" y="2" type="curve" smooth="yes"/>
      <point x="93" y="1"/>
      <point x="78" y="-2"/>
      <point x="58" y="-6" type="curve" smooth="yes"/>
      <point x="48" y="-8"/>
      <point x="38" y="-10"/>
      <point x="27" y="-13" type="curve"/>
      <point x="29" y="-7"/>
      <point x="31" y="2"/>
      <point x="32" y="14" type="curve" smooth="yes"/>
      <point x="33" y="25"/>
      <point x="35" y="38"/>
      <point x="37" y="53" type="curve" smooth="yes"/>
      <point x="38" y="67"/>
      <point x="40" y="82"/>
      <point x="41" y="98" type="curve" smooth="yes"/>
      <point x="44" y="146" type="line" smooth="yes"/>
      <point x="49" y="219"/>
      <point x="55" y="338"/>
      <point x="52" y="454" type="curve" smooth="yes"/>
      <point x="51" y="503"/>
      <point x="47" y="556"/>
      <point x="42" y="601" type="curve" smooth="yes"/>
      <point x="37" y="645"/>
      <point x="28" y="682"/>
      <point x="15" y="702" type="curve"/>
    </contour>
    <contour>
      <point x="145" y="215" type="line"/>
      <point x="166" y="176"/>
      <point x="191" y="150"/>
      <point x="215" y="131" type="curve" smooth="yes"/>
      <point x="239" y="112"/>
      <point x="263" y="102"/>
      <point x="284" y="97" type="curve" smooth="yes"/>
      <point x="333" y="84"/>
      <point x="386" y="95"/>
      <point x="413" y="135" type="curve" smooth="yes"/>
      <point x="440" y="175"/>
      <point x="449" y="212"/>
      <point x="451" y="249" type="curve" smooth="yes"/>
      <point x="453" y="286"/>
      <point x="443" y="323"/>
      <point x="418" y="351" type="curve" smooth="yes"/>
      <point x="405" y="364"/>
      <point x="387" y="372"/>
      <point x="363" y="375" type="curve"/>
      <point x="330" y="375"/>
      <point x="289" y="358"/>
      <point x="236" y="322" type="curve" smooth="yes"/>
      <point x="209" y="303"/>
      <point x="179" y="276"/>
      <point x="145" y="240" type="curve"/>
    </contour>
  </outline>
</glyph>
<glyph name="c" format="1">
  <advance width="544"/>
  <unicode hex="0063"/>
  <outline>
	<contour>
	  <point x="558" y="358"/>
	  <point x="532" y="359"/>
	  <point x="511" y="359" type="curve" smooth="yes"/>
	  <point x="499" y="359"/>
	  <point x="486" y="359"/>
	  <point x="473" y="358" type="curve" smooth="yes"/>
	  <point x="445" y="357"/>
	  <point x="421" y="356"/>
	  <point x="391" y="354" type="curve" smooth="yes"/>
	  <point x="376" y="353"/>
	  <point x="361" y="351"/>
	  <point x="347" y="350" type="curve"/>
	  <point x="358" y="355"/>
	  <point x="366" y="366"/>
	  <point x="373" y="375" type="curve" smooth="yes"/>
	  <point x="376" y="380"/>
	  <point x="379" y="386"/>
	  <point x="382" y="392" type="curve"/>
	  <point x="389" y="412"/>
	  <point x="380" y="444"/>
	  <point x="360" y="468" type="curve" smooth="yes"/>
	  <point x="339" y="492"/>
	  <point x="306" y="509"/>
	  <point x="269" y="501" type="curve" smooth="yes"/>
	  <point x="229" y="492"/>
	  <point x="197" y="474"/>
	  <point x="177" y="442" type="curve" smooth="yes"/>
	  <point x="156" y="409"/>
	  <point x="147" y="362"/>
	  <point x="151" y="297" type="curve" smooth="yes"/>
	  <point x="156" y="216"/>
	  <point x="179" y="170"/>
	  <point x="210" y="146" type="curve" smooth="yes"/>
	  <point x="241" y="122"/>
	  <point x="279" y="120"/>
	  <point x="315" y="124" type="curve"/>
	  <point x="340" y="129"/>
	  <point x="359" y="145"/>
	  <point x="374" y="173" type="curve" smooth="yes"/>
	  <point x="381" y="187"/>
	  <point x="385" y="206"/>
	  <point x="384" y="231" type="curve"/>
	  <point x="506" y="236" type="line"/>
	  <point x="478" y="157"/>
	  <point x="434" y="114"/>
	  <point x="397" y="89" type="curve" smooth="yes"/>
	  <point x="375" y="74"/>
	  <point x="353" y="64"/>
	  <point x="331" y="59" type="curve"/>
	  <point x="276" y="50"/>
	  <point x="235" y="52"/>
	  <point x="200" y="63" type="curve" smooth="yes"/>
	  <point x="165" y="74"/>
	  <point x="137" y="90"/>
	  <point x="110" y="109" type="curve" smooth="yes"/>
	  <point x="93" y="121"/>
	  <point x="70" y="150"/>
	  <point x="51" y="190" type="curve" smooth="yes"/>
	  <point x="32" y="229"/>
	  <point x="18" y="278"/>
	  <point x="21" y="330" type="curve" smooth="yes"/>
	  <point x="24" y="381"/>
	  <point x="43" y="434"/>
	  <point x="90" y="482" type="curve" smooth="yes"/>
	  <point x="161" y="554"/>
	  <point x="246" y="572"/>
	  <point x="318" y="562" type="curve" smooth="yes"/>
	  <point x="390" y="552"/>
	  <point x="450" y="515"/>
	  <point x="473" y="478" type="curve" smooth="yes"/>
	  <point x="484" y="459"/>
	  <point x="493" y="445"/>
	  <point x="499" y="436" type="curve"/>
	  <point x="504" y="426"/>
	  <point x="509" y="419"/>
	  <point x="512" y="414" type="curve" smooth="yes"/>
	  <point x="518" y="404"/>
	  <point x="521" y="401"/>
	  <point x="530" y="393" type="curve" smooth="yes"/>
	  <point x="533" y="390"/>
	  <point x="537" y="386"/>
	  <point x="542" y="382" type="curve" smooth="yes"/>
	  <point x="546" y="379"/>
	  <point x="551" y="375"/>
	  <point x="556" y="370" type="curve" smooth="yes"/>
	  <point x="561" y="365"/>
	  <point x="567" y="360"/>
	  <point x="574" y="355" type="curve"/>
	</contour>
  </outline>
</glyph>
<glyph name="d" format="1">
  <advance width="606"/>
  <unicode hex="0064"/>
  <outline>
	<contour>
	  <point x="586" y="720"/>
	  <point x="610" y="751"/>
	  <point x="642" y="766" type="curve"/>
	  <point x="624" y="765"/>
	  <point x="607" y="764"/>
	  <point x="591" y="765" type="curve"/>
	  <point x="547" y="765" type="line" smooth="yes"/>
	  <point x="532" y="765"/>
	  <point x="519" y="765"/>
	  <point x="506" y="766" type="curve" smooth="yes"/>
	  <point x="462" y="769" type="line" smooth="yes"/>
	  <point x="449" y="770"/>
	  <point x="434" y="772"/>
	  <point x="418" y="773" type="curve" smooth="yes"/>
	  <point x="402" y="774"/>
	  <point x="385" y="777"/>
	  <point x="368" y="780" type="curve"/>
	  <point x="377" y="777"/>
	  <point x="386" y="772"/>
	  <point x="393" y="767" type="curve" smooth="yes"/>
	  <point x="407" y="755"/>
	  <point x="416" y="743"/>
	  <point x="423" y="730" type="curve"/>
	  <point x="426" y="721"/>
	  <point x="429" y="703"/>
	  <point x="432" y="678" type="curve"/>
	  <point x="439" y="635"/>
	  <point x="445" y="558"/>
	  <point x="453" y="425" type="curve"/>
	  <point x="409" y="462"/>
	  <point x="374" y="479"/>
	  <point x="347" y="487" type="curve" smooth="yes"/>
	  <point x="316" y="496"/>
	  <point x="299" y="493"/>
	  <point x="266" y="486" type="curve" smooth="yes"/>
	  <point x="233" y="479"/>
	  <point x="194" y="465"/>
	  <point x="155" y="443" type="curve" smooth="yes"/>
	  <point x="115" y="421"/>
	  <point x="81" y="390"/>
	  <point x="60" y="348" type="curve" smooth="yes"/>
	  <point x="39" y="306"/>
	  <point x="34" y="235"/>
	  <point x="54" y="159" type="curve"/>
	  <point x="73" y="82"/>
	  <point x="111" y="22"/>
	  <point x="164" y="-10" type="curve" smooth="yes"/>
	  <point x="216" y="-42"/>
	  <point x="284" y="-30"/>
	  <point x="333" y="2" type="curve" smooth="yes"/>
	  <point x="382" y="33"/>
	  <point x="417" y="70"/>
	  <point x="434" y="96" type="curve"/>
	  <point x="446" y="112" type="line" smooth="yes"/>
	  <point x="445" y="111"/>
	  <point x="445" y="107"/>
	  <point x="446" y="102" type="curve" smooth="yes"/>
	  <point x="447" y="96"/>
	  <point x="448" y="89"/>
	  <point x="450" y="80" type="curve" smooth="yes"/>
	  <point x="454" y="52" type="line" smooth="yes"/>
	  <point x="457" y="32"/>
	  <point x="458" y="20"/>
	  <point x="463" y="5" type="curve" smooth="yes"/>
	  <point x="467" y="-7"/>
	  <point x="473" y="-23"/>
	  <point x="484" y="-38" type="curve"/>
	  <point x="586" y="8" type="line"/>
	  <point x="570" y="21"/>
	  <point x="560" y="46"/>
	  <point x="553" y="67" type="curve" smooth="yes"/>
	  <point x="545" y="91"/>
	  <point x="541" y="108"/>
	  <point x="538" y="164" type="curve" smooth="yes"/>
	  <point x="535" y="220"/>
	  <point x="534" y="295"/>
	  <point x="534" y="375" type="curve" smooth="yes"/>
	  <point x="534" y="455"/>
	  <point x="536" y="530"/>
	  <point x="540" y="584" type="curve" smooth="yes"/>
	  <point x="544" y="638"/>
	  <point x="552" y="659"/>
	  <point x="571" y="692" type="curve" smooth="yes"/>
	</contour>
	<contour>
	  <point x="339" y="76"/>
	  <point x="308" y="60"/>
	  <point x="277" y="57" type="curve"/>
	  <point x="240" y="57"/>
	  <point x="219" y="78"/>
	  <point x="207" y="100" type="curve" smooth="yes"/>
	  <point x="195" y="122"/>
	  <point x="193" y="145"/>
	  <point x="193" y="153" type="curve" smooth="yes"/>
	  <point x="193" y="183" type="line" smooth="yes"/>
	  <point x="193" y="196"/>
	  <point x="193" y="211"/>
	  <point x="194" y="228" type="curve"/>
	  <point x="194" y="260"/>
	  <point x="197" y="297"/>
	  <point x="206" y="329" type="curve" smooth="yes"/>
	  <point x="215" y="360"/>
	  <point x="230" y="384"/>
	  <point x="255" y="393" type="curve" smooth="yes"/>
	  <point x="292" y="406"/>
	  <point x="319" y="407"/>
	  <point x="347" y="397" type="curve" smooth="yes"/>
	  <point x="374" y="387"/>
	  <point x="401" y="367"/>
	  <point x="438" y="340" type="curve"/>
	  <point x="437" y="336"/>
	  <point x="437" y="332"/>
	  <point x="437" y="327" type="curve" smooth="yes"/>
	  <point x="437" y="314" type="line"/>
	  <point x="437" y="299" type="line" smooth="yes"/>
	  <point x="437" y="293"/>
	  <point x="437" y="285"/>
	  <point x="438" y="275" type="curve" smooth="yes"/>
	  <point x="439" y="266"/>
	  <point x="439" y="255"/>
	  <point x="440" y="241" type="curve" smooth="yes"/>
	  <point x="440" y="227"/>
	  <point x="441" y="209"/>
	  <point x="442" y="188" type="curve"/>
	  <point x="419" y="155"/>
	  <point x="398" y="129"/>
	  <point x="379" y="112" type="curve" smooth="yes"/>
	</contour>
  </outline>
</glyph>
<glyph name="f" format="1">
  <advance width="351"/>
  <unicode hex="0066"/>
  <outline>
	<contour>
	  <point x="86" y="-17"/>
	  <point x="101" y="17"/>
	  <point x="109" y="46" type="curve" smooth="yes"/>
	  <point x="118" y="81"/>
	  <point x="119" y="105"/>
	  <point x="116" y="154" type="curve" smooth="yes"/>
	  <point x="113" y="195"/>
	  <point x="109" y="265"/>
	  <point x="98" y="381" type="curve"/>
	  <point x="83" y="380"/>
	  <point x="73" y="379"/>
	  <point x="66" y="379" type="curve" smooth="yes"/>
	  <point x="55" y="379" type="line" smooth="yes"/>
	  <point x="48" y="379"/>
	  <point x="40" y="378"/>
	  <point x="28" y="375" type="curve" smooth="yes"/>
	  <point x="21" y="374"/>
	  <point x="14" y="372"/>
	  <point x="5" y="370" type="curve"/>
	  <point x="8" y="387" type="line"/>
	  <point x="8" y="392"/>
	  <point x="8" y="397"/>
	  <point x="9" y="402" type="curve" smooth="yes"/>
	  <point x="10" y="407"/>
	  <point x="10" y="412"/>
	  <point x="10" y="417" type="curve" smooth="yes"/>
	  <point x="10" y="432" type="line" smooth="yes"/>
	  <point x="10" y="441"/>
	  <point x="11" y="452"/>
	  <point x="12" y="463" type="curve"/>
	  <point x="91" y="461" type="line"/>
	  <point x="84" y="518"/>
	  <point x="87" y="565"/>
	  <point x="90" y="598" type="curve" smooth="yes"/>
	  <point x="94" y="637"/>
	  <point x="101" y="668"/>
	  <point x="117" y="699" type="curve" smooth="yes"/>
	  <point x="133" y="730"/>
	  <point x="161" y="751"/>
	  <point x="202" y="763" type="curve" smooth="yes"/>
	  <point x="243" y="774"/>
	  <point x="317" y="774"/>
	  <point x="356" y="759" type="curve" smooth="yes"/>
	  <point x="395" y="743"/>
	  <point x="412" y="719"/>
	  <point x="415" y="690" type="curve" smooth="yes"/>
	  <point x="418" y="661"/>
	  <point x="414" y="633"/>
	  <point x="408" y="610" type="curve" smooth="yes"/>
	  <point x="402" y="587"/>
	  <point x="404" y="582"/>
	  <point x="409" y="569" type="curve" smooth="yes"/>
	  <point x="413" y="558"/>
	  <point x="421" y="542"/>
	  <point x="438" y="522" type="curve"/>
	  <point x="417" y="525"/>
	  <point x="395" y="527"/>
	  <point x="376" y="528" type="curve" smooth="yes"/>
	  <point x="355" y="529"/>
	  <point x="335" y="528"/>
	  <point x="314" y="527" type="curve"/>
	  <point x="284" y="524" type="line" smooth="yes"/>
	  <point x="273" y="523"/>
	  <point x="263" y="520"/>
	  <point x="254" y="517" type="curve"/>
	  <point x="281" y="536"/>
	  <point x="294" y="557"/>
	  <point x="302" y="573" type="curve" smooth="yes"/>
	  <point x="311" y="592"/>
	  <point x="313" y="611"/>
	  <point x="310" y="640" type="curve"/>
	  <point x="306" y="668"/>
	  <point x="296" y="693"/>
	  <point x="283" y="709" type="curve" smooth="yes"/>
	  <point x="276" y="716"/>
	  <point x="268" y="719"/>
	  <point x="259" y="717" type="curve"/>
	  <point x="231" y="706"/>
	  <point x="210" y="670"/>
	  <point x="191" y="600" type="curve" smooth="yes"/>
	  <point x="182" y="565"/>
	  <point x="176" y="516"/>
	  <point x="173" y="454" type="curve"/>
	  <point x="186" y="453"/>
	  <point x="198" y="452"/>
	  <point x="209" y="452" type="curve" smooth="yes"/>
	  <point x="220" y="451"/>
	  <point x="229" y="451"/>
	  <point x="238" y="450" type="curve" smooth="yes"/>
	  <point x="248" y="449"/>
	  <point x="257" y="449"/>
	  <point x="266" y="449" type="curve" smooth="yes"/>
	  <point x="275" y="449"/>
	  <point x="284" y="449"/>
	  <point x="295" y="450" type="curve" smooth="yes"/>
	  <point x="304" y="451"/>
	  <point x="315" y="451"/>
	  <point x="328" y="452" type="curve" smooth="yes"/>
	  <point x="341" y="452"/>
	  <point x="355" y="453"/>
	  <point x="370" y="454" type="curve"/>
	  <point x="368" y="402" type="line"/>
	  <point x="333" y="399" type="line"/>
	  <point x="310" y="398"/>
	  <point x="292" y="396"/>
	  <point x="275" y="395" type="curve" smooth="yes"/>
	  <point x="266" y="394"/>
	  <point x="256" y="394"/>
	  <point x="246" y="393" type="curve" smooth="yes"/>
	  <point x="217" y="390" type="line" smooth="yes"/>
	  <point x="206" y="389"/>
	  <point x="194" y="387"/>
	  <point x="182" y="386" type="curve"/>
	  <point x="201" y="235"/>
	  <point x="214" y="147"/>
	  <point x="225" y="96" type="curve"/>
	  <point x="230" y="66"/>
	  <point x="235" y="45"/>
	  <point x="239" y="32" type="curve" smooth="yes"/>
	  <point x="247" y="11"/>
	  <point x="257" y="-4"/>
	  <point x="270" y="-17" type="curve" smooth="yes"/>
	  <point x="277" y="-24"/>
	  <point x="284" y="-28"/>
	  <point x="293" y="-30" type="curve" smooth="yes"/>
	  <point x="250" y="-23"/>
	  <point x="220" y="-20"/>
	  <point x="199" y="-19" type="curve" smooth="yes"/>
	  <point x="175" y="-18"/>
	  <point x="162" y="-18"/>
	  <point x="139" y="-21" type="curve" smooth="yes"/>
	  <point x="120" y="-23"/>
	  <point x="93" y="-28"/>
	  <point x="59" y="-36" type="curve"/>
	</contour>
  </outline>
</glyph>
